<?xml version="1.0" encoding="utf-8"?>
<!-- Generator: Adobe Illustrator 24.0.1, SVG Export Plug-In . SVG Version: 6.00 Build 0)  -->
<svg version="1.1" id="Layer_1" xmlns="http://www.w3.org/2000/svg" xmlns:xlink="http://www.w3.org/1999/xlink" x="0px" y="0px"
	 viewBox="0 0 1920 639" style="enable-background:new 0 0 1920 639;" xml:space="preserve">
<style type="text/css">
	.st0{fill-rule:evenodd;clip-rule:evenodd;fill:#FFFFFF;}
	.st1{fill-rule:evenodd;clip-rule:evenodd;fill:url(#SVGID_15_);}
	.st2{fill-rule:evenodd;clip-rule:evenodd;fill:url(#SVGID_16_);}
	.st3{fill:#FFFFFF;}
	.st4{fill-rule:evenodd;clip-rule:evenodd;fill:url(#SVGID_17_);}
	.st5{fill-rule:evenodd;clip-rule:evenodd;fill:url(#SVGID_18_);}
	.st6{fill-rule:evenodd;clip-rule:evenodd;fill:url(#SVGID_19_);}
	.st7{fill-rule:evenodd;clip-rule:evenodd;fill:url(#SVGID_20_);}
	.st8{fill-rule:evenodd;clip-rule:evenodd;fill:url(#SVGID_21_);}
	.st9{fill-rule:evenodd;clip-rule:evenodd;fill:url(#SVGID_22_);}
	.st10{fill-rule:evenodd;clip-rule:evenodd;fill:#DF171F;}
	.st11{fill-rule:evenodd;clip-rule:evenodd;fill:url(#SVGID_23_);}
	.st12{fill-rule:evenodd;clip-rule:evenodd;fill:url(#SVGID_24_);}
	.st13{fill-rule:evenodd;clip-rule:evenodd;fill:url(#SVGID_25_);}
	.st14{fill-rule:evenodd;clip-rule:evenodd;fill:url(#SVGID_26_);}
	.st15{fill-rule:evenodd;clip-rule:evenodd;fill:url(#SVGID_27_);}
	.st16{fill-rule:evenodd;clip-rule:evenodd;fill:url(#SVGID_28_);}
	.st17{fill:none;}
	.st18{fill:#FFEC00;}
	.st19{fill:#20286D;}
	.st20{fill:#E20613;}
	.st21{fill-rule:evenodd;clip-rule:evenodd;fill:#F76C6C;}
	.st22{fill:#231F20;}
	.st23{fill-rule:evenodd;clip-rule:evenodd;fill:none;stroke:#231F20;stroke-width:4;stroke-miterlimit:2.6131;}
	.st24{fill-rule:evenodd;clip-rule:evenodd;fill:#EE3648;}
	.st25{fill-rule:evenodd;clip-rule:evenodd;fill:#FFFFFF;stroke:#EE3648;stroke-width:0.216;stroke-miterlimit:2.6131;}
	.st26{fill-rule:evenodd;clip-rule:evenodd;fill:#00BAC7;}
	.st27{fill-rule:evenodd;clip-rule:evenodd;fill:#7A1B54;}
	.st28{fill:none;stroke:#EE3648;stroke-width:0.5;stroke-miterlimit:2.6131;}
	.st29{fill:none;stroke:#EE3648;stroke-width:0.9598;stroke-miterlimit:2.6131;}
	.st30{fill:none;stroke:#00BAC7;stroke-width:0.216;stroke-miterlimit:2.6131;}
	.st31{fill-rule:evenodd;clip-rule:evenodd;fill:#EE3648;stroke:#EE3648;stroke-width:0.216;stroke-miterlimit:2.6131;}
	.st32{fill:none;stroke:#231F20;stroke-width:1.9199;stroke-miterlimit:2.6131;}
</style>
<symbol  id="Bank_of_Baroda_-_composite_logo__x28_reverse_x29_" viewBox="-266 -88.4 532.1 176.9">
	<path class="st0" d="M-180.6-41.3l-62.5-0.1l0.4,2.2l45.5,1.3c8.7,0.3,17.2,0.8,25.4,3.6c16.8,5.6,30.2,17.1,34.2,31.2
		c4.2,15.2-5.5,30-23.8,31.3c15.5,4.5,28.7,14.4,32.3,27c4.6,16.4-3.7,24.8-17.7,27.8c23.2,0.4,41.4-7.5,35.2-29.7
		c-3.5-12.7-17.1-22.3-32.5-26.5c18.1-1.3,28-18.6,23.2-33.6c-5-15.6-17.6-25.4-34.4-31C-163.4-40.5-171.8-41-180.6-41.3"/>
	<path class="st0" d="M-213.4-33.5l-29.3-1.5c0,0.8,0,0.6-0.1,1.3l74.3,22l0.2,2.7l-75.9-19.6c-0.2,0.7-0.3,0.5-0.6,1.2l79.4,44
		l-0.8,2.2l-81.1-41.9c-0.5,0.7-0.3,0.4-0.8,1l94.4,88.1l-1.2,2.4L-251.5-19c-0.5,0.3-0.8,0.6-1.2,0.8l69.2,99.6h-2.9l-70.8-97.5
		c-0.4,0.1-0.8,0.3-1.2,0.4l41.1,97.3h-2.6L-264.3-15h-1.8l28.6,103.4l53.5-0.2c25.3,1.4,45.3-5.4,38.7-29
		c-3.5-12.7-16.8-22.5-32.2-26.7l-0.1-0.3c18.3-1.3,28.6-16,24.4-31.2c-3.9-14.2-18-25.3-34.9-30.9C-196.1-32.6-204.5-33-213.4-33.5
		 M-72-41c4,0,14,0.5,16.4,11.9c1.3,6.1,0.5,10.4-6,11.4v0.1c5.3,1,8.6,4.7,9.7,9.9c2,9.6-3.4,11.6-10.6,11.6H-79L-88.5-41H-72z
		 M-71.1-3.1h5.8c3.2,0,4.9-2.4,4.2-5.7c-0.9-4.4-4.1-5.7-6.1-5.7h-6.3L-71.1-3.1z M-75-21.5h5.5c4.7,0,5.7-2.4,4.9-6.4
		c-1.3-6.3-5.8-6.3-7.8-6.3h-5.2L-75-21.5z M-25.4-19.6c1.2,5.7,0.8,10.5-10.3,10.5c-3.4,0-6.3-0.6-8.6-2.1
		c-2.4-1.4-4.1-3.8-4.9-7.6h8.6c0.5,2.5,1.3,4.8,4.3,4.8c3.2,0,3.1-1.9,2.6-4.6l-0.5-2.4c-8.1,0.1-16.2-0.3-18.4-10.7
		c-1.2-5.5,0.1-10,6.2-10c3.8,0,6.7,1.6,9.2,4.8h0.1l-0.5-4.2h8.1c0.2,1.9,0.4,3.9,0.8,5.8C-28.7-35.3-25.4-19.6-25.4-19.6z
		 M-35.3-26c-0.7-3.4-1.4-10.4-6.6-10.4c-2.9,0-2.6,2.7-2.2,5C-42.9-25.8-39.7-26.2-35.3-26 M-9.9-9.8h-8.8l-6.7-31.4h8.8l4.6,21.6
		c0.6,2.8,1.6,5,4.3,5c2.8,0,2.8-2.2,2.2-5L-10-41h8.8L4.1-16C5-11.6,1.9-9.1-2.3-9.1c-3.3,0-5.9-1-8.2-3.8h-0.1
		C-10.6-12.9-9.9-9.8-9.9-9.8z M11.7-41l3.6,17h0.1l4.5-17h9.9l-6.2,17.4L35.5-9.8h-9.1L15.7-23h-0.2l5.7,26.7h-8.7L2.9-41H11.7z
		 M51.9-41.8c11.3,0,14.3,6.9,16.4,16.7c1.8,8.6,2.1,15.9-9.4,15.9c-11.6,0-14.4-7.3-16.2-15.9C40.6-34.8,40.6-41.8,51.9-41.8
		 M53.1-36.2c-3.2,0-3.6,2-1.6,11.6c1.4,6.5,2.4,9.8,6.1,9.8c3.7,0,3.3-3.3,2-9.8C57.6-34,56.3-36.2,53.1-36.2 M91.5,3.9
		c-1,0.1-2,0.1-3.1,0.1c-10.7,0-11-4.8-12.8-13.8h-4l-1.1-5.4h3.9l-5.5-26h8.8l5.5,26h4.1l1.1,5.4h-4.1L85.1-6
		c0.7,3.2,1.7,4.5,5.2,4.3C90.3-1.7,91.5,3.9,91.5,3.9z M111.4-41c4,0,14,0.5,16.4,11.9c1.3,6.1,0.5,10.4-6,11.4v0.1
		c5.3,1,8.6,4.7,9.7,9.9c2,9.6-3.4,11.6-10.6,11.6h-16.7L94.7-41C94.7-41,111.4-41,111.4-41z M112.2-3.1h5.8c3.2,0,4.9-2.4,4.2-5.7
		c-0.9-4.4-4.1-5.7-6.1-5.7h-6.3L112.2-3.1z M108.4-21.4h5.5c4.7,0,5.7-2.4,4.9-6.4c-1.3-6.3-5.8-6.3-7.8-6.3h-5.2L108.4-21.4z
		 M157.9-19.6c1.2,5.7,0.8,10.5-10.3,10.5c-3.4,0-6.3-0.6-8.6-2.1c-2.4-1.4-4-3.8-4.9-7.6h8.6c0.5,2.5,1.3,4.8,4.3,4.8
		c3.2,0,3.1-1.9,2.6-4.6l-0.5-2.4c-8.1,0.1-16.2-0.3-18.4-10.7c-1.2-5.5,0.1-10,6.2-10c3.8,0,6.7,1.6,9.2,4.8h0.1l-0.5-4.2h8.1
		c0.2,1.9,0.4,3.9,0.8,5.8L157.9-19.6L157.9-19.6z M148-26c-0.7-3.4-1.4-10.4-6.6-10.4c-2.9,0-2.6,2.7-2.2,5
		C140.5-25.8,143.6-26.2,148-26 M164.7-9.8L158-41h8.8l3.6,17.1c0.7,3.1,1.7,7.6,9.3,7.1l1.7,7.8c-3.5,0-6.7-1.1-9.1-4.7h-0.1l0.9,4
		C173.1-9.7,164.7-9.7,164.7-9.8z M188-41.8c11.3,0,14.3,6.9,16.4,16.7c1.8,8.6,2.1,15.9-9.4,15.9c-11.6,0-14.4-7.3-16.2-15.9
		C176.6-34.8,176.7-41.8,188-41.8 M189.2-36.2c-3.2,0-3.6,2-1.6,11.6c1.4,6.5,2.4,9.8,6.1,9.8c3.7,0,3.3-3.3,2-9.8
		C193.6-34,192.4-36.2,189.2-36.2 M228.5-41L238,3.7h-8.8l-3.5-16.5h-0.1c-1.2,2.7-3.2,3.6-6.4,3.6c-8.8,0-10.6-9.8-12-16.1
		c-1.4-6.5-3.8-16.5,5.2-16.5c3.4,0,6,1.1,8.3,4.1h0.1l-0.7-3.5h8.4V-41z M217.2-36.3c-3.2,0-3,3.3-1.4,11.2
		c1.3,6.3,2.2,10.6,6,10.6c3.6,0,2.6-4.3,1.3-10.6C221.4-33,220.3-36.3,217.2-36.3 M261.3-19.6c1.2,5.7,0.8,10.5-10.3,10.5
		c-3.4,0-6.3-0.6-8.6-2.1c-2.4-1.4-4-3.8-4.9-7.6h8.6c0.5,2.5,1.3,4.8,4.3,4.8c3.2,0,3.1-1.9,2.6-4.6l-0.5-2.4
		c-8.1,0.1-16.2-0.3-18.4-10.7c-1.2-5.5,0.1-10,6.2-10c3.8,0,6.7,1.6,9.2,4.8h0.1l-0.5-4.2h8.1c0.2,1.9,0.4,3.9,0.8,5.8
		C258-35.3,261.3-19.6,261.3-19.6z M251.4-26c-0.7-3.4-1.4-10.4-6.6-10.4c-2.9,0-2.6,2.7-2.2,5C243.9-25.8,247-26.2,251.4-26
		 M174,26.9h7.6l-1.7-6.3h-7.6C172.3,20.6,174,26.9,174,26.9z M70.3,33.1h7.6l-1.7-6.3h-7.6L70.3,33.1z M-51,78.6h7.6l-1.7-6.3h-7.6
		L-51,78.6z M44.1,69.1h71.3l-1.2-3.8H99.8l-2.4-9.1c2.2,2.2,4.9,3.2,8,3.2c4,0,7-2,6.1-5.4L106.4,34H98l4.4,17.1
		c0.6,2.2,0.5,3.9-2.1,3.9c-1.9,0-3.3-1.6-4.1-3.3l-2.1-8c-0.4-1.6-2.7-11.4-3-13h-8.7L85,41.3c-2.4-2.2-4.8-3-8-3c-4,0-7,2-6.1,5.4
		l5.6,21.6h-6.6L61,30.6h-8l8.9,34.7h-6.3l-8.9-34.7h-8l4.7,18.2h-6.5l1.1,3.9h6.4l3.2,12.6h-4.9C42.7,65.4,44.1,69.1,44.1,69.1z
		 M91.4,65.3h-6.3l-4.9-18.9c-0.6-2.2-0.5-3.8,2.2-3.8s3.7,2.5,4.3,4.7C86.7,47.2,91.4,65.3,91.4,65.3z M19.6,30.6H7.7l1,3.9h10.4
		c2.6,0,6.5,1.5,7.8,6.7c0.8,3.3-0.6,7.1-5.3,7.1h-7.8l1,4.3h9c3.2,0,5.7,2.7,6.6,6.3c0.7,2.7,0.5,6.4-4.2,6.4h-9.7l1,3.9h11.6
		c5.9,0,12.3-2.5,10.6-9.6c-1.3-5.3-4-7.9-10.2-8.9c6.4-0.9,7.7-5.2,6.4-10.3C33.6,31,23.6,30.6,19.6,30.6 M-67.9,69.1l-7,8.6
		l5.8,4.3l7.4-12.9h2.2l-5.9,15.6l7,3.1l4.1-18.8h46.4L-9,65.3h-16.1l-2-8c2.2,2.4,4.8,3.3,8,3.3c8.7,0,6.8-8.2,5.5-13.3
		c-1.3-5-3.5-12.3-11.9-12.3c-1.7,0-3.2,0.3-4,1.1l0.6,2.2c0.2,0,0.5-0.2,0.8-0.2c3.6,0,4.6,4.3,5.9,9.3c1.6,6.2,1.7,8.8-1.3,8.8
		c-2.5,0-4-1.9-5.4-6.7l-4.7-19h-7.9l2.1,7.5c-2.3-2.4-4.8-3.2-8-3.2c-8.7,0-6.7,8.7-5.4,13.8c1.3,5,3.4,12,11.8,12
		c3,0,4.9-0.7,6.1-2.9l1.9,7.4h-21.5l-8.9-34.7h-8l2.1,7.6c-2.3-2.4-6.3-3.2-9.5-3.2c-8.7,0-6.9,8.8-5.6,14
		c1.3,5,3.6,11.8,12.1,11.8c3,0,6.4-0.8,7.6-2.9l1.9,7.4h-19.4l1.2,3.8h13.1L-67.9,69.1z M-74,54.3l6.2-8.1l0.5,1.8
		c1.3,5,2.3,8.4-2.3,8.5C-71.7,56.5-73.1,55.7-74,54.3 M-69.3,42.3l-6.4,8.2c-0.2-0.8-0.4-1.6-0.7-2.5c-1.6-6.2-1.5-8.8,2.3-8.8
		C-71.8,39.2-70.4,40.1-69.3,42.3 M-41.6,30.6c2.1,7.6,2.1,7.5,2.1,7.5L-41.6,30.6z M-43.1,39.2c2.9,0,4.1,2.6,5.7,8.8
		c1.3,5,2.2,8.4-1.2,8.4c-3.6,0-4.4-3.4-5.7-8.4C-46,41.8-46.2,39.2-43.1,39.2 M190.6,58l1.7,7.2h-23.6l-8.9-34.7h-8l2.1,7.6
		c-2.3-2.4-6.3-3.2-9.5-3.2c-8.7,0-7.2,8.3-5.9,13.5c1.3,5,3.9,12.3,12.4,12.3c3,0,6.4-0.8,7.6-2.9l1.9,7.4h-19.3l1.2,3.8h56.6
		l-7,8.6l5.8,4.3l7.4-12.9h2.2l-5.9,15.6l7,3.1l4.1-18.8H266l-1.2-3.8h-4.5l-8.9-34.7h-8l8.9,34.7h-6.9l-2.8-8.8h-11.1
		c-3.6,0-4.6-4.3-6.1-10.7c-1.8-7.7-3.2-12.3,1.8-12.3c0.3,0,0.9,0.1,1.6,0.4c-0.5,4.7,2.2,10.3,7.8,10.3c5.1,0,5.1-2.8,4.4-5.3
		c-1-3.5-2.8-5.4-6.2-6.3c1.8-3.3,6.1-3.6,6.1-3.6l-8.6-4.7c-2,2.3-3.1,4.4-3.5,6.8c-2.1-0.6-4.4-0.7-6.2-0.7
		c-10.3,0-8.6,10-6.8,16.8c1.8,7,4.8,13.1,13.3,13.1c3,0,6.4-0.2,6.4-0.2l1.5,5.3h-22.4l-8.9-34.7h-8l8.9,34.7h-6.4l-3-12.2h-8
		c0.7,2.7-0.6,3.7-4,3.7c-3.1,0-4-0.4-5.3-4.8c-0.9-3.8,0.2-4.5,3.9-4.4h6.4c4.7,0,5.5-1.8,3.9-8.7c-2.1-7.8-5.9-8.3-10.6-8.3h-9.3
		c-8.1,0-8.4,3.6-6.6,9.5h9.2c-0.8-3.1-2.7-6.2,2.7-6.2c3.2,0,4.3,0.8,5.5,5.3c1,3.2,1.3,4.9-3.7,4.9c0,0-4.3,0.1-6.4,0.1
		c-5.5,0-4.6,4.6-3.6,8.4c1.9,7.1,3.3,8,11.4,8C187.7,60.4,189.9,59.9,190.6,58 M149.2,53.9l6.3-8.2l0.6,2.2c1.3,5,2.3,8.4-2.3,8.5
		C151.5,56.5,150.2,55.5,149.2,53.9 M153.3,41.9l-6.3,8.2l-0.5-2.1c-1.6-6.2-1.5-8.8,2.3-8.8C150.8,39.2,152.2,40,153.3,41.9
		 M74.2,81.1c-2-7.5-5.4-7.9-9.7-7.9h-8.4c-7,0-7.6,3-6.2,7.9h8.3c-0.8-2.6-1.8-4.9,2.6-4.9c2.9,0,3.9,0.7,5,4.8L74.2,81.1z"/>
	<pattern  id="SVGID_15_" xlink:href="#SVGID_1_" patternTransform="matrix(0.8899 0 0 0.8899 -1634.021 -1659.9265)">
	</pattern>
	<path class="st1" d="M-88.4-88.4H74.5V-56H-88.4V-88.4z"/>
	<pattern  id="SVGID_16_" xlink:href="#SVGID_2_" patternTransform="matrix(0.8899 0 0 0.8899 -1634.021 -1659.9265)">
	</pattern>
	<path class="st2" d="M-88.4-88.4h27.2V-56h-27.2V-88.4z"/>
	<path class="st3" d="M-88.6-49.5H259v0.8H-88.6V-49.5z M85-88.4h0.8v32.3H85V-88.4z"/>
	<pattern  id="SVGID_17_" xlink:href="#SVGID_3_" patternTransform="matrix(0.8899 0 0 0.8899 -1537.7319 -1752.2296)">
	</pattern>
	<path class="st4" d="M-75.2-65.3c0.1,0.2,0.2,0.2,0.3,0.4c-0.3,0.4-0.2,0.9-0.3,1.4c-0.2,0-0.3,0.2-0.3,1c0,0.6,0,0.9,0.4,0.9
		c-0.2,0.6,0,1.3,0.5,1.8c0.4,0.4,1.3,0.6,2.2,0.5c1.1,0,2.1-0.4,1.9-1.1c0.1-0.1,0.3-0.1,0.3-0.2c0.3-0.6,0.3-1.2-0.1-2
		c-0.1-1.3-0.7-2.5-1.8-3.4c0.5-0.2,0.9-0.4,1.3-0.7c0.3-0.2,0.4-0.5,0.6-1.2c0.4-1.3,0.7-2.7,0.5-4.3c-0.6-0.6-1.4-1.1-2.2-1.4
		c-0.2-0.1-0.3,0-0.4,0.1c-0.2-0.6-0.5-1.3-0.7-1.9c-0.1-0.1-0.1-0.1-0.3-0.1c-0.5-3.1-0.9-6.2-0.8-9.3c0.2-0.3,0.4-0.7,0.6-1
		c-0.6,0-1.4-0.1-2,0c0,0.3,0.2,0.6,0.3,0.9c-0.3,1.6-0.4,3.2-0.7,4.8c-0.2-1.7-0.4-3.3-0.7-4.9c0.1-0.2,0.2-0.4,0.2-0.6
		c-0.7-0.2-1.3-0.1-1.6,0c0.1,0.3,0.2,0.4,0.3,0.6c0,2.3-0.1,4.6-0.2,6.9c-0.4,1.5-0.4,2.9-0.4,4.3c-1.6,0.7-2.6,1.5-3,2.4
		C-79.8-67.8-77.8-65.8-75.2-65.3z M-78.3-70.6c-0.3-0.1-0.5-0.3-0.7-0.6c0.3-0.1,0.5-0.3,0.7-0.5V-70.6z"/>
	<pattern  id="SVGID_18_" xlink:href="#SVGID_4_" patternTransform="matrix(0.8899 0 0 0.8899 -1537.733 -1752.2296)">
	</pattern>
	<path class="st5" d="M-73.3-61.7c0.6,0.2,0.9,0.1,1.2-0.1c0.2-0.1,0-0.4-0.2-0.3C-72.6-62-72.9-61.8-73.3-61.7z M-73.4-62.7
		c0.3-0.1,0.7-0.1,0.9,0c0.1-0.2,0-0.3-0.2-0.4C-73.1-63-73.4-62.9-73.4-62.7z M-71.3-61.1c-0.9-0.1-1.6,0.1-2.2,0.4
		c-0.4,0.2-0.8,0.1-0.9-0.4c-0.1-0.3-0.2-0.7-0.2-1c-0.1,0-0.1,0.1-0.3,0.1c-0.2,0-0.2-0.2-0.2-0.5c0-0.2-0.1-0.4,0.1-0.5
		c0.1,0,0.2,0,0.2,0.1c0-0.3,0.1-0.5,0-0.8c-0.1,0-0.1,0-0.1-0.1c0-0.2,0-0.5,0.1-0.6c0.3-0.8,1.2-1.3,2-1.4
		c0.4-0.1,1.1,0.2,1.2,0.7c0,0.1,0,0.1-0.1,0.1c-0.9-0.4-1.5,0.3-1.5,0.6c0,0,0,0.1,0.1,0.1c0.5-0.3,0.9-0.7,1.8-0.5
		c0.4,0.4,0.6,0.9,0.7,1.4c-0.2-0.2-0.4-0.2-0.6-0.2c0.1-0.7-1.1-0.7-1.2,0.1c0.2-0.1,0.5-0.2,0.8-0.2c0.1,0,0.2,0.1,0.2,0.2v0.3
		c0.2-0.2,0.5-0.2,0.8,0c0,0.2,0,0.5,0.1,0.7c-0.3,0.1-0.5,0.1-0.5,0.2c0.2,0.1,0.4,0.1,0.7,0.1c0,0.3,0,0.6-0.1,0.8
		C-70.7-61-70.9-61.1-71.3-61.1L-71.3-61.1z M-77.9-66.9c0.6-0.4,1-1,0.9-2.1c0-0.2-0.2-0.4-0.4-0.5c-0.9-0.5-1.5-1-2-1.7
		c0.8-0.4,1.4-1,1.8-1.8c-0.3,0.1-0.5-0.1-0.5-0.4c-1.3,0.5-2.1,1.3-2.8,2.2C-80.2-69.6-79.3-68.1-77.9-66.9z M-71.2-70.8v-0.8
		c-0.3-0.4-0.6-0.8-0.9-1.3c-0.1-0.2,0-0.5,0.3-0.4c0.8,0.2,1.4,0.8,1.9,1.4c0.3,1.8-0.1,2.8-0.4,3.7
		C-70.3-68.2-71.3-70.6-71.2-70.8z M-74.8-65.1c0.1,0,1.4-0.9,2-1c0-0.1,0-0.2-0.1-0.3c-0.9,0.2-1.6,0.5-2,0.9
		C-75-65.4-74.9-65.1-74.8-65.1z M-77.5-66.8c0.7,0.6,1.5,0.9,2.3,1.2c0.6-0.5,1.3-0.9,2.2-1.1c0.2-3-0.1-5.8-1.2-8.3
		c-1.2-0.1-2.2,0-3.3,0.2c-0.2,0-0.2,0.1-0.2,0.3c0,0.3,0,0.6,0.1,0.9c0.6,0,1.2,0,1.9-0.1c0.2,0,0.3,0.4,0,0.4
		c-0.4,0-0.9,0.1-1.3,0.1c-0.3,0.4-0.7,0.7-1,1.1c0.1,0.5,0.1,1,0,1.6c0.5,0.3,0.8,0.5,1.2,0.8C-76.5-68.5-76.8-67.5-77.5-66.8z
		 M-72.7-66.4c0.1,0.1,0.3,0.2,0.4,0.3c0.4-0.3,0.9-0.5,1.3-0.8c0.3-0.2,0.4-0.4,0.3-0.8l-0.3-0.9c-0.3,0-0.5,0-0.8,0.1v0.5
		c0,0.2-0.3,0.1-0.3,0c0-0.4,0-0.8-0.1-1.2c0-0.3,0.4-0.2,0.4,0.1v0.2h0.7c-0.4-1.5-1-3.3-2.1-5.7c-0.1-0.2-0.1-0.3-0.3-0.3h-0.6
		c0.3,1,0.6,2,0.8,3c0-0.1,0.1-0.1,0.2-0.1s0.2,0.1,0.2,0.2c0,0.1-0.1,0.2-0.2,0.2s-0.1,0-0.1-0.1c0.1,0.5,0.2,0.9,0.2,1.4
		c0-0.1,0.1-0.1,0.2-0.1s0.2,0.1,0.2,0.2c0,0.1-0.1,0.2-0.2,0.2s-0.1,0-0.2-0.1c0.1,0.5,0.1,1,0.1,1.5c0-0.1,0.1-0.1,0.2-0.1
		s0.2,0.1,0.2,0.2c0,0.1-0.1,0.2-0.2,0.2s-0.1,0-0.2-0.1C-72.7-67.9-72.7-67.2-72.7-66.4L-72.7-66.4z"/>
	<pattern  id="SVGID_19_" xlink:href="#SVGID_5_" patternTransform="matrix(0.8899 0 0 0.8884 -1634.021 -1697.1573)">
	</pattern>
	<path class="st6" d="M96.2-88.3h162.2v32.2H96.2V-88.3z"/>
	<pattern  id="SVGID_20_" xlink:href="#SVGID_6_" patternTransform="matrix(0.8899 0 0 0.8899 -1634.021 -1659.9265)">
	</pattern>
	<path class="st7" d="M102.9-83.4h12.4V-62h-12.4V-83.4z"/>
	<pattern  id="SVGID_21_" xlink:href="#SVGID_7_" patternTransform="matrix(0.8899 0 0 0.8899 -1634.021 -1659.9265)">
	</pattern>
	<path class="st8" d="M116.8-83.4v8.2h4.7c5,0.3,5.4,4.6-0.1,5.1h-4.6v8.1C141.4-60,141.9-85.4,116.8-83.4z"/>
	<pattern  id="SVGID_22_" xlink:href="#SVGID_8_" patternTransform="matrix(0.8899 0 0 0.8899 -1634.021 -1659.9265)">
	</pattern>
	<path class="st9" d="M107-65.4c1.1,1.9,3.6,1.5,4.2-0.1c1.9,0,3.1-0.8,2.2-2.5c1.5-0.8,1.1-1.6,0.4-2.3c-0.8-1,0-1.5,0.3-1.9v-9.5
		h-10.2v9.6c1.2,0.6,1.1,1.3,0.5,1.9c-1,1.1-0.7,1.8,0.4,2.2C103.9-65.9,105.5-65.2,107-65.4z"/>
	<path class="st10" d="M109.4-68.4C109.4-68.4,109.4-68.6,109.4-68.4C109.3-68.6,109.3-68.6,109.4-68.4L109.4-68.4
		C109.3-68.4,109.3-68.4,109.4-68.4z M109.4-68.4C109.4-68.4,109.3-68.4,109.4-68.4C109.3-68.4,109.3-68.4,109.4-68.4
		C109.3-68.4,109.4-68.4,109.4-68.4z M108.8-68.4C108.7-68.4,108.7-68.4,108.8-68.4C108.7-68.4,108.8-68.6,108.8-68.4
		C108.9-68.6,108.9-68.6,108.8-68.4L108.8-68.4z"/>
	<pattern  id="SVGID_23_" xlink:href="#SVGID_9_" patternTransform="matrix(0.8899 0 0 0.8899 -1537.733 -1752.2296)">
	</pattern>
	<path class="st11" d="M106.2-70.1l0.1,0.2h0.1c0.1,0,0,0,0.1-0.1v-0.2c0,0,0-0.1-0.1-0.1h-0.1C106.3-70.3,106.2-70.3,106.2-70.1z
		 M108.8-68.4L108.8-68.4C108.9-68.6,108.8-68.6,108.8-68.4z M109.5-68.4C109.5-68.4,109.4-68.4,109.5-68.4z M109.4-68.4
		C109.5-68.4,109.5-68.4,109.4-68.4C109.4-68.6,109.4-68.6,109.4-68.4l-0.1-0.1C109.3-68.4,109.3-68.4,109.4-68.4z M109.1-69.1h-0.2
		H109.1C109-68.9,109.1-68.9,109.1-69.1v0.1h0.1h-0.1C109.2-69.1,109.1-69.1,109.1-69.1z M108.7-68.4
		C108.8-68.4,108.8-68.4,108.7-68.4h0.2H108.7C108.8-68.4,108.8-68.4,108.7-68.4z M108.7-68.4C108.6-68.4,108.6-68.4,108.7-68.4
		C108.6-68.4,108.6-68.4,108.7-68.4C108.7-68.4,108.6-68.4,108.7-68.4h0.3h-0.1C108.8-68.6,108.7-68.6,108.7-68.4
		C108.7-68.6,108.7-68.4,108.7-68.4C108.6-68.4,108.6-68.4,108.7-68.4C108.6-68.4,108.6-68.4,108.7-68.4z M109.4-68.4
		C109.5-68.4,109.4-68.4,109.4-68.4C109.5-68.4,109.5-68.4,109.4-68.4C109.5-68.4,109.5-68.4,109.4-68.4
		C109.5-68.4,109.5-68.4,109.4-68.4C109.5-68.4,109.5-68.4,109.4-68.4C109.5-68.4,109.5-68.4,109.4-68.4
		C109.5-68.4,109.5-68.4,109.4-68.4C109.5-68.4,109.5-68.4,109.4-68.4C109.5-68.4,109.5-68.4,109.4-68.4
		C109.5-68.4,109.5-68.4,109.4-68.4C109.5-68.4,109.5-68.4,109.4-68.4L109.4-68.4L109.4-68.4C109.5-68.4,109.5-68.6,109.4-68.4
		c0-0.1,0-0.1-0.1-0.1h-0.1h0.1C109.3-68.4,109.4-68.4,109.4-68.4h-0.2H109.4C109.4-68.4,109.4-68.4,109.4-68.4z M107.8-69.1
		c-0.2-0.4-0.6-1-0.7-1.4c-0.1-0.1-0.1-0.1-0.2,0.1c-0.4,0.4,0.1,1-0.4,1.1c0.1,0.1,0.1,0.2,0.1,0.2c0.2-0.1,0.3,0,0.3,0.1
		c0.1,0,0.2,0,0.1,0.1l0.2,0.2c0,0.4-1.5,0.3-1.4,0c0-0.1,0.1-0.2,0.1-0.2l-0.1-0.1l0.1-0.1v-0.1h0.3c0-0.1,0.1-0.2,0.2-0.2h-0.1
		c-0.1,0-0.2-0.1-0.3-0.2l-0.1-0.1c-0.2-0.7,0.5-0.9,0.8-1.6c0.1-0.2-0.7-1.1-0.8-1.3c0-0.1-0.3-0.3-0.2-0.5c0.1-0.2,0-0.3,0.1-0.4
		c0.3-0.2,0.6,0,0.7,0.3c0,0.5,0.5,1.1,0.9,1.4c-0.1-0.5-0.3-1.3-0.2-2.2c0-0.1,0.3-1.2,0.3-1.4c0-0.2,0.2-1.7,0.2-1.8
		c0,0,0-0.4-0.1-0.3c-0.3,0-1.8-0.2-1.4-0.7c0.2-0.3,0.5-0.7,0.6-0.8c0.1-0.2-0.6-0.3-0.4-0.4c0.1-0.1,0.5-0.2,0.6-0.3
		s-0.1-0.2,0.1-0.3s1.1-0.1,1.1-0.1s0.3-0.4,0.4-0.5c0.1-0.1,0.5-0.2,0.4-0.7h0.2c0,0-0.1,0.5,0.1,0.6c0.2,0.1,0.2,0.6,0.5,0.6
		c1-0.2,1.1,0.2,1,0.3c0.4,0.1,0.9,0,0.2,0.5c-0.1,0.1,0.9,0.8,0.9,1c0,0.7-1.4,0.8-1.9,0.9c-0.3,3,0.7,3.9,0.1,5.8
		c0-0.1,0.2,0.2,0.3,0c0.6-0.9,2.3-1,2.5-0.4c0,0.2-0.4,0.4-0.6,0.4s-0.5-0.1-0.7-0.1c-0.3,0-0.7,0.3-0.6,0.5c0,0.2,0.3,0.3,0.3,0.5
		c0.1,0,0.4,0.3,0.5,0.6c0.2,0.5,0,0.7-0.3,0.9l0.1,0.1c0.2,0,0.2,0,0.2,0.1c0.1,0,0.2,0,0,0.1l0.2,0.2c0,0.3-1.3,0.2-1.2,0
		c0-0.1,0.1-0.1,0.1-0.2l-0.1-0.1c0,0,0.1,0,0.1-0.1v-0.1h0.2l0.1-0.1c0,0,0-0.1-0.2-0.2c-0.2-0.1-0.1-0.2-0.1-0.4
		c0-0.1,0-0.4-0.3-0.5l-0.1-0.1c-0.1,0,0,0.4-0.2,0.5c-0.2,0.1-0.4,0.6-0.4,0.6l-0.1,0.1c0.2,0.1,0.4,0.3,0.5,0.4
		c0.3,0.3,0.5,0.7,0.5,1.2s-0.2,1-0.6,1.4c-0.4,0.4-0.9,0.6-1.5,0.6s-1.1-0.2-1.5-0.6c-0.4-0.4-0.6-0.8-0.6-1.4
		c0-0.5,0.2-0.9,0.5-1.2C107.5-68.9,107.7-69,107.8-69.1z M110.1-69.1c-0.3,0.4-0.1,0.5-0.2,0.7c0,0.1,0,0.3-0.1,0.4
		c0,0.1,0,0.1-0.1,0.2c-0.2-0.1-0.3-0.1-0.5-0.1c0.2,0,0.3,0.1,0.5,0.1c-0.1-0.1-0.3-0.1-0.4-0.1c0.1,0,0.3,0.1,0.4,0.1
		c-0.1-0.1-0.3-0.1-0.4-0.1c0.1,0,0.3,0.1,0.4,0.1c-0.1-0.1-0.3-0.1-0.4-0.1c0.2,0,0.3,0,0.5,0.1v0.2c0,0.1,0,0.3-0.1,0.4
		c0,0-0.1,0-0.1,0.1c-0.1-0.1-0.3-0.1-0.4-0.1s-0.2,0-0.4,0.1l-0.1-0.1c-0.1-0.1-0.2-0.2-0.1-0.3v-0.3c0.2-0.1,0.3-0.1,0.5-0.1
		c-0.1,0-0.3,0.1-0.5,0.1c0.1-0.1,0.3-0.1,0.4-0.1c-0.1,0-0.3,0.1-0.4,0.1c0.1-0.1,0.3-0.1,0.4-0.1c-0.1,0-0.3,0.1-0.4,0.1v-0.1
		c0.2-0.1,0.3-0.1,0.5-0.1c-0.2,0-0.3,0.1-0.5,0.2c0-0.1-0.1-0.2-0.1-0.3c0-0.1-0.2-0.6-0.2-0.7c0-0.1-0.1-0.2-0.2-0.3
		c-0.2,0.1-0.3,0.2-0.4,0.4c-0.3,0.3-0.4,0.7-0.4,1.1c0,0.5,0.2,0.9,0.6,1.2c0.3,0.3,0.8,0.5,1.4,0.5c0.5,0,1-0.2,1.4-0.5
		s0.6-0.8,0.6-1.2s-0.2-0.8-0.4-1.1C110.5-68.8,110.4-68.9,110.1-69.1L110.1-69.1z M109.2-67.9c0.2,0,0.4,0.1,0.6,0.2
		C109.6-67.9,109.4-67.9,109.2-67.9z M109-67.9c-0.2,0-0.4,0.1-0.6,0.2C108.6-67.9,108.8-67.9,109-67.9z M109.1-68.2
		C109.1-68.2,109.1-68.3,109.1-68.2L109.1-68.2C109.1-68.3,109-68.3,109.1-68.2C109-68.3,109.1-68.2,109.1-68.2z M108.9-68.4h-0.3
		c0,0,0.1,0.1,0.2,0.1C108.8-68.4,108.9-68.4,108.9-68.4C109-68.4,109-68.4,108.9-68.4L108.9-68.4z M109.3-69.3
		c0.1-0.6-0.4-0.7-0.6-0.5c-0.2,0.3,0.1,0.2,0.1,0.5v0.1C108.9-69.3,109-69.4,109.3-69.3z M108.4-78.2c0,0,0,0.1-0.1,0.1
		s0.1,0.1,0.1,0.1l0.1-0.1C108.5-78.1,108.6-78.2,108.4-78.2L108.4-78.2z M110.1-77.7c0.2,0,0.3,0,0.3-0.1h-0.2
		C110.2-77.8,110.2-77.7,110.1-77.7z M109.7-78.3c0,0.1-0.2,0.2-0.2,0.3C109.6-77.9,109.8-78.4,109.7-78.3z M109.7-78.4
		c-0.1-0.1,0.1,0.3,0.2,0.2C110-78.2,109.8-78.3,109.7-78.4z M110.7-78.2h0.3C110.8-78.3,110.7-78.2,110.7-78.2
		C110.6-78.3,110.6-78.2,110.7-78.2z M107.8-77.9c-0.1,0-0.5-0.1-0.4,0C107.5-77.7,107.6-77.8,107.8-77.9
		C107.9-77.7,107.8-77.8,107.8-77.9z M106.7-78.1c0.1,0.2,0.5,0.2,0.6,0.2C107.3-78.1,106.9-77.9,106.7-78.1z M110.6-77.8
		c0.2,0,0.4,0,0.5-0.1c0.1-0.1,0.4-0.1,0.5-0.2h-0.3c-0.1,0-0.3,0-0.3,0.1c-0.1,0,0,0.1-0.1,0.1S110.5-77.8,110.6-77.8z M108.5-79.8
		c0,0.4,0.9,0.4,1,0.1c0.2-0.3-0.2-0.5-0.4-0.7C109-80.5,108.5-80.3,108.5-79.8z M109.6-79.6c0.2-0.1,0.5,0.3,0.9-0.3
		C110.2-79.9,109.8-79.9,109.6-79.6z M111.1-79.6c-0.2,0-0.5-0.3-0.8,0.1C110.5-79.6,110.8-79.3,111.1-79.6z M108.3-79.6
		c-0.2-0.4-0.7-0.3-1-0.2C107.9-79.3,108.1-79.6,108.3-79.6z M111-78.3c-0.1-0.4-0.5-1-0.8-1c0,0.1,0.3,0.6,0.3,0.7
		C110.5-78.4,110.9-78.3,111-78.3z M110.4-78.1c0,0-0.2-1.2-0.8-1.2c0.1,0.3,0.2,0.7,0.2,0.8C110-78.3,110.2-78.2,110.4-78.1z
		 M109.1-77.8c0.2-0.1,0.4-0.3,0.5-0.6c0.1-0.1,0.1-0.4,0-0.5c-0.2-0.5-0.6-0.5-0.9-0.3c-0.3,0.1-0.3,0.5-0.2,0.9
		C108.7-78,109.1-77.8,109.1-77.8z M107.7-78c0,0,0.6-0.1,0.7-0.3c0.1-0.1-0.1-0.6,0.1-0.9C107.9-79.3,107.7-78.1,107.7-78z
		 M107.2-78.1c0.6,0.1,0.6-0.7,0.9-1.1c-0.3-0.2-0.8,0.5-0.8,0.7C107.2-78.2,107.2-78.1,107.2-78.1z M111.7-78.3
		c0-0.1-0.6-0.8-0.9-0.8C110.9-78.9,111-78.2,111.7-78.3z M106.6-78.1c0.6,0.1,0.5-0.6,0.6-0.7C107.1-79,106.5-78.3,106.6-78.1z
		 M111.7-72.1c-0.1,0-0.1,0.1,0,0.2c0,0.2,0.4,0.2,0.6,0.2c0.4,0,0.7-0.1,0.5-0.1h-0.4h0.5c0.1,0,0.1-0.1,0-0.1h-0.5V-72
		c0.3,0,0.7-0.1,0.4-0.1h-0.4c1,0,0.2-0.1,0,0v-0.1l0.2-0.1h-0.4C111.9-72.2,111.8-72.1,111.7-72.1z M106.3-72.4
		c0.1,0.1,0.2,0,0.3,0c0.2-0.1,0.1-0.4,0.1-0.5c0-0.4-0.3-0.6-0.2-0.4l0.1,0.3h-0.1l-0.1-0.4c0-0.1-0.1,0-0.1,0l0.1,0.4
		c0-0.2-0.2-0.6-0.2-0.3l0.1,0.3c-0.2-0.9-0.1-0.1,0,0l-0.1-0.1c-0.1-0.1-0.1,0.2,0.1,0.4C106.2-72.6,106.3-72.5,106.3-72.4z
		 M106.9-72.3c-0.1,0.1-0.4,0.3-0.4,0.2v0.1C106.7-72.1,106.9-72.3,106.9-72.3z M106.8-72.5c-0.1,0.1-0.4,0.2-0.4,0.2v0.1
		C106.6-72.3,106.7-72.4,106.8-72.5z M111.4-71.6c-0.1-0.1-0.2-0.4-0.2-0.4h-0.1C111.1-71.8,111.2-71.7,111.4-71.6z M111.6-71.7
		C111.6-71.7,111.6-71.8,111.6-71.7c-0.1-0.1-0.2-0.4-0.1-0.4h-0.1C111.4-72,111.5-71.8,111.6-71.7z M110.6-70.8
		c0.1-0.3,0.6-0.7,0.6-0.8c0-0.1-0.1-0.2-0.2-0.3c-0.1,0-0.5,0.4-0.6,0.5C110.4-71.3,110.5-71,110.6-70.8z M109-74.6
		c-0.1-1.1,0.3-1.7,0.5-2.6C108.9-76.2,108.8-75.4,109-74.6z M108.7-75.2c-0.1-0.9,0.3-1.3,0.5-2C108.6-76.4,108.4-75.8,108.7-75.2z
		 M108.3-75.5c-0.1-0.8,0.3-1.2,0.5-1.7C108.2-76.6,108.1-76,108.3-75.5z M107.2-70.7c0,0,0.2-0.2,0.5-0.1v-0.1
		C107.5-71,107.3-70.9,107.2-70.7z M107.3-71.1c0.6-0.1-0.2-0.8-0.3-0.9c-0.2-0.1-0.4,0.1-0.2,0.2c0.1,0.1,0.2,0.4,0.2,0.4
		C107.1-71.3,107.2-71.1,107.3-71.1z M110-69.6c0.2,0.1,0.4-0.3,0.5-0.4C110.3-69.9,110.3-69.6,110-69.6z M109.7-69.3
		c0.2,0,0.2-0.1,0.2-0.1s-0.2-0.1-0.1-0.2c0-0.2,0-0.1-0.1-0.1c0,0-0.1,0.3-0.2,0.1c-0.1,0.1,0,0.2,0,0.3
		C109.6-69.4,109.6-69.3,109.7-69.3z M106.4-70.5C106.4-70.5,106.3-70.5,106.4-70.5s0.5,0.1,0.4,0.2v-0.1
		C106.7-70.5,106.5-70.6,106.4-70.5z M111.2-70.1C111.3-70.1,111.3-70.1,111.2-70.1c0.1-0.1,0.4-0.3,0.4-0.2v-0.1
		C111.4-70.4,111.3-70.3,111.2-70.1z M111.1-70.3c0.1-0.1,0.4-0.3,0.4-0.2v-0.1C111.3-70.5,111.2-70.4,111.1-70.3z M110.9-70.6
		c0.1,0.1,0.4,0.3,0.4,0c0-0.1,0-0.2-0.1-0.3S111-71,111-71S110.7-70.8,110.9-70.6z M106.6-70.7c0,0,0.2,0.2,0.3,0.1
		c0-0.1,0.2-0.2,0.3-0.4c0-0.1,0-0.2-0.1-0.3H107C106.8-71,106.7-70.7,106.6-70.7z M107.3-70.5c0,0,0.2-0.2,0.5-0.1v-0.1
		C107.6-70.7,107.3-70.6,107.3-70.5z M108.1-69.5c0.3,0.1,0.1-0.3,0.2-0.5c0,0-0.6-0.2-0.5-0.5c0-0.1-0.6-0.1-0.4,0.2
		C107.5-70,107.7-69.6,108.1-69.5z M108-71.6c-0.1,0,0,0.9,0,0.9c-0.1,0.4,0.6,0.7,1.2,1c0.1-0.3-0.8-0.5-1.1-1c0,0-0.1-0.4,0-0.6
		c0-0.1,0.3,0.1,0.3,0C108.4-71.4,108-71.6,108-71.6z M110.5-70.2c0.1,0.2,0.3,0,0.1-0.2c-0.2-0.2-1-2.1-1.3-3
		c-0.3-0.8-1.2-1.6-1.3-1.7c-0.1,0-0.1,0.1,0.1,0.3c0.1,0.1,0.6,0.4,0.8,1.1C109.4-72,110.4-70.4,110.5-70.2z M109.5-67.5
		c0,0-0.1,0.2,0,0.4V-67.5z M108.6-67.5c0,0-0.1,0.2,0,0.4C108.7-67.3,108.7-67.4,108.6-67.5z M111.8-69.4c0,0-0.1-0.2-0.2-0.2
		C111.7-69.5,111.8-69.5,111.8-69.4z M111.9-69.5c0,0-0.1-0.2-0.2-0.2L111.9-69.5z M111.9-69.6c0,0-0.1-0.2-0.2-0.2L111.9-69.6z
		 M112-69.7c0,0-0.1-0.2-0.2-0.2C111.9-69.8,111.9-69.7,112-69.7z M111.5-69.3c0,0,0.3,0.1,0.3,0H111.5L111.5-69.3z M111.4-69.4h0.2
		C111.7-69.5,111.6-69.5,111.4-69.4l0.1-0.4c0-0.1,0.1,0,0.1-0.1c0.2-0.3-0.3-0.3-0.3-0.2C111.4-70,111.4-69.4,111.4-69.4z
		 M111.1-68.6C111.2-68.6,111.2-68.7,111.1-68.6C111.2-68.8,111.1-68.6,111.1-68.6z M112.2-68.6c0,0-0.1-0.2-0.2-0.2
		C112-68.8,112.1-68.6,112.2-68.6z M111.2-68.6c0.1,0,0.1-0.2,0.2-0.2C111.4-68.9,111.3-68.7,111.2-68.6z M111.4-68.6
		C111.4-68.6,111.5-68.6,111.4-68.6l0.1-0.3C111.4-68.8,111.4-68.6,111.4-68.6z M111.6-68.5l0.1-0.1v-0.1c0-0.1-0.1-0.1-0.2-0.1
		s-0.1,0.1,0,0.2C111.6-68.6,111.7-68.5,111.6-68.5z M111.9-68.6c0,0-0.1-0.3-0.2-0.3v0.2C111.8-68.6,111.9-68.6,111.9-68.6z
		 M112-68.6c0-0.1-0.1-0.2-0.2-0.2C111.8-68.8,111.9-68.7,112-68.6C111.9-68.7,112-68.6,112-68.6z M111.5-68.9c0-0.1-0.1-0.1-0.2,0
		C111.4-68.8,111.4-68.9,111.5-68.9z M112.1-68.9c0,0-0.1-0.1-0.2,0C111.9-68.9,112-68.8,112.1-68.9z M111.8-68.9
		c0,0,0.1,0.1,0.2-0.1C111.9-69,111.8-69,111.8-68.9z M111.5-69c0,0.1,0.2,0.1,0.2,0c0-0.1,0-0.1-0.1-0.1L111.5-69z M112-68.5
		L112-68.5c0.1,0,0.2,0,0.2-0.1h-0.1L112-68.5C112-68.6,112.1-68.6,112-68.5z M111.1-68.6C111.1-68.6,111.2-68.5,111.1-68.6
		C111.3-68.6,111.2-68.5,111.1-68.6z M111.4-68.5C111.3-68.5,111.3-68.5,111.4-68.5C111.3-68.5,111.3-68.5,111.4-68.5z M112-68.6
		C112-68.6,112.1-68.6,112-68.6z M111.8-68.6C111.8-68.6,111.7-68.6,111.8-68.6z M111.4-68.5c0,0,0.2,0.1,0.2,0H111.4z M111.9-68.5
		h-0.2C111.7-68.4,111.9-68.5,111.9-68.5z M106.3-69.9c0,0.1-0.1,0.2-0.2,0.2C106.2-69.8,106.2-69.9,106.3-69.9z M106.4-69.8
		l-0.2,0.2C106.3-69.6,106.3-69.8,106.4-69.8z M106.4-69.7l-0.2,0.2C106.3-69.5,106.4-69.7,106.4-69.7z M106.5-69.7l-0.2,0.2
		C106.4-69.5,106.5-69.6,106.5-69.7z M106.3-70.4c0.2,0,0.3,0,0.5,0.1v0.1C106.7-70.2,106.4-70.4,106.3-70.4z M105.9-68.7
		c0.2,0,0.1-0.1,0.2-0.2C106-68.9,105.9-68.7,105.9-68.7z M107.1-68.7c0,0-0.1-0.2-0.2-0.2C106.9-68.9,107-68.7,107.1-68.7z
		 M106-68.7c0.2,0,0.1-0.2,0.2-0.3C106.1-69,106-68.8,106-68.7z M106.1-68.6c0,0,0.1,0,0.2-0.1v-0.2
		C106.2-68.9,106.1-68.6,106.1-68.6z M106.5-68.6c0.1,0,0.1-0.1,0.1-0.1v-0.1c0-0.1-0.1-0.1-0.2-0.1s-0.1,0.1,0,0.2
		C106.4-68.6,106.5-68.6,106.5-68.6z M106.8-68.6c0,0-0.1-0.3-0.2-0.3v0.2C106.7-68.7,106.8-68.7,106.8-68.6z M107-68.7
		c0-0.1-0.1-0.3-0.2-0.2C106.8-68.9,106.9-68.8,107-68.7L107-68.7z M106.3-69c-0.1-0.1-0.2-0.1-0.2,0C106.2-68.9,106.2-69,106.3-69z
		 M107-69c0,0-0.1-0.1-0.2,0C106.8-69,106.9-68.9,107-69z M106.6-69c0,0,0.1,0.1,0.2-0.1C106.8-69.1,106.7-69.1,106.6-69z
		 M106.3-69.1c0,0.1,0.2,0.1,0.2,0c0-0.1-0.1-0.1-0.1-0.2C106.5-69.2,106.3-69.2,106.3-69.1z M106.9-68.6L106.9-68.6
		c0.1,0,0.2,0,0.2-0.1h-0.2C106.9-68.6,107-68.6,106.9-68.6C106.9-68.6,106.8-68.6,106.9-68.6z M105.9-68.6c0,0,0.1,0.1,0.2,0.1
		C106-68.6,105.9-68.6,105.9-68.6z M106.2-68.6C106.1-68.6,106-68.6,106.2-68.6C106.1-68.5,106.1-68.6,106.2-68.6
		C106.2-68.5,106.2-68.6,106.2-68.6z M106.9-68.6C106.9-68.6,107-68.6,106.9-68.6C106.9-68.7,106.9-68.7,106.9-68.6
		C106.9-68.7,106.9-68.7,106.9-68.6z M106.6-68.7C106.6-68.7,106.7-68.6,106.6-68.7C106.7-68.7,106.7-68.7,106.6-68.7z M106.6-68.7
		C106.6-68.6,106.6-68.6,106.6-68.7C106.6-68.6,106.7-68.7,106.6-68.7z M106.3-68.7C106.3-68.7,106.3-68.6,106.3-68.7
		C106.3-68.6,106.3-68.6,106.3-68.7C106.3-68.6,106.4-68.6,106.3-68.7z M106.2-68.5c0,0,0.3,0.1,0.3,0
		C106.4-68.5,106.3-68.6,106.2-68.5z M106.8-68.5h-0.3H106.8z M109.4-66.8c-0.1-0.1-0.2-0.1-0.3-0.1c-0.1,0-0.2,0-0.3,0.1
		c0.2,0.2,0.3,0.5,0.3,0.5C109.1-66.4,109.2-66.6,109.4-66.8z M109.3-67.5c0,0-0.1,0.2,0,0.4V-67.5z M109.1-67.5c0,0-0.1,0.2,0,0.4
		V-67.5z M108.8-67.5c0,0-0.1,0.2,0,0.4C108.9-67.3,108.9-67.4,108.8-67.5z M109.2-68.3h0.3c0,0-0.1,0.1-0.2,0.1
		C109.3-68.3,109.2-68.3,109.2-68.3L109.2-68.3z M109.4-68c0.1,0.1,0.2-0.1,0.2-0.3c0-0.1-0.1-0.2,0-0.3l0.1,0.1h0.1v-0.2
		c0-0.1,0-0.2-0.1-0.2c0,0-0.1,0.1-0.1,0c0-0.3-0.2-0.4-0.4-0.4c-0.3-0.1-0.5,0.1-0.5,0.1c-0.1,0-0.2,0.2-0.2,0.3
		c0,0.1,0,0.2-0.1,0.1c-0.1-0.1-0.1,0.2-0.1,0.2h0.1v-0.1c0.1-0.1,0.1,0.1,0.1,0.3c0,0.1,0.2,0.4,0.2,0.3
		C108.9-68.1,109.3-68.1,109.4-68z M109.1-68.8C109.1-68.8,109-68.8,109.1-68.8c-0.1,0-0.1,0.1-0.1,0.1S109-68.8,109.1-68.8z
		 M109.1-68.8c0.1,0,0.1,0.1,0.1,0.1C109.2-68.8,109.2-68.8,109.1-68.8z"/>
	<pattern  id="SVGID_24_" xlink:href="#SVGID_10_" patternTransform="matrix(0.8899 0 0 0.8899 -1537.7319 -1752.2296)">
	</pattern>
	<path class="st12" d="M-3.9-76.6v-0.2c-0.2,0-0.4-0.2-0.6-0.4l-0.6-1.2l-2.2-5.2h-0.2l-2.2,5.4c-0.3,0.6-0.4,1-0.5,1.1
		c-0.1,0.1-0.3,0.2-0.5,0.2v0.2h3v-0.2h-0.1c-0.3,0-0.5,0-0.6-0.1c-0.1,0-0.1-0.1-0.1-0.2v-0.2c0-0.1,0.1-0.3,0.3-0.7l1.3-3.4l1.2,3
		c0.1,0.4,0.2,0.6,0.3,0.7c0,0.1,0.1,0.2,0.1,0.3c0,0.1,0,0.2-0.1,0.3c0,0.1-0.1,0.1-0.2,0.2c-0.1,0.1-0.3,0.1-0.5,0.1v0.2
		L-3.9-76.6C-3.9-76.6-3.9-76.5-3.9-76.6z M0-83.1v-0.2h-3.3v0.2h0.2c0.2,0,0.3,0,0.4,0.1c0.1,0,0.1,0.1,0.2,0.2
		c0,0.1,0.1,0.3,0.1,0.6v4.4c0,0.3,0,0.6-0.1,0.6c0,0.1-0.1,0.2-0.2,0.2C-2.8-77-2.9-77-3.1-77h-0.2v0.2H0V-77h-0.2
		c-0.2,0-0.3,0-0.4-0.1c-0.1,0-0.1-0.1-0.2-0.2c0-0.1-0.1-0.3-0.1-0.6v-4.4c0-0.3,0-0.6,0.1-0.6c0-0.1,0.1-0.2,0.2-0.2
		c0.1-0.1,0.2-0.1,0.4-0.1H0z M1.9-76.8v0.2h3.4v-0.2H5c-0.2,0-0.3,0-0.4-0.1c-0.1,0-0.1-0.1-0.2-0.2c0-0.1-0.1-0.3-0.1-0.6v-3.3
		c0-0.6-0.1-1.1-0.2-1.4c-0.1-0.4-0.3-0.6-0.6-0.8c-0.3-0.2-0.7-0.3-1.1-0.3c-0.5,0-1,0.1-1.3,0.4s-0.5,0.6-0.5,1
		c0,0.2,0.1,0.4,0.2,0.6c0.1,0.1,0.3,0.2,0.5,0.2s0.3-0.1,0.5-0.2C1.9-81.6,2-81.8,2-82v-0.2c0,0-0.1-0.1-0.1-0.3
		c-0.1-0.1-0.1-0.2-0.1-0.3c0-0.1,0-0.2,0.1-0.2c0.1-0.1,0.3-0.1,0.5-0.1c0.1,0,0.2,0,0.3,0.1c0.1,0.1,0.1,0.2,0.2,0.3
		c0,0.2,0.1,0.6,0.1,1.3v3.6c0,0.3,0,0.6-0.1,0.6c0,0.1-0.1,0.2-0.2,0.2c-0.1,0.1-0.2,0.1-0.4,0.1H1.9L1.9-76.8L1.9-76.8z M9.5-81.3
		H7.3L7-82c-0.1-0.2-0.1-0.4-0.1-0.5c0-0.2,0.1-0.3,0.2-0.4C7.2-83,7.4-83,7.7-83v-0.2H5.6v0.2c0.2,0,0.4,0.1,0.6,0.3
		c0.1,0.2,0.3,0.5,0.5,1L9-76.4h0.1l2.3-5.5c0.2-0.5,0.4-0.9,0.5-1c0.1-0.1,0.3-0.2,0.4-0.2v-0.2h-3v0.2h0.1c0.2,0,0.4,0,0.5,0.1
		c0.1,0.1,0.1,0.2,0.1,0.3v0.2c0,0-0.1,0.2-0.1,0.4C9.9-82.1,9.5-81.3,9.5-81.3z M9.4-81l-0.9,2.3l-1-2.3H9.4z M18.6-76.5h-1.9v-0.2
		c0.3,0,0.5-0.1,0.6-0.1c0.1-0.1,0.1-0.1,0.1-0.2c0-0.2-0.1-0.5-0.4-1l-1.1-2l-1.2,2.1c-0.2,0.5-0.4,0.8-0.4,0.9
		c0,0.1,0,0.1,0.1,0.2c0.1,0.1,0.2,0.1,0.4,0.1H15v0.2h-3v-0.2c0.2,0,0.4-0.1,0.5-0.2c0.1-0.1,0.3-0.4,0.6-1l1.5-2.9v-1.4
		c0-0.3,0-0.5-0.1-0.6c0-0.1-0.1-0.2-0.2-0.2c-0.1-0.1-0.3-0.1-0.4-0.1h-0.3v-0.2h3.5v0.2h-0.4c-0.2,0-0.3,0-0.4,0.1
		c-0.1,0.1-0.2,0.1-0.2,0.2c0,0.1-0.1,0.3-0.1,0.6v1.6l1.4,2.4c0.3,0.6,0.6,1,0.7,1.1c0.1,0.1,0.3,0.2,0.5,0.2
		C18.6-76.9,18.6-76.5,18.6-76.5z M22.1-81.3h-2.2L19.6-82c-0.1-0.2-0.1-0.4-0.1-0.5c0-0.2,0.1-0.3,0.2-0.4C19.8-83,20-83,20.3-83
		v-0.2h-2.1v0.2c0.2,0,0.4,0.1,0.6,0.3c0.1,0.2,0.3,0.5,0.5,1l2.3,5.4h0.1l2.3-5.5c0.2-0.5,0.4-0.9,0.5-1c0.1-0.1,0.3-0.2,0.4-0.2
		v-0.2h-3.1v0.2H22c0.2,0,0.4,0,0.5,0.1c0.1,0.1,0.1,0.1,0.1,0.2v0.2c0,0-0.1,0.2-0.1,0.4C22.5-82.1,22.1-81.3,22.1-81.3z M21.9-81
		L21-78.7L20-81H21.9z"/>
	<pattern  id="SVGID_25_" xlink:href="#SVGID_11_" patternTransform="matrix(0.8899 0 0 0.8899 -1537.7319 -1752.2296)">
	</pattern>
	<path class="st13" d="M-8.8-70.4v5h7.5v-1.2c-0.6,0.5-1.5,0.7-2.4,0.7c-1.6,0-2.9-0.5-2.9-1.2c0-0.8,1.8-2.1,2.9-2.1
		c0.8,0,1.6,0.1,2.4,0.4v-0.7l1.8-1v5h8.8v-0.9h-5c1.2-0.6,1.9-1.3,2-1.8c0-0.3-0.4-0.5-0.8-0.5c-0.7,0-1.7,0.9-2.6,2.3l-0.6-0.2
		c0.8-1.8,2.3-3.1,3.7-3.1c1,0,1.8,0.5,1.8,1.1c0,0.4-0.4,0.9-1,1.2h2.4v-2.2l1.8-1v5h3c0.3-0.3,0.4-0.5,0.4-0.7
		c0-0.5-0.7-0.9-1.6-1c0.3-1.2,1.6-2.1,3.1-2.1c0.8,0,1.6,0.2,2.4,0.5v-0.7l1.8-1v5H23v-4l1.8-1v5h1.9v1.1H-8.7
		c-0.5,0.3-0.7,0.7-0.7,1c0,0.6,1.1,1,2.5,1c2,0,3.9-0.7,5.2-1.8l0.6,0.2c-1.6,1.4-4,2.3-6.4,2.3c-2,0-3.6-0.8-3.6-1.7
		c0-0.5,0.3-0.9,0.7-1.1h-1.8v-1.1h1.7v-4L-8.8-70.4L-8.8-70.4z M15.4-68.4c-0.6,0-1,0.2-1.2,0.4c1,0.2,1.7,0.8,1.7,1.5
		c0,0.4-0.2,0.8-0.5,1.1h2.9v-1.3C17.7-67.8,16.5-68.4,15.4-68.4z M-4.3-68.3c-0.5,0-1,0.2-1,0.5c0,0.5,0.8,0.9,1.9,0.9
		c0.7,0,1.4-0.1,2.1-0.4C-2.3-67.9-3.4-68.3-4.3-68.3z"/>
	<pattern  id="SVGID_26_" xlink:href="#SVGID_12_" patternTransform="matrix(0.8899 0 0 0.8899 -1634.021 -1659.9265)">
	</pattern>
	<path class="st14" d="M161.6-73.4h50.5v0.9h-50.5V-73.4z"/>
	<pattern  id="SVGID_27_" xlink:href="#SVGID_13_" patternTransform="matrix(0.8899 0 0 0.8899 -1537.733 -1752.2296)">
	</pattern>
	<path class="st15" d="M202.3-63.9L183-64l-4.6,2.8c-0.8,0.4-2.2,0.3-3.4-0.2l1.1-1.8c0.8,0.4,1.8,0.6,2.9,0.3
		c0.8-0.3,1.7-0.7,2.2-1.2h-6.8v-1h6.4v-0.7h-5.5c-2.6,0.1-3.5-3.5-0.2-3.7c1.7-0.2,3.8,0.1,5.7,0.6v-0.8h-1v-0.8h5.1v0.8h-1v2.2
		h-3.1c-0.4-0.5-0.8-0.8-1.4-0.9l-1.7-0.1c-0.7,0.1-1.4,0.4-1.3,1.1c0.1,0.3,0.6,0.5,1.2,0.5h6.2v1.7h8.1v-1h-5.6
		c-1.2-0.4-2.1-1.3-0.4-2.3c1.2-0.8,2.8-1,2.9-0.3c0.2,0.4,0.2,1,0.1,1.3h2.9v-2.2h-1.3v-0.7h5.4v0.8h-1.1v4.6h2.8v-4.6h-1.1v-0.8
		h5.3v0.8h-1.2v4.6h1.7L202.3-63.9L202.3-63.9z"/>
	<pattern  id="SVGID_28_" xlink:href="#SVGID_14_" patternTransform="matrix(0.8899 0 0 0.8899 -1537.733 -1752.2296)">
	</pattern>
	<path class="st16" d="M171.9-83.4v1.5h0.8v4.4h-0.8v1.5h3.6c0.5,0,1,0,1.4-0.1c0.4-0.1,0.7-0.1,0.9-0.3c0.7-0.3,1.2-0.8,1.5-1.3
		s0.5-1.2,0.5-2s-0.2-1.4-0.5-2c-0.3-0.5-0.8-1-1.5-1.3c-0.2-0.1-0.5-0.2-0.9-0.3s-0.8-0.1-1.4-0.1
		C175.5-83.5,171.9-83.5,171.9-83.4z M174.7-77.6v-4.4h0.6c0.8,0,1.4,0.2,1.8,0.6c0.4,0.4,0.6,0.9,0.6,1.6s-0.2,1.3-0.6,1.6
		c-0.4,0.4-1,0.6-1.8,0.6C175.3-77.6,174.7-77.6,174.7-77.6z M180.2-83.4v1.5h0.8v4.4h-0.8v1.5h6.8v-2.6h-1.3l-0.5,1.2h-2.3v-1.2
		h1.5v-1.6h-1.5v-1.6h2.3l0.5,1.4h1.3v-2.9h-6.8C180.2-83.3,180.2-83.4,180.2-83.4z M187.4-83.4v1.5h0.8v4.4h-0.8v1.5h2.7l2.5-4
		l-0.1,2.6h-0.8v1.5h3.5v-1.5h-0.8v-5.9h-1.6l-2.8,4.4v-3h0.8v-1.5H187.4L187.4-83.4z M195.3-83.4v1.5h0.6l1.4,4.4h-0.7v1.5h5.3
		v-1.5h-0.7l1.4-4.4h0.7v-1.5H200v1.5h0.7l-0.3,1h-2.1l-0.3-1h0.7v-1.5H195.3z M198.5-79.8h1.5l-0.7,2.3L198.5-79.8z"/>
</symbol>
<pattern  y="639" width="279.3" height="241.4" patternUnits="userSpaceOnUse" id="SVGID_1_" viewBox="0 -241.4 279.3 241.4" style="overflow:visible;">
	<g>
		<rect y="-241.4" class="st17" width="279.3" height="241.4"/>
		<path class="st17" d="M0,0h279.3v-241.4H0V0z"/>
		<path class="st18" d="M0,0h279.3v-241.4H0V0z"/>
	</g>
</pattern>
<pattern  y="639" width="279.3" height="241.4" patternUnits="userSpaceOnUse" id="SVGID_10_" viewBox="0 -241.4 279.3 241.4" style="overflow:visible;">
	<g>
		<rect y="-241.4" class="st17" width="279.3" height="241.4"/>
		<path class="st17" d="M0,0h279.3v-241.4H0V0z"/>
		<path class="st19" d="M0,0h279.3v-241.4H0V0z"/>
	</g>
</pattern>
<pattern  y="639" width="279.3" height="241.4" patternUnits="userSpaceOnUse" id="SVGID_11_" viewBox="0 -241.4 279.3 241.4" style="overflow:visible;">
	<g>
		<rect y="-241.4" class="st17" width="279.3" height="241.4"/>
		<path class="st17" d="M0,0h279.3v-241.4H0V0z"/>
		<path class="st19" d="M0,0h279.3v-241.4H0V0z"/>
	</g>
</pattern>
<pattern  y="639" width="279.3" height="241.4" patternUnits="userSpaceOnUse" id="SVGID_12_" viewBox="0 -241.4 279.3 241.4" style="overflow:visible;">
	<g>
		<rect y="-241.4" class="st17" width="279.3" height="241.4"/>
		<path class="st17" d="M0,0h279.3v-241.4H0V0z"/>
		<path class="st3" d="M0,0h279.3v-241.4H0V0z"/>
	</g>
</pattern>
<pattern  y="639" width="279.3" height="241.4" patternUnits="userSpaceOnUse" id="SVGID_13_" viewBox="0 -241.4 279.3 241.4" style="overflow:visible;">
	<g>
		<rect y="-241.4" class="st17" width="279.3" height="241.4"/>
		<path class="st17" d="M0,0h279.3v-241.4H0V0z"/>
		<path class="st3" d="M0,0h279.3v-241.4H0V0z"/>
	</g>
</pattern>
<pattern  y="639" width="279.3" height="241.4" patternUnits="userSpaceOnUse" id="SVGID_14_" viewBox="0 -241.4 279.3 241.4" style="overflow:visible;">
	<g>
		<rect y="-241.4" class="st17" width="279.3" height="241.4"/>
		<path class="st17" d="M0,0h279.3v-241.4H0V0z"/>
		<path class="st3" d="M0,0h279.3v-241.4H0V0z"/>
	</g>
</pattern>
<pattern  y="639" width="279.3" height="241.4" patternUnits="userSpaceOnUse" id="SVGID_2_" viewBox="0 -241.4 279.3 241.4" style="overflow:visible;">
	<g>
		<rect y="-241.4" class="st17" width="279.3" height="241.4"/>
		<path class="st17" d="M0,0h279.3v-241.4H0V0z"/>
		<path class="st20" d="M0,0h279.3v-241.4H0V0z"/>
	</g>
</pattern>
<pattern  y="639" width="279.3" height="241.4" patternUnits="userSpaceOnUse" id="SVGID_3_" viewBox="0 -241.4 279.3 241.4" style="overflow:visible;">
	<g>
		<rect y="-241.4" class="st17" width="279.3" height="241.4"/>
		<path class="st17" d="M0,0h279.3v-241.4H0V0z"/>
		<path class="st19" d="M0,0h279.3v-241.4H0V0z"/>
	</g>
</pattern>
<pattern  y="639" width="279.3" height="241.4" patternUnits="userSpaceOnUse" id="SVGID_4_" viewBox="0 -241.4 279.3 241.4" style="overflow:visible;">
	<g>
		<rect y="-241.4" class="st17" width="279.3" height="241.4"/>
		<path class="st17" d="M0,0h279.3v-241.4H0V0z"/>
		<path class="st3" d="M0,0h279.3v-241.4H0V0z"/>
	</g>
</pattern>
<pattern  y="639" width="279.3" height="241.4" patternUnits="userSpaceOnUse" id="SVGID_5_" viewBox="0 -241.4 279.3 241.4" style="overflow:visible;">
	<g>
		<rect y="-241.4" class="st17" width="279.3" height="241.4"/>
		<path class="st17" d="M0,0h279.3v-241.4H0V0z"/>
		<path class="st19" d="M0,0h279.3v-241.4H0V0z"/>
	</g>
</pattern>
<pattern  y="639" width="279.3" height="241.4" patternUnits="userSpaceOnUse" id="SVGID_6_" viewBox="0 -241.4 279.3 241.4" style="overflow:visible;">
	<g>
		<rect y="-241.4" class="st17" width="279.3" height="241.4"/>
		<path class="st17" d="M0,0h279.3v-241.4H0V0z"/>
		<path class="st3" d="M0,0h279.3v-241.4H0V0z"/>
	</g>
</pattern>
<pattern  y="639" width="279.3" height="241.4" patternUnits="userSpaceOnUse" id="SVGID_7_" viewBox="0 -241.4 279.3 241.4" style="overflow:visible;">
	<g>
		<rect y="-241.4" class="st17" width="279.3" height="241.4"/>
		<path class="st17" d="M0,0h279.3v-241.4H0V0z"/>
		<path class="st3" d="M0,0h279.3v-241.4H0V0z"/>
	</g>
</pattern>
<pattern  y="639" width="279.3" height="241.4" patternUnits="userSpaceOnUse" id="SVGID_8_" viewBox="0 -241.4 279.3 241.4" style="overflow:visible;">
	<g>
		<rect y="-241.4" class="st17" width="279.3" height="241.4"/>
		<path class="st17" d="M0,0h279.3v-241.4H0V0z"/>
		<path class="st3" d="M0,0h279.3v-241.4H0V0z"/>
	</g>
</pattern>
<pattern  y="639" width="279.3" height="241.4" patternUnits="userSpaceOnUse" id="SVGID_9_" viewBox="0 -241.4 279.3 241.4" style="overflow:visible;">
	<g>
		<rect y="-241.4" class="st17" width="279.3" height="241.4"/>
		<path class="st17" d="M0,0h279.3v-241.4H0V0z"/>
		<path class="st20" d="M0,0h279.3v-241.4H0V0z"/>
	</g>
</pattern>
<g>
	<defs>
		<rect id="SVGID_29_" x="-0.4" y="947.9" width="1920.2" height="638.4"/>
	</defs>
	<clipPath id="SVGID_30_">
		<use xlink:href="#SVGID_29_"  style="overflow:visible;"/>
	</clipPath>
	<g transform="matrix(1 0 0 1 0 0)" style="clip-path:url(#SVGID_30_);">
		
			<use xlink:href="#Bank_of_Baroda_-_composite_logo__x28_reverse_x29_"  width="532.1" height="176.9" x="-266" y="-88.4" transform="matrix(3.6088 0 0 -3.6088 959.6766 1267.0756)" style="overflow:visible;"/>
	</g>
</g>
<g>
	<path class="st0" d="M500.7,391.8c-3.1-6.8-6.7-15.7-10.7-26.7c-4-11-8.2-25.2-12.6-42.7c1.6-1.8,3.9-3.3,6.9-4.6
		c2.9-1.3,6.1-1.9,9.5-1.9c4.4,0,7.9,0.9,10.6,2.8c2.7,1.8,4.8,5.2,6.3,10.1c3,10,6,19.8,9.1,29.5c3.1,9.7,6.2,19.5,9.3,29.3h0.8
		c1.6-4.6,3.3-9.7,5.1-15.3c1.8-5.5,3.5-11.3,5.1-17.2c1.6-5.9,3.2-11.9,4.6-18c1.4-6.1,2.7-12,3.8-17.7c4.2-2.3,8.7-3.5,13.3-3.5
		c4.4,0,8.1,1,11.3,2.9c3.1,1.9,4.7,5.1,4.7,9.4c0,4.9-0.9,11.2-2.6,18.7c-1.7,7.6-4,15.5-6.8,23.8c-2.8,8.3-5.9,16.4-9.4,24.6
		c-3.5,8.1-7.1,15.3-10.7,21.4c-7.6,13-14.5,22.6-20.7,29c-6.1,6.3-12.4,9.5-18.6,9.5c-5.1,0-9.2-1.5-12.5-4.6
		c-3.3-3.1-5.3-7-5.9-11.8c4.4-3.8,8.9-8.3,13.6-13.4c4.7-5.1,8.7-10.3,12-15.5c-2.3-0.7-4.7-2.2-7.3-4.6
		C506.4,402.8,503.7,398.4,500.7,391.8z"/>
	<path class="st0" d="M633.6,396.5c3,0,6-0.3,8.9-0.9c2.9-0.6,5.2-1.4,6.7-2.4v-18.8l-16.8,1.4c-4.4,0.4-7.9,1.4-10.5,3
		c-2.7,1.6-4,3.9-4,7.1c0,3.3,1.2,5.9,3.7,7.8C623.9,395.6,628,396.5,633.6,396.5L633.6,396.5z M632.3,314.8
		c7.1,0,13.5,0.7,19.3,2.2c5.8,1.4,10.7,3.7,14.8,6.7c4.1,3,7.3,6.8,9.5,11.5c2.3,4.6,3.4,10.1,3.4,16.4v46.3c0,3.5-0.9,6.4-2.8,8.5
		c-1.8,2.1-4.1,3.9-6.7,5.4c-4.2,2.6-9.4,4.6-15.6,5.9c-6.1,1.4-13.1,2-20.9,2c-14.1,0-25.3-2.7-33.6-8.1
		c-8.3-5.4-12.5-13.6-12.5-24.7c0-9.4,2.8-16.6,8.4-21.5c5.6-4.9,14.2-8,25.8-9.2l27.2-2.9v-2.3c0-4.4-1.8-7.6-5.3-9.6
		c-3.5-2-8.7-3.1-15.4-3.1c-5.2,0-10.3,0.6-15.3,1.8c-5,1.2-9.5,2.7-13.4,4.3c-1.6-1.1-3-2.8-4.2-5c-1.2-2.3-1.7-4.7-1.7-7.3
		c0-6,3.1-10.3,9.4-12.9c4-1.5,8.6-2.6,13.8-3.4C622.1,315.2,627.3,314.8,632.3,314.8z"/>
	<path class="st0" d="M751.5,419.5c-3.5,0-6.8-0.3-9.8-0.9c-3-0.6-5.7-1.4-8.2-2.4v36.6c-1.4,0.4-3.3,0.8-5.7,1.2
		c-2.5,0.4-5.2,0.6-8.2,0.6c-6.1,0-10.6-1-13.3-3.1c-2.7-2-4.1-5.9-4.1-11.7V338.6c0-3.5,0.8-6.5,2.3-8.7c1.5-2.3,3.6-4.3,6.3-6
		c4.1-2.6,9.3-4.7,15.8-6.4c6.4-1.7,13.5-2.6,21.3-2.6c7.9,0,15.2,1,21.8,3c6.6,2,12.3,5.1,17.1,9.3c4.8,4.2,8.5,9.6,11.2,16.2
		c2.7,6.6,4,14.3,4,23.3c0,8.6-1.3,16.2-3.8,22.8c-2.5,6.6-6,12.1-10.5,16.6c-4.5,4.4-9.8,7.8-16,10
		C765.4,418.3,758.7,419.5,751.5,419.5L751.5,419.5z M746.8,394.7c7.4,0,13.1-2.3,17.1-7c4-4.6,6-11.7,6-21.1
		c0-9.7-1.9-16.7-5.8-20.9c-3.9-4.2-9.3-6.3-16.3-6.3c-3.1,0-5.9,0.4-8.2,1.1s-4.4,1.6-6.3,2.6v48.1c1.9,1.1,4,1.9,6.1,2.6
		C741.6,394.4,744,394.7,746.8,394.7z"/>
	<path class="st0" d="M861.8,396.5c3,0,6-0.3,8.9-0.9c2.9-0.6,5.2-1.4,6.7-2.4v-18.8l-16.8,1.4c-4.4,0.4-7.9,1.4-10.5,3
		c-2.7,1.6-4,3.9-4,7.1c0,3.3,1.2,5.9,3.7,7.8C852.2,395.6,856.2,396.5,861.8,396.5L861.8,396.5z M860.6,314.8
		c7.1,0,13.5,0.7,19.3,2.2c5.8,1.4,10.7,3.7,14.8,6.7c4.1,3,7.3,6.8,9.5,11.5c2.3,4.6,3.4,10.1,3.4,16.4v46.3c0,3.5-0.9,6.4-2.8,8.5
		c-1.8,2.1-4.1,3.9-6.7,5.4c-4.2,2.6-9.4,4.6-15.6,5.9c-6.1,1.4-13.1,2-20.9,2c-14.1,0-25.3-2.7-33.6-8.1
		c-8.3-5.4-12.5-13.6-12.5-24.7c0-9.4,2.8-16.6,8.4-21.5c5.6-4.9,14.2-8,25.8-9.2l27.2-2.9v-2.3c0-4.4-1.8-7.6-5.3-9.6
		c-3.5-2-8.7-3.1-15.4-3.1c-5.2,0-10.3,0.6-15.3,1.8c-5,1.2-9.5,2.7-13.4,4.3c-1.6-1.1-3-2.8-4.2-5c-1.2-2.3-1.7-4.7-1.7-7.3
		c0-6,3.1-10.3,9.4-12.9c4-1.5,8.6-2.6,13.8-3.4C850.4,315.2,855.6,314.8,860.6,314.8z"/>
	<path class="st0" d="M961.8,416.2c-1.4,0.4-3.3,0.8-5.7,1.1c-2.5,0.3-5.2,0.5-8.2,0.5c-6.1,0-10.6-1-13.3-3
		c-2.7-2-4.1-5.8-4.1-11.6v-62.4c0-3.8,1-7.1,2.9-9.8c1.9-2.7,4.6-5.1,8-7.2c4.5-2.7,9.9-4.9,16.3-6.4c6.3-1.6,13-2.4,20-2.4
		c14.2,0,21.3,4.8,21.3,14.3c0,2.3-0.3,4.4-1,6.3c-0.7,1.9-1.4,3.5-2.3,4.9c-3.1-0.7-7-1-11.5-1c-4,0-7.9,0.5-11.9,1.4
		c-4,1-7.4,2.3-10.4,3.9V416.2z"/>
	<path class="st0" d="M1357.6,399.4c3,0,6-0.3,8.9-0.9c2.9-0.6,5.2-1.4,6.7-2.4v-18.8l-16.8,1.4c-4.4,0.4-7.9,1.4-10.5,3
		c-2.7,1.6-4,3.9-4,7.1c0,3.3,1.2,5.9,3.7,7.8C1348,398.4,1352,399.4,1357.6,399.4L1357.6,399.4z M1356.4,317.7
		c7.1,0,13.5,0.7,19.3,2.2c5.8,1.4,10.7,3.7,14.8,6.7c4.1,3,7.3,6.8,9.5,11.5c2.3,4.6,3.4,10.1,3.4,16.4v46.3c0,3.5-0.9,6.4-2.8,8.5
		c-1.8,2.1-4.1,3.9-6.7,5.4c-4.2,2.6-9.4,4.6-15.6,5.9c-6.1,1.4-13.1,2-20.9,2c-14.1,0-25.3-2.7-33.6-8.1
		c-8.3-5.4-12.5-13.6-12.5-24.7c0-9.4,2.8-16.6,8.4-21.5c5.6-4.9,14.2-8,25.8-9.2l27.2-2.9v-2.3c0-4.4-1.8-7.6-5.3-9.6
		c-3.5-2-8.7-3.1-15.4-3.1c-5.2,0-10.3,0.6-15.3,1.8c-5,1.2-9.5,2.7-13.4,4.3c-1.6-1.1-3-2.8-4.2-5c-1.2-2.3-1.7-4.7-1.7-7.3
		c0-6,3.1-10.3,9.4-12.9c4-1.5,8.6-2.6,13.8-3.4C1346.2,318,1351.4,317.7,1356.4,317.7z"/>
	<path class="st0" d="M1473.3,317.7c3.1,0,6.1,0.2,8.9,0.7c2.8,0.5,5.4,1.1,7.7,1.9v-34.4c1.5-0.4,3.5-0.8,5.9-1.2
		c2.5-0.4,5.2-0.6,8.2-0.6c6.1,0,10.5,1,13.2,3.1c2.7,2,4,5.9,4,11.7v99.7c0,3.3-0.7,6-2,8.3c-1.4,2.3-3.5,4.3-6.6,6.2
		c-3.8,2.3-8.7,4.4-14.7,6.3c-6,1.9-12.9,2.9-20.7,2.9c-17.2,0-30.7-4.3-40.6-13c-9.9-8.7-14.8-21.7-14.8-39c0-9,1.3-16.8,4-23.3
		c2.7-6.6,6.3-12,11-16.4c4.6-4.4,10.1-7.6,16.4-9.7C1459.3,318.7,1466.1,317.7,1473.3,317.7L1473.3,317.7z M1490.1,345.3
		c-1.8-0.8-3.7-1.5-5.8-2.2c-2.1-0.6-4.3-0.9-6.7-0.9c-7.4,0-13.2,2.3-17.6,6.8c-4.4,4.5-6.6,11.7-6.6,21.5c0,9.4,2.1,16.3,6.2,20.6
		c4.2,4.3,9.9,6.4,17.3,6.4c2.9,0,5.4-0.3,7.7-0.9c2.3-0.6,4.1-1.3,5.4-2.2V345.3z"/>
	<path class="st0" d="M1576.5,419c-1.4,0.4-3.3,0.8-5.7,1.1c-2.5,0.3-5.2,0.5-8.2,0.5c-6.1,0-10.6-1-13.3-3c-2.7-2-4.1-5.8-4.1-11.6
		V285.9c1.5-0.4,3.5-0.8,5.9-1.2c2.5-0.4,5.2-0.6,8.2-0.6c6.1,0,10.5,1,13.2,3.1c2.7,2,4,5.9,4,11.7v23.5c2.9-1.4,6.1-2.5,9.7-3.4
		c3.6-0.9,7.5-1.3,11.8-1.3c13.1,0,23.4,3.3,30.8,9.9c7.4,6.6,11.2,16.6,11.2,29.8V419c-1.4,0.4-3.3,0.8-5.7,1.1
		c-2.5,0.3-5.2,0.5-8.2,0.5c-6.1,0-10.6-1-13.3-3c-2.7-2-4.1-5.8-4.1-11.6v-46.9c0-6.1-1.5-10.5-4.6-13.1c-3.1-2.6-7-3.9-11.8-3.9
		c-3.1,0-6,0.4-8.6,1.3c-2.6,0.9-5,1.9-7.2,3.2V419z"/>
	<path class="st0" d="M277.6,265.8c-2.9,2.6-13.1,20.6-15.9,25.2c-2.9,4.7-4.9,8.8-7.7,13.2c-2.3,3.7-6.4,9.3-7.9,13.1l-0.8,0l2,4.3
		c2-2.4,1.3,0.5,3.4-2.2c2.2,1.1,3.6-2.4-0.4,0.3c-0.2,0.1-0.4,0.2-0.6,0.3l-2.7,1c2.9,6.8,38.8,56.4,43.3,62.4
		c7.1,9.5,46.1,54.4,56.7,58c2.1-3.9,0.3-6.1,3.8-3.8c2.9-0.1-1.3-3.8,1.2-1.9c-4.3,2.8,1.4-0.3-5.3,3.4
		c0.4,7.9,13.1,10.3,19.9,10.5c10.7,0.4,18.9-5,25.3-10.1c26.5-21.1,51.9-77.6,65.2-110.1c3.2-7.7,6.5-18.5,10-25.4
		c0.9-3.7,2.7-10.4,5.2-12.6c0.2-4.6,6.1-19.7,7.9-25.1c2.3-6.8,7-18.4,6.5-26.7c-1.1-19.4-22.6-30.7-38.5-19.2
		c-9.8,7.1-13.9,28.9-20.3,45.8c-8.9,23.8-27.2,70-47.5,84.8c-17,12.4-32.4-4.5-42.1-13.5c-10.6-9.8-21.5-22.5-31.6-34.7
		c-5.1-6.2-10.2-12.3-14.5-18.2L277.6,265.8z"/>
	<path class="st0" d="M245,317.3c-3.1-1.9-6.7-9.4-8.9-12.7c-2.6-3.9-5.6-9-8-13c-3.2-5.2-12.3-21.9-16.1-25.8l-28.7,36.5
		c-10,12.5-21.2,25-31.4,34.9c-9.9,9.6-26,25.7-42.3,14.2c-11-7.7-21.3-24.9-28.1-38.3c-9.9-19.4-21.6-50-28.5-71.6
		c-3.1-9.8-4.6-16-12.3-21.4C24.7,208.8,3.5,221,3,240.5c1.8,21.1,25.8,78.4,22.1,69.4c10.3,2.5,1.2-13.6,2.3-9.8
		c3.5,4.5,3.5,7.7,0.5,10.1l-3.1-1.6c4.4,18.1,29.9,70,38.4,85.4c47.6,86.5,79.9,60.3,130.9-3.9C199.2,383.4,241.6,325.4,245,317.3z
		"/>
	<path class="st0" d="M355.5,240.6c-53.8,13.4-34.2,90.2,13.9,80.5c19-3.8,35.5-23.7,30.9-48.2C396.6,253.3,377.6,235.1,355.5,240.6
		z"/>
	<path class="st0" d="M122.2,240.4c-55.1,10.5-35.6,90.3,11.4,81c19.8-3.9,35.7-23.2,32.1-46.9C162.6,253.9,143.9,236.3,122.2,240.4
		z"/>
	<path class="st0" d="M211.9,264.3c2.9-1.8,13.2-16.8,16.5-21.5c3.6-5.2,13.2-19.9,16.5-22.7l-0.2-1.6c-3.3-2.6-26-37.8-30.1-43.9
		c-5.4-8.1-9.2-16.1-18.1-19.2c-16.3-5.6-40.2,10.5-25.4,38.1c4.3,8.1,8.5,15.3,13.4,24C188.2,224.1,208.9,261,211.9,264.3z"/>
	<path class="st0" d="M244.7,218.5l0.2,1.6c2.4,2,5.8,7.5,8.1,10.8c3.1,4.6,5.2,7.4,8,11.2c3.4,4.7,13.4,19.6,16.6,22.2
		c5.4-7.4,21.3-36.5,27-46.4c4.5-7.8,9-15.9,13.5-23.9c5.2-9.3,7.8-18.1,1.5-28.6c-4.5-7.4-14.3-13.6-25.8-10.1
		c-9.2,2.8-13.2,11-18.4,18.8l-27.7,41.4C245.6,218.3,247.4,216.7,244.7,218.5z"/>
	<path class="st0" d="M211.9,264.3l0.1,1.5c3.8,3.9,12.9,20.6,16.1,25.8c2.5,4,5.4,9.1,8,13c2.2,3.3,5.8,10.7,8.9,12.7l1,0
		c1.5-3.8,5.6-9.4,7.9-13.1c2.8-4.5,4.9-8.6,7.7-13.2c2.8-4.6,13-22.6,15.9-25.2l0-1.4c-3.2-2.6-13.2-17.5-16.6-22.2
		c-2.8-3.9-4.9-6.7-8-11.2c-2.2-3.3-5.7-8.8-8.1-10.8c-3.4,2.9-12.9,17.5-16.5,22.7C225.1,247.5,214.8,262.5,211.9,264.3z"/>
	<path class="st0" d="M1776.8,419.5c0.9-16.6,0.5-36,0.2-52.7c-0.9-50.4-66.1-69.6-100.3-37.8c-22.8,21.2-23.6,53.6-0.4,74.9
		c8.8,8.1,23.5,15.3,41.1,15.7C1736.4,420,1757.8,420,1776.8,419.5z"/>
	<path class="st0" d="M1750.7,396.7c1.1-19,2.8-39.8-9.7-50.8c-12-10.5-33.6-11.7-46.6,0.2c-12.8,11.8-13.1,30.3-0.4,42
		C1705.7,398.9,1729.4,398.2,1750.7,396.7z"/>
	<path class="st21" d="M1728.2,361.3c-12.4,4.7-4.4,19,6.6,14.7C1744.6,372.1,1738.8,357.3,1728.2,361.3z"/>
	<path class="st21" d="M1700.7,361.5c-3.6,1.6-7.6,4.1-4.9,10.5c1.6,3.8,7,6.1,12.3,3.8C1717.3,371.8,1711.3,356.8,1700.7,361.5z"/>
	<path class="st0" d="M1826.9,419.2c-1.4,0.4-3.3,0.8-5.7,1.1c-2.5,0.3-5.2,0.5-8.2,0.5c-6.1,0-10.6-1-13.3-3
		c-2.7-2-4.1-5.8-4.1-11.6v-62.4c0-3.8,1-7.1,2.9-9.8c1.9-2.7,4.6-5.1,8-7.2c4.5-2.7,9.9-4.9,16.3-6.4c6.3-1.6,13-2.4,20-2.4
		c14.2,0,21.3,4.8,21.3,14.3c0,2.3-0.3,4.4-1,6.3c-0.7,1.9-1.4,3.5-2.3,4.9c-3.1-0.7-7-1-11.5-1c-4,0-7.9,0.5-11.9,1.4
		c-4,1-7.4,2.3-10.4,3.9V419.2z"/>
	<ellipse class="st0" cx="350.4" cy="437.1" rx="5.8" ry="6"/>
	<path class="st0" d="M251.5,314.8c-2.2,0-4.1,2.1-4.1,4.6c0,2.5,1.8,4.6,4.1,4.6c2.2,0,4.1-2.1,4.1-4.6
		C255.5,316.8,253.7,314.8,251.5,314.8z"/>
	<ellipse class="st0" cx="28.6" cy="304.2" rx="2.2" ry="5.6"/>
	<path class="st0" d="M26.8,310.3c-0.6,0-1-0.4-1-0.9c0-0.5,0.5-0.9,1-0.9s1,0.4,1,0.9C27.8,309.9,27.4,310.3,26.8,310.3z"/>
	<polygon class="st0" points="247.2,320.8 247.3,320.8 247.6,321.3 247.4,321.4 	"/>
	<path class="st0" d="M1245.3,335.2c-3.1,1.8-6.7,8.6-8.9,11.6c-2.6,3.6-5.6,8.2-8,11.9c-3.2,4.8-12.3,20.1-16.1,23.7l-28.7-33.5
		c-10-11.4-21.2-22.9-31.4-32c-9.9-8.8-26-23.6-42.3-13c-11,7.1-21.3,22.9-28.1,35.1c-9.9,17.8-21.6,45.9-28.5,65.7
		c-3.1,9-4.6,14.7-12.3,19.6c-16.1,10.4-37.3-0.8-37.8-18.7c1.8-19.3,25.8-71.9,22.1-63.6c10.3-2.3,1.2,12.5,2.3,9
		c3.5-4.1,3.5-7.1,0.5-9.2l-3.1,1.5c4.4-16.6,29.9-64.2,38.4-78.3c47.6-79.3,79.9-55.3,130.9,3.6
		C1199.6,274.6,1242,327.8,1245.3,335.2z"/>
	<path class="st0" d="M1122.6,405.7c-55.1-9.6-35.6-82.8,11.4-74.3c19.8,3.6,35.7,21.3,32.1,43
		C1163,393.3,1144.3,409.5,1122.6,405.7z"/>
	<path class="st0" d="M1245.1,425.8l0.2-1.4c2.4-1.9,5.8-6.9,8.1-9.9c3.1-4.2,5.2-6.7,8-10.3c3.4-4.4,13.4-18,16.6-20.4
		c5.4,6.8,21.3,33.4,27,42.5c4.5,7.2,9,14.6,13.5,22c5.2,8.5,7.8,16.6,1.5,26.3c-4.5,6.8-14.3,12.5-25.8,9.3
		c-9.2-2.6-13.2-10.1-18.4-17.3l-27.7-38C1245.9,426,1247.7,427.4,1245.1,425.8z"/>
	<path class="st0" d="M1212.1,382.1l0.7-0.1c3.8-3.6,12.4-18.5,15.7-23.2c2.5-3.7,5.4-8.3,8-11.9c2.2-3,5.8-9.9,8.9-11.6l-1-1.4
		c2.1,3.5,7.6,10,10,13.4c2.8,4.1,4.9,7.8,7.7,12.1c2.8,4.2,14.7,22.7,17.1,26l-1.2-1.5c-3.2,2.4-13.2,16-16.6,20.4
		c-2.8,3.6-4.9,6.1-8,10.3c-2.2,3-3.5,11.2-5.9,13.1c-3.9-3.5-15.1-19.3-18.8-24.1C1225.4,399.2,1215,383.8,1212.1,382.1z"/>
	<path class="st0" d="M1029,352.4c1.2,0,2.2-2.3,2.2-5.1c0-2.8-1-5.1-2.2-5.1s-2.2,2.3-2.2,5.1
		C1026.8,350.1,1027.8,352.4,1029,352.4z"/>
	<path class="st0" d="M1027.1,341.7c-0.6,0-1,0.4-1,0.8c0,0.4,0.5,0.8,1,0.8c0.6,0,1-0.4,1-0.8
		C1028.2,342,1027.7,341.7,1027.1,341.7z"/>
	<g>
		<g>
			<path class="st22" d="M1879.9,263.6h-6.1v17.5h-4.9v-17.5h-6.1v-3.9h17.1V263.6z"/>
			<path class="st22" d="M1907.2,281.2h-4.8v-12.9c0-1.4,0.1-2.9,0.2-4.6h-0.1c-0.3,1.3-0.5,2.3-0.7,2.8l-5,14.6h-4l-5.1-14.5
				c-0.1-0.4-0.4-1.4-0.7-3h-0.1c0.1,2.1,0.2,4,0.2,5.6v11.9h-4.4v-21.5h7.1l4.4,12.7c0.3,1,0.6,2,0.8,3.1h0.1
				c0.3-1.2,0.6-2.2,0.9-3.1l4.4-12.7h6.9V281.2z"/>
		</g>
		<path class="st23" d="M1885,302c17.4,0,31.6-14.2,31.6-31.6s-14.2-31.6-31.6-31.6c-17.4,0-31.6,14.2-31.6,31.6
			S1867.6,302,1885,302z"/>
	</g>
</g>
<path class="st0" d="M373.1-683.7c-3.1-6.7-6.6-15.6-10.6-26.4c-4-10.9-8.1-24.9-12.4-42.2c1.6-1.8,3.9-3.3,6.8-4.6
	c2.9-1.3,6-1.9,9.4-1.9c4.3,0,7.8,0.9,10.5,2.7c2.7,1.8,4.8,5.2,6.3,10c3,9.9,6,19.6,9,29.1c3,9.6,6.1,19.2,9.2,28.9h0.8
	c1.6-4.6,3.3-9.6,5.1-15.1s3.4-11.1,5.1-17c1.6-5.9,3.1-11.8,4.6-17.8c1.4-6,2.7-11.8,3.7-17.5c4.2-2.3,8.6-3.4,13.2-3.4
	c4.3,0,8,0.9,11.1,2.8c3.1,1.9,4.7,5,4.7,9.3c0,4.9-0.8,11-2.5,18.5s-3.9,15.3-6.7,23.5s-5.9,16.3-9.3,24.3c-3.4,8-7,15.1-10.6,21.2
	c-7.6,12.8-14.4,22.4-20.4,28.6c-6.1,6.3-12.2,9.4-18.4,9.4c-5,0-9.1-1.5-12.3-4.6c-3.2-3-5.2-6.9-5.9-11.6
	c4.3-3.8,8.8-8.2,13.5-13.3c4.7-5.1,8.6-10.2,11.8-15.3c-2.3-0.7-4.7-2.2-7.2-4.6C378.8-672.8,376-677.2,373.1-683.7z"/>
<path class="st0" d="M504.4-679.1c3,0,5.9-0.3,8.8-0.9c2.9-0.6,5.1-1.4,6.6-2.3v-18.6l-16.6,1.4c-4.3,0.4-7.8,1.4-10.4,2.9
	c-2.6,1.6-3.9,3.9-3.9,7c0,3.2,1.2,5.8,3.6,7.7C494.9-680,498.9-679.1,504.4-679.1L504.4-679.1z M503.2-759.8c7,0,13.4,0.7,19.1,2.1
	c5.7,1.4,10.6,3.6,14.7,6.6c4,3,7.2,6.7,9.4,11.3s3.3,10,3.3,16.2v45.7c0,3.5-0.9,6.3-2.7,8.4c-1.8,2.1-4,3.9-6.6,5.4
	c-4.2,2.6-9.3,4.5-15.4,5.9c-6.1,1.3-13,2-20.6,2c-13.9,0-25-2.7-33.2-8s-12.3-13.5-12.3-24.4c0-9.3,2.8-16.4,8.3-21.3
	c5.5-4.9,14-7.9,25.5-9.1l26.9-2.8v-2.2c0-4.3-1.8-7.5-5.3-9.5s-8.6-3-15.2-3c-5.1,0-10.2,0.6-15.1,1.8c-4.9,1.2-9.3,2.6-13.3,4.3
	c-1.6-1.1-3-2.7-4.1-5c-1.1-2.2-1.7-4.6-1.7-7.2c0-5.9,3.1-10.2,9.3-12.8c3.9-1.5,8.5-2.6,13.7-3.3
	C493.1-759.4,498.2-759.8,503.2-759.8z"/>
<path class="st0" d="M621-656.4c-3.5,0-6.7-0.3-9.7-0.9c-3-0.6-5.7-1.4-8.1-2.3v36.2c-1.3,0.4-3.2,0.8-5.7,1.2
	c-2.4,0.4-5.1,0.6-8.1,0.6c-6.1,0-10.5-1-13.2-3s-4-5.9-4-11.5v-100.2c0-3.5,0.7-6.4,2.2-8.6s3.6-4.2,6.3-6c4-2.6,9.2-4.7,15.6-6.4
	c6.3-1.7,13.4-2.5,21-2.5c7.8,0,15,1,21.6,2.9c6.5,2,12.2,5,16.9,9.2s8.4,9.5,11,16s3.9,14.2,3.9,23.1c0,8.5-1.2,16-3.7,22.6
	c-2.5,6.5-6,12-10.4,16.4c-4.5,4.4-9.7,7.7-15.8,9.9C634.8-657.5,628.1-656.4,621-656.4L621-656.4z M616.3-680.9
	c7.3,0,12.9-2.3,16.9-6.9c4-4.6,6-11.5,6-20.8c0-9.6-1.9-16.5-5.8-20.6c-3.8-4.2-9.2-6.3-16.1-6.3c-3.1,0-5.8,0.4-8.1,1.1
	s-4.4,1.6-6.3,2.5v47.6c1.9,1.1,3.9,1.9,6.1,2.5C611.2-681.2,613.6-680.9,616.3-680.9z"/>
<path class="st0" d="M730.1-679.1c3,0,5.9-0.3,8.8-0.9c2.9-0.6,5.1-1.4,6.6-2.3v-18.6l-16.6,1.4c-4.3,0.4-7.8,1.4-10.4,2.9
	c-2.6,1.6-3.9,3.9-3.9,7c0,3.2,1.2,5.8,3.6,7.7C720.6-680,724.6-679.1,730.1-679.1L730.1-679.1z M728.9-759.8c7,0,13.4,0.7,19.1,2.1
	c5.7,1.4,10.6,3.6,14.7,6.6c4,3,7.2,6.7,9.4,11.3s3.3,10,3.3,16.2v45.7c0,3.5-0.9,6.3-2.7,8.4c-1.8,2.1-4,3.9-6.6,5.4
	c-4.2,2.6-9.3,4.5-15.4,5.9c-6.1,1.3-13,2-20.6,2c-13.9,0-25-2.7-33.2-8s-12.3-13.5-12.3-24.4c0-9.3,2.8-16.4,8.3-21.3
	c5.5-4.9,14-7.9,25.5-9.1l26.9-2.8v-2.2c0-4.3-1.8-7.5-5.3-9.5s-8.6-3-15.2-3c-5.1,0-10.2,0.6-15.1,1.8c-4.9,1.2-9.3,2.6-13.3,4.3
	c-1.6-1.1-3-2.7-4.1-5c-1.1-2.2-1.7-4.6-1.7-7.2c0-5.9,3.1-10.2,9.3-12.8c3.9-1.5,8.5-2.6,13.7-3.3
	C718.8-759.4,723.9-759.8,728.9-759.8z"/>
<path class="st0" d="M828.9-659.6c-1.3,0.4-3.2,0.8-5.7,1.1c-2.4,0.3-5.1,0.5-8.1,0.5c-6.1,0-10.5-1-13.2-2.9c-2.7-2-4-5.8-4-11.4
	V-734c0-3.8,0.9-7,2.8-9.7c1.9-2.7,4.5-5.1,7.9-7.1c4.5-2.7,9.8-4.8,16.1-6.4c6.3-1.6,12.9-2.3,19.7-2.3c14,0,21,4.7,21,14.2
	c0,2.3-0.3,4.4-1,6.3c-0.7,1.9-1.4,3.5-2.2,4.9c-3.1-0.7-6.9-1-11.3-1c-3.9,0-7.8,0.5-11.7,1.4c-3.9,0.9-7.4,2.2-10.3,3.8V-659.6z"
	/>
<path class="st24" d="M1220.2-676.3c3,0,5.9-0.3,8.8-0.9c2.9-0.6,5.1-1.4,6.6-2.3v-18.6l-16.6,1.4c-4.3,0.4-7.8,1.4-10.4,2.9
	c-2.6,1.6-3.9,3.9-3.9,7c0,3.2,1.2,5.8,3.6,7.7C1210.7-677.2,1214.7-676.3,1220.2-676.3L1220.2-676.3z M1219-757
	c7,0,13.4,0.7,19.1,2.1c5.7,1.4,10.6,3.6,14.7,6.6c4,3,7.2,6.7,9.4,11.3c2.2,4.6,3.3,10,3.3,16.2v45.7c0,3.5-0.9,6.3-2.7,8.4
	c-1.8,2.1-4,3.9-6.6,5.4c-4.2,2.6-9.3,4.5-15.4,5.9c-6.1,1.3-13,2-20.6,2c-13.9,0-25-2.7-33.2-8s-12.3-13.5-12.3-24.4
	c0-9.3,2.8-16.4,8.3-21.3c5.5-4.9,14-7.9,25.5-9.1l26.9-2.8v-2.2c0-4.3-1.8-7.5-5.3-9.5s-8.6-3-15.2-3c-5.1,0-10.2,0.6-15.1,1.8
	s-9.3,2.6-13.3,4.3c-1.6-1.1-3-2.7-4.1-5c-1.1-2.2-1.7-4.6-1.7-7.2c0-5.9,3.1-10.2,9.3-12.8c3.9-1.5,8.5-2.6,13.7-3.3
	C1208.9-756.6,1214-757,1219-757z"/>
<path class="st24" d="M1334.5-757c3.1,0,6,0.2,8.8,0.7s5.3,1.1,7.6,1.9v-34c1.5-0.4,3.4-0.8,5.9-1.2c2.4-0.4,5.1-0.6,8.1-0.6
	c6.1,0,10.4,1,13.1,3c2.6,2,3.9,5.9,3.9,11.5v98.6c0,3.2-0.7,6-2,8.2s-3.5,4.3-6.5,6.2c-3.8,2.3-8.6,4.4-14.6,6.3
	c-5.9,1.9-12.8,2.8-20.4,2.8c-17,0-30.4-4.3-40.2-12.9c-9.8-8.6-14.7-21.4-14.7-38.6c0-8.9,1.3-16.6,3.9-23.1s6.2-11.9,10.8-16.2
	c4.6-4.3,10-7.5,16.2-9.6C1320.7-756,1327.4-757,1334.5-757L1334.5-757z M1351.1-729.7c-1.8-0.8-3.7-1.5-5.8-2.1
	c-2.1-0.6-4.3-0.9-6.6-0.9c-7.3,0-13.1,2.2-17.4,6.7s-6.5,11.5-6.5,21.3c0,9.3,2.1,16.1,6.2,20.3c4.1,4.3,9.8,6.4,17.1,6.4
	c2.8,0,5.4-0.3,7.6-0.9c2.2-0.6,4-1.3,5.4-2.1L1351.1-729.7L1351.1-729.7z"/>
<path class="st24" d="M1436.6-656.8c-1.3,0.4-3.2,0.8-5.7,1.1c-2.4,0.3-5.1,0.5-8.1,0.5c-6.1,0-10.5-1-13.2-2.9c-2.7-2-4-5.8-4-11.4
	v-118.9c1.5-0.4,3.4-0.8,5.9-1.2c2.4-0.4,5.1-0.6,8.1-0.6c6.1,0,10.4,1,13.1,3c2.6,2,3.9,5.9,3.9,11.5v23.3c2.8-1.3,6-2.5,9.6-3.3
	c3.6-0.9,7.5-1.3,11.6-1.3c13,0,23.1,3.3,30.5,9.8s11,16.4,11,29.4v60.9c-1.3,0.4-3.2,0.8-5.7,1.1c-2.4,0.3-5.1,0.5-8.1,0.5
	c-6.1,0-10.5-1-13.2-2.9c-2.7-2-4-5.8-4-11.4v-46.3c0-6.1-1.5-10.4-4.6-13c-3-2.6-6.9-3.8-11.6-3.8c-3.1,0-5.9,0.4-8.5,1.3
	c-2.6,0.9-4.9,1.9-7.1,3.1L1436.6-656.8L1436.6-656.8z"/>
<path class="st24" d="M1634.5-656.4c0.9-16.4,0.4-35.6,0.2-52.1c-0.9-49.8-65.3-68.8-99.1-37.4c-22.5,21-23.3,52.9-0.4,74.1
	c8.7,8,23.2,15.1,40.6,15.5C1594.6-655.9,1615.8-655.8,1634.5-656.4z"/>
<path class="st25" d="M1608.7-678.8c1.1-18.8,2.8-39.3-9.6-50.2c-11.9-10.4-33.2-11.5-46,0.2c-12.7,11.7-12.9,29.9-0.4,41.5
	C1564.3-676.7,1587.7-677.4,1608.7-678.8z"/>
<path class="st26" d="M1586.5-713.9c-12.2,4.6-4.4,18.8,6.6,14.5C1602.8-703.2,1597-717.9,1586.5-713.9z"/>
<path class="st26" d="M1559.4-713.6c-3.6,1.6-7.5,4.1-4.8,10.3c1.6,3.7,6.9,6,12.2,3.7C1575.8-703.5,1569.8-718.3,1559.4-713.6z"/>
<path class="st24" d="M1684.1-656.7c-1.3,0.4-3.2,0.8-5.7,1.1c-2.4,0.3-5.1,0.5-8.1,0.5c-6.1,0-10.5-1-13.2-2.9c-2.7-2-4-5.8-4-11.4
	v-61.7c0-3.8,0.9-7,2.8-9.7s4.5-5.1,7.9-7.1c4.5-2.7,9.8-4.8,16.1-6.4c6.3-1.6,12.9-2.3,19.7-2.3c14,0,21,4.7,21,14.2
	c0,2.3-0.3,4.4-1,6.3c-0.7,1.9-1.4,3.5-2.2,4.9c-3.1-0.7-6.9-1-11.3-1c-3.9,0-7.8,0.5-11.7,1.4c-3.9,0.9-7.4,2.2-10.3,3.8
	L1684.1-656.7L1684.1-656.7z"/>
<path class="st0" d="M152.6-808.3c-2.9,2.6-13,20.4-15.8,24.9c-2.8,4.6-4.9,8.7-7.7,13.1c-2.3,3.6-6.3,9.2-7.8,13h-0.8l2,4.2
	c1.9-2.4,1.3,0.4,3.3-2.1c2.1,1.1,3.5-2.4-0.4,0.3c-0.2,0.1-0.4,0.2-0.6,0.3l-2.6,1c2.9,6.7,38.3,55.8,42.8,61.7
	c7.1,9.4,45.5,53.8,56,57.4c2.1-3.8,0.3-6,3.7-3.8c2.9-0.1-1.3-3.7,1.2-1.9c-4.2,2.8,1.4-0.3-5.3,3.4c0.4,7.8,12.9,10.2,19.7,10.4
	c10.6,0.3,18.7-5,25-10c26.2-20.9,51.3-76.7,64.4-108.9c3.1-7.7,6.4-18.3,9.8-25.1c0.9-3.7,2.7-10.2,5.1-12.5
	c0.2-4.5,6-19.5,7.8-24.8c2.3-6.7,6.9-18.2,6.4-26.4c-1.1-19.2-22.4-30.3-38-18.9c-9.7,7-13.8,28.5-20.1,45.3
	c-8.8,23.5-26.9,69.2-46.9,83.8c-16.8,12.3-32-4.5-41.6-13.4c-10.5-9.7-21.2-22.2-31.2-34.3c-5.1-6.1-10.1-12.1-14.3-18L152.6-808.3
	z"/>
<path class="st24" d="M120.3-757.4c-3.1-1.9-6.6-9.3-8.8-12.5c-2.6-3.8-5.5-8.9-7.9-12.8c-3.2-5.2-12.2-21.6-15.9-25.5l-28.3,36.1
	c-9.9,12.3-20.9,24.7-31,34.5c-9.8,9.5-25.7,25.4-41.8,14.1c-10.8-7.6-21-24.7-27.8-37.9c-9.9-19.3-21.4-49.5-28.2-70.9
	c-3.1-9.7-4.6-15.8-12.1-21.1c-15.9-11.2-36.8,0.9-37.4,20.2c1.8,20.8,25.5,77.5,21.8,68.6c10.2,2.4,1.2-13.4,2.3-9.7
	c3.5,4.4,3.5,7.7,0.5,9.9l-3.1-1.6c4.3,17.9,29.6,69.2,38,84.4c47.1,85.5,78.9,59.6,129.4-3.9C75.1-692.1,117-749.4,120.3-757.4z"/>
<path class="st0" d="M229.6-833.2c-53.2,13.2-33.9,89.2,13.7,79.6c18.8-3.8,35.1-23.4,30.5-47.7
	C270.2-820.7,251.4-838.7,229.6-833.2z"/>
<path class="st24" d="M-1-833.4c-54.5,10.3-35.2,89.3,11.3,80c19.6-3.9,35.3-22.9,31.7-46.3C38.9-820,20.4-837.4-1-833.4z"/>
<path class="st0" d="M87.6-809.7c2.9-1.8,13-16.6,16.3-21.3c3.6-5.2,13-19.6,16.4-22.5l-0.2-1.5c-3.3-2.6-25.7-37.3-29.8-43.4
	c-5.4-8-9.1-15.9-17.9-19C56.3-923,32.7-907,47.3-879.8c4.3,8,8.4,15.2,13.2,23.7C64.2-849.5,84.6-813.1,87.6-809.7z"/>
<path class="st24" d="M120.1-855l0.2,1.5c2.4,2,5.8,7.4,8,10.7c3.1,4.5,5.2,7.3,7.9,11.1c3.3,4.7,13.2,19.4,16.4,22
	c5.3-7.3,21-36,26.7-45.8c4.5-7.8,8.9-15.7,13.3-23.7c5.1-9.2,7.7-17.9,1.4-28.3c-4.5-7.4-14.2-13.5-25.5-10
	c-9.1,2.8-13.1,10.9-18.2,18.6l-27.4,41C120.9-855.2,122.7-856.8,120.1-855z"/>
<path class="st27" d="M87.6-809.7l0.1,1.5c3.8,3.9,12.7,20.4,15.9,25.5c2.4,3.9,5.4,9,7.9,12.8c2.2,3.2,5.7,10.6,8.8,12.5h1
	c1.5-3.7,5.5-9.3,7.8-13c2.8-4.4,4.8-8.5,7.7-13.1c2.8-4.5,12.9-22.3,15.8-24.9v-1.4c-3.2-2.6-13.1-17.3-16.4-22
	c-2.7-3.9-4.8-6.6-7.9-11.1c-2.2-3.2-5.6-8.7-8-10.7c-3.3,2.8-12.8,17.3-16.4,22.5C100.6-826.4,90.5-811.5,87.6-809.7z"/>
<ellipse class="st0" cx="224.6" cy="-639" rx="5.7" ry="5.9"/>
<path class="st0" d="M126.7-759.9c-2.2,0-4,2-4,4.5s1.8,4.5,4,4.5s4-2,4-4.5C130.8-757.9,129-759.9,126.7-759.9z"/>
<path class="st28" d="M-93.5-775.9c1.2,0,2.1,2.5,2.1,5.5c0,3.1-1,5.5-2.1,5.5c-1.2,0-2.1-2.5-2.1-5.5
	C-95.7-773.4-94.7-775.9-93.5-775.9z"/>
<path class="st29" d="M-95.4-764.3c-0.6,0-1-0.4-1-0.8c0-0.5,0.5-0.8,1-0.8s1,0.4,1,0.8C-94.4-764.7-94.8-764.3-95.4-764.3z"/>
<polygon class="st30" points="122.5,-753.9 122.6,-753.9 122.9,-753.4 122.7,-753.4 "/>
<path class="st24" d="M1109.2-739.7c-3.1,1.7-6.6,8.5-8.8,11.5c-2.6,3.5-5.5,8.1-7.9,11.8c-3.2,4.7-12.2,19.8-15.9,23.4l-28.3-33.1
	c-9.9-11.3-20.9-22.6-31-31.6c-9.8-8.7-25.7-23.3-41.8-12.9c-10.8,7-21,22.6-27.8,34.7c-9.8,17.6-21.3,45.3-28.1,65
	c-3.1,8.9-4.6,14.5-12.1,19.4c-15.9,10.3-36.8-0.8-37.4-18.5c1.8-19.1,25.5-71.1,21.8-62.9c10.2-2.2,1.2,12.3,2.3,8.9
	c3.5-4,3.5-7,0.5-9.1l-3.1,1.5c4.3-16.4,29.6-63.5,38-77.4c47.1-78.4,78.9-54.6,129.4,3.6C1064-799.6,1105.9-747,1109.2-739.7z"/>
<path class="st24" d="M987.9-670c-54.5-9.5-35.2-81.9,11.3-73.4c19.6,3.6,35.3,21,31.7,42.5C1027.8-682.2,1009.3-666.3,987.9-670z"
	/>
<path class="st24" d="M1109-650.1l0.2-1.4c2.4-1.9,5.8-6.8,8-9.8c3.1-4.1,5.2-6.7,7.9-10.2c3.3-4.3,13.2-17.8,16.4-20.1
	c5.3,6.7,21,33.1,26.7,42c4.5,7.1,8.9,14.4,13.3,21.7c5.1,8.4,7.7,16.4,1.4,26c-4.5,6.7-14.2,12.4-25.5,9.2
	c-9.1-2.6-13.1-10-18.2-17.1l-27.4-37.6C1109.8-649.9,1111.5-648.5,1109-650.1z"/>
<path class="st31" d="M1076.3-693.3l0.7-0.1c3.8-3.6,12.3-18.2,15.5-23c2.4-3.6,5.4-8.2,7.9-11.8c2.2-2.9,5.7-9.7,8.8-11.5l-1-1.4
	c2.1,3.5,7.5,9.9,9.8,13.3c2.8,4,4.8,7.8,7.7,12c2.8,4.2,14.6,22.4,16.9,25.7l-1.1-1.5c-3.2,2.3-13.1,15.8-16.4,20.1
	c-2.7,3.5-4.8,6.1-7.9,10.2c-2.2,3-3.4,11.1-5.8,13c-3.8-3.5-14.9-19.1-18.5-23.8C1089.5-676.4,1079.2-691.7,1076.3-693.3z"/>
<path class="st28" d="M895.3-722.7c1.2,0,2.1-2.3,2.1-5.1s-1-5.1-2.1-5.1c-1.2,0-2.1,2.3-2.1,5.1
	C893.2-724.9,894.2-722.7,895.3-722.7z"/>
<path class="st29" d="M893.5-733.3c-0.6,0-1,0.3-1,0.8c0,0.4,0.5,0.8,1,0.8c0.6,0,1-0.3,1-0.8C894.5-732.9,894.1-733.3,893.5-733.3z
	"/>
<g>
	<path class="st22" d="M1736.4-812.1h-6.1v19h-2.5v-19h-6.1v-2.2h14.7V-812.1z"/>
	<path class="st22" d="M1761.4-793.1h-2.5v-14.2c0-1.1,0.1-2.5,0.2-4.1h-0.1c-0.2,1-0.4,1.6-0.6,2.1l-7.3,16.3h-1.2l-7.2-16.2
		c-0.2-0.5-0.4-1.2-0.6-2.2h-0.1c0.1,0.8,0.1,2.2,0.1,4.2v14.2h-2.4v-21.2h3.3l6.5,14.8c0.5,1.1,0.8,2,1,2.5h0.1
		c0.4-1.2,0.8-2,1-2.6l6.6-14.7h3.1L1761.4-793.1L1761.4-793.1z"/>
</g>
<path class="st32" d="M1741.5-772.5c17.2,0,31.2-14,31.2-31.2s-14-31.2-31.2-31.2s-31.2,14-31.2,31.2S1724.3-772.5,1741.5-772.5z"/>
<rect x="-0.4" y="-220.6" class="st18" width="1920.4" height="130.7"/>
<rect x="2155.6" class="st18" width="155.2" height="639"/>
</svg>
