<svg xmlns="http://www.w3.org/2000/svg" width="45" height="44.592" class="air_svg"><defs><style>.air_svg .a,.air_svg .d{fill:#F76C6C}.air_svg .b{fill:#f1f2f2}.air_svg .c{fill:#24305E}.air_svg .d{opacity:.2;isolation:isolate}</style></defs><g transform="translate(-2547.535 -1764.266)"><path class="a" d="M2575.823 1800.02h-24.264a.8.8 0 0 0-.8.8v3.214h-2.41a.8.8 0 0 0-.8.8v3.214a.8.8 0 0 0 .8.8h36.959a.8.8 0 0 0 .8-.8v-3.547"/><path class="b" d="M2550.758 1802.43h32.942v1.607h-32.942Z"/><path class="c" d="M2565.221 1783.95h3.214v12.855h-3.214ZM2577.272 1783.95h3.214v12.855h-3.214Z"/><path class="a" d="M2549.145 1780.736h35.355a1.607 1.607 0 0 0 .964-2.892l-17.676-13.257a1.607 1.607 0 0 0-1.928 0l-17.676 13.257a1.607 1.607 0 0 0 .961 2.892Z"/><circle class="b" cx="2.41" cy="2.41" r="2.41" transform="translate(2564.414 1771.898)"/><path class="c" d="M2553.168 1783.95h3.214v12.855h-3.214ZM2551.561 1780.736v3.214h6.428v-3.214M2557.986 1800.019v-3.214h-6.425v3.214M2563.613 1780.736v3.214h6.427v-3.214M2570.037 1800.019v-3.214h-6.424v3.214M2575.665 1780.736v3.214h6.428v-3.214"/><path class="d" d="m2572.97 1768.472-5.181-3.885a1.607 1.607 0 0 0-1.928 0l-15.278 11.459c12.36.421 19.327-4.564 22.387-7.574ZM2575.808 1800.02a8.846 8.846 0 0 0 10.3 7.085v-2.6l-10.284-4.488Z"/><circle class="e" cx="8.838" cy="8.838" r="8.838" transform="translate(2574.859 1787.164)" style="fill:#fff"/><path class="c" d="M2580.483 1800.019a.8.8 0 0 1-.568-1.372l6.428-6.428a.803.803 0 0 1 1.136 1.136l-6.427 6.428a.8.8 0 0 1-.568.235Z"/><circle class="c" cx="1.607" cy="1.607" r="1.607" transform="translate(2579.679 1791.181)"/><circle class="c" cx="1.607" cy="1.607" r="1.607" transform="translate(2585.304 1796.806)"/></g></svg>
