<svg xmlns="http://www.w3.org/2000/svg" width="35.266" height="32.143"><path d="m95.425 23.239-8.512.945a.608.608 0 0 0-.365 1.034l2.493 2.493-5.706 5.706-9.6-8.54a1.869 1.869 0 0 0-2.357-.14 1.824 1.824 0 0 0-.114 2.822L82.2 37.285a1.824 1.824 0 0 0 2.5-.074l6.919-6.922 2.493 2.493a.608.608 0 0 0 1.034-.365l.945-8.512a.608.608 0 0 0-.671-.668Z" transform="translate(-65.779 -23.235)" style="fill:#1f276c"/><path d="m23.8 288.051 6.063 4.4a1.1 1.1 0 0 0 1.422-.111l3.633-3.624a1.1 1.1 0 0 0 .2-1.283c-2.786-5.489-9.573-9.363-17.51-9.363S2.882 281.943.1 287.432a1.1 1.1 0 0 0 .2 1.286l3.633 3.622a1.1 1.1 0 0 0 1.422.111l6.063-4.4a1.094 1.094 0 0 0 .426-.649l.73-3.3a1.311 1.311 0 0 1 .955-.979 16.511 16.511 0 0 1 8.159 0 1.309 1.309 0 0 1 .955.979l.73 3.3a1.094 1.094 0 0 0 .433.649Z" transform="translate(.028 -260.518)" style="fill:#ea5a0b"/></svg>
