<svg xmlns="http://www.w3.org/2000/svg" width="19.838" height="19.81"><path d="M12.275 12.951a14.74 14.74 0 0 1-3.108-2.405 14.974 14.974 0 0 1-2.42-3.123l2.09-2.116L3.562 0 .963 2.582a3.269 3.269 0 0 0-.637 3.736 28.688 28.688 0 0 0 5.509 7.657 28.688 28.688 0 0 0 7.657 5.509 3.236 3.236 0 0 0 1.417.326 3.28 3.28 0 0 0 2.32-.962l2.587-2.6-5.382-5.391Zm3.859 4.8a1.722 1.722 0 0 1-1.966.338 27.122 27.122 0 0 1-7.238-5.208 27.123 27.123 0 0 1-5.212-7.239 1.72 1.72 0 0 1 .337-1.965l1.5-1.49 3.1 3.123-1.78 1.8.215.482a14.975 14.975 0 0 0 2.979 4.044A14.711 14.711 0 0 0 12.1 14.6l.476.209 1.837-1.779 3.216 3.221ZM14.3 7.286l-3.641-3.64L14.3.005 15.4 1.1l-1.738 1.734h3.847a2.325 2.325 0 0 1 2.325 2.32v4.059h-1.547v-4.06a.777.777 0 0 0-.778-.774h-3.924L15.4 6.193Z" transform="translate(-.001)" style="fill:#fff"/></svg>
