<svg data-name="Group 933" xmlns="http://www.w3.org/2000/svg" width="58.021" height="53.653"><defs><clipPath id="a"><path data-name="Rectangle 339" fill="none" d="M0 0h58.021v53.653H0z"/></clipPath></defs><g data-name="Group 932" clip-path="url(#a)"><path data-name="Path 1458" d="M19.871 8.943h30.8a.994.994 0 0 0 .994-.994V3.975A3.974 3.974 0 0 0 47.692 0H18.341a5.931 5.931 0 0 1 1.53 3.974ZM0 39.743v3.974a3.979 3.979 0 0 0 4.37 3.955 4.1 4.1 0 0 0 3.579-4.132v-4.791H.994a.994.994 0 0 0-.994.994Zm45.7-17.884v-10.93H18.878a.994.994 0 0 1-.994-.994V3.974a3.974 3.974 0 0 0-7.948 0v39.742a5.928 5.928 0 0 1-1.53 3.974H33.78V24.839a2.985 2.985 0 0 1 2.981-2.981Z" fill="#f8bf9d"/><path data-name="Rectangle 334" fill="#282e6a" d="M50.072 45.704h1.987v1.987h-1.987z"/><path data-name="Rectangle 335" fill="#282e6a" d="M42.124 37.756h1.987v1.987h-1.987z"/><path data-name="Rectangle 336" fill="#282e6a" d="M42.124 45.704h1.987v1.987h-1.987z"/><path data-name="Rectangle 337" fill="#282e6a" d="M50.072 37.756h1.987v1.987h-1.987z"/><path data-name="Path 1459" d="M57.028 23.848H37.156a.994.994 0 0 0-.994.994v27.82a.993.993 0 0 0 .994.994h19.871a.994.994 0 0 0 .994-.994v-27.82a.993.993 0 0 0-.993-.994m-16.891 4.969a.993.993 0 0 1 .994-.994h11.923a.994.994 0 0 1 .994.994v3.974a.993.993 0 0 1-.994.994H41.13a.994.994 0 0 1-.994-.994Zm5.962 19.871a.993.993 0 0 1-.994.994h-3.974a.994.994 0 0 1-.994-.994v-3.974a.993.993 0 0 1 .994-.994h3.974a.994.994 0 0 1 .994.994Zm0-7.949a.993.993 0 0 1-.994.994h-3.974a.994.994 0 0 1-.994-.994v-3.974a.993.993 0 0 1 .994-.994h3.974a.994.994 0 0 1 .994.994Zm7.949 7.949a.993.993 0 0 1-.994.994H49.08a.994.994 0 0 1-.994-.994v-3.974a.993.993 0 0 1 .994-.994h3.974a.994.994 0 0 1 .994.994Zm0-7.949a.993.993 0 0 1-.994.994H49.08a.994.994 0 0 1-.994-.994v-3.974a.993.993 0 0 1 .994-.994h3.974a.994.994 0 0 1 .994.994Z" fill="#e55e26"/><path data-name="Rectangle 338" fill="#282e6a" d="M42.124 29.807h9.936v1.987h-9.936z"/></g></svg>
