<svg xmlns="http://www.w3.org/2000/svg" width="58.058" height="57.974"><path d="m51.812 28.995 2.866-1.147a5.437 5.437 0 0 0 3.025-6.942L51.015 3.455A5.4 5.4 0 0 0 44.041.366l-.127.064-33.5 13.884a5.405 5.405 0 0 0-2.994 6.878l1.337 3.6 2.261 6.21h33.979Z" fill="#fdd7c6"/><path d="m16.146 24.792-2.134-5.286 8.47-4.235 2.134 5.286Z" fill="#e55e26"/><g fill="#282e6a"><path d="m41.188 19.641 9.52-4.235.8 1.815-9.522 4.235ZM34.819 17.508l13.79-6.369.828 1.815-13.789 6.369Z"/></g><path d="M5.255 24.983h42.481a5.26 5.26 0 0 1 5.255 5.254V52.72a5.26 5.26 0 0 1-5.255 5.255H5.255A5.26 5.26 0 0 1 0 52.72V30.237a5.26 5.26 0 0 1 5.255-5.254Z" fill="#f8bf9d"/><path d="M37.994 54.974a6 6 0 1 1 5.987-6.018 5.987 5.987 0 0 1-5.987 6.018Zm0-10a4.012 4.012 0 1 0 3.981 4.012 3.968 3.968 0 0 0-3.981-4.012Z" fill="#282e6a"/><path d="M43.981 54.973a5.987 5.987 0 1 1 5.987-5.987 5.96 5.96 0 0 1-5.987 5.987Zm0-10a4.012 4.012 0 1 0 3.98 4.012 3.949 3.949 0 0 0-3.98-4.012Z" fill="#282e6a"/><path d="M0 30.994h52.958v7.993H0Z" fill="#e55e26"/></svg>
