<svg xmlns="http://www.w3.org/2000/svg" width="14.009" height="14"><g data-name="Group 625"><path data-name="Path 1021" d="m13.445 10.749-2.587-1.831a1.32 1.32 0 0 0-1.034-.269 1.127 1.127 0 0 0-.667.413l-.7.7a.559.559 0 0 1-.3.159 20.053 20.053 0 0 1-4.066-4.05.559.559 0 0 1 .159-.3l.7-.7a1.127 1.127 0 0 0 .413-.667 1.32 1.32 0 0 0-.27-1.032L3.267.572a1.108 1.108 0 0 0-.794-.556 1.23 1.23 0 0 0-1.1.492A4.638 4.638 0 0 0 .168 2.66C-.42 4.931.644 7.186 1.645 8.679a15.808 15.808 0 0 0 1.684 2.017 14.946 14.946 0 0 0 1.811 1.541A8.651 8.651 0 0 0 10.016 14a5.083 5.083 0 0 0 1.286-.159 4.546 4.546 0 0 0 2.208-1.223 1.23 1.23 0 0 0 .492-1.1 1.072 1.072 0 0 0-.557-.769Zm-.858 1c-.1.111-2.319 2.494-6.718-.572a12.076 12.076 0 0 1-1.636-1.382 13.266 13.266 0 0 1-1.524-1.846c-2.875-4.288-.556-6.448-.445-6.543l.048-.032 1.746 2.509c.016.016.016.016.016.032l-.73.734a1.844 1.844 0 0 0-.54 1.239c0 .206-.016.762 2.255 3.034 2.287 2.3 2.827 2.287 3.049 2.271a1.813 1.813 0 0 0 1.24-.544l.731-.731c.016 0 .016.016.032.032l2.509 1.763Z" fill="#24305E"/></g></svg>
