<svg data-name="Group 927" xmlns="http://www.w3.org/2000/svg" width="75.054" height="68.781"><defs><clipPath id="a"><path data-name="Rectangle 331" fill="none" d="M0 0h75.054v68.781H0z"/></clipPath></defs><g data-name="Group 926" clip-path="url(#a)"><path data-name="Path 1448" d="M8.222 8.869a1.279 1.279 0 0 0-.421 2.346 1.763 1.763 0 0 0 .892.255 1.7 1.7 0 0 0 .739-.166A2.868 2.868 0 0 0 10.8 8.869a3.926 3.926 0 0 0-1.084-3.544 2.383 2.383 0 0 1-.127-1.275v-.264a1.278 1.278 0 0 0 .421-2.345 1.657 1.657 0 0 0-1.593-.038 2.828 2.828 0 0 0-1.364 2.371 3.926 3.926 0 0 0 1.083 3.544 2.382 2.382 0 0 1 .124 1.268 3.052 3.052 0 0 1-.038.281Z" fill="#e55e26"/><path data-name="Path 1449" d="M13.32 8.871a1.279 1.279 0 0 0-.421 2.346 1.763 1.763 0 0 0 .892.255 1.7 1.7 0 0 0 .739-.166 2.868 2.868 0 0 0 1.368-2.435 3.926 3.926 0 0 0-1.084-3.544 2.384 2.384 0 0 1-.127-1.275v-.267a1.278 1.278 0 0 0 .421-2.345 1.656 1.656 0 0 0-1.631-.077 2.831 2.831 0 0 0-1.33 2.408 3.926 3.926 0 0 0 1.084 3.544 2.382 2.382 0 0 1 .127 1.275 3.474 3.474 0 0 1-.038.281Z" fill="#e55e26"/><path data-name="Path 1450" d="M56.087 24.167h-6.373v-7.9a3.583 3.583 0 0 0-3.569-3.569H27.789a3.583 3.583 0 0 0-3.569 3.569v7.9H12.377a5.723 5.723 0 0 0 5.469-5.825v-4.375H5.1v4.372a5.723 5.723 0 0 0 5.468 5.828h-8.4A2.166 2.166 0 0 0 0 26.331v.765a2.166 2.166 0 0 0 2.167 2.171h1.657v37.32a2.18 2.18 0 0 0 2.167 2.193h.765a2.18 2.18 0 0 0 2.167-2.193v-37.32h15.3v7.9a3.583 3.583 0 0 0 3.569 3.569h5.354v2.549h-6.377a2.55 2.55 0 1 0 0 5.1h.918L22.945 67.2a1.275 1.275 0 0 0 .944 1.581h.331a1.275 1.275 0 0 0 1.275-.93l4.818-19.464h13.308l4.818 19.464a1.275 1.275 0 0 0 1.275.93h.331a1.275 1.275 0 0 0 .943-1.581l-4.742-18.815h.918a2.55 2.55 0 1 0 0-5.1h-6.373v-2.549h5.354a3.583 3.583 0 0 0 3.569-3.569v-7.9h15.3v37.32a2.18 2.18 0 0 0 2.167 2.193h.765a2.18 2.18 0 0 0 2.167-2.193v-37.32h1.657a2.166 2.166 0 0 0 2.167-2.167v-.765a2.166 2.166 0 0 0-2.171-2.168h-10.58" fill="#f8bf9d"/><path data-name="Path 1451" d="M62.307 24.219V20.4h10.72a2.026 2.026 0 0 0 2.027-2.027V2.027A2.026 2.026 0 0 0 73.027 0H46.488a2.026 2.026 0 0 0-2.022 2.027V10.2h2.8a6.118 6.118 0 0 1 6.119 6.119V20.4h3.824v3.824" fill="#282e6a"/></g></svg>
