<svg data-name="Group 925" xmlns="http://www.w3.org/2000/svg" width="59.508" height="67.846"><defs><clipPath id="a"><path data-name="Rectangle 330" fill="none" d="M0 0h59.508v67.846H0z"/></clipPath></defs><g data-name="Group 924" clip-path="url(#a)"><path data-name="Path 1442" d="M31.12 20.863a14.262 14.262 0 1 1-14.262 14.262A14.262 14.262 0 0 1 31.12 20.863" fill="#e55e26"/><path data-name="Path 1443" d="M10.743 32.266h38.025v-2.813h-2.706V6.287l2.587.015L42.369 0l-6.208 6.227 2.587.016v23.21h-5.174V13.176l2.587.015-6.281-6.255-6.208 6.182 2.587.015v16.32h-5.234V18.376l2.587.015L17.33 12.1l-6.211 6.218 2.587.015v11.12h-2.963Z" fill="#e55e26"/><path data-name="Path 1444" d="M35.192 28.332h-8.145a.815.815 0 1 1 0-1.629h8.145a.815.815 0 0 1 0 1.629" fill="#282e6a"/><path data-name="Path 1445" d="M35.192 32.404h-8.145a.814.814 0 1 1 0-1.629h8.145a.814.814 0 1 1 0 1.629" fill="#282e6a"/><path data-name="Path 1446" d="M33.563 42.992a.815.815 0 0 1-.578-.236l-6.516-6.516a.819.819 0 0 1 .578-1.393h1.629a3.258 3.258 0 1 0 0-6.516h-1.629a.815.815 0 1 1 0-1.629h1.629a4.89 4.89 0 1 1 .326 9.774l5.14 5.131a.806.806 0 0 1-.578 1.385Z" fill="#282e6a"/><path data-name="Path 1447" d="M52.811 48.529c-.251-5.7-5.7-3.649-5.7-3.649a.125.125 0 0 1-.148-.071c-1.345-4.573-6.636-1.973-6.636-1.973l-7.878 4.557c.532.05 1.1.1 1.7.136q.55.037 1.049.107a8.312 8.312 0 0 1 2.6.741 3.639 3.639 0 0 1 1.829 1.851 3.069 3.069 0 0 1 .229 1.234 4.235 4.235 0 0 1-1.207 2.739 7.278 7.278 0 0 1-.169.186 11.734 11.734 0 0 1-4.085 2.646 19.558 19.558 0 0 1-7.336 1.39 20.251 20.251 0 0 1-5.233-.683l-1.055-.281a.14.14 0 0 1-.1-.135v-1.383a.14.14 0 0 1 .188-.132c12.366 4.343 23.934-6 13.19-6.723-10.779-.728-11.292-3.134-11.313-3.453a.147.147 0 0 0-.023-.07c-6.455-9.98-21.323.862-22.655 1.862a.139.139 0 0 0-.039.178l.592 1.1L7.3 61.135l1.032 1.918a.137.137 0 0 0 .167.067 9.409 9.409 0 0 0 2.444-1.539c1.744-1.4 3.437-1.333 5.359-.272 3.335 1.846 6.783 3.484 10.144 5.285a13.271 13.271 0 0 0 2.185.944h.015a12.759 12.759 0 0 0 7.033-.435 12.6 12.6 0 0 0 3.426-1.776l.01-.006 17.8-11.708a8.217 8.217 0 0 0 1.858-1.694c1.14-1.491.842-2.787-.1-3.619a4.5 4.5 0 0 0-5.753.126" fill="#f8bf9d"/></g></svg>
