<svg data-name="Group 938" xmlns="http://www.w3.org/2000/svg" width="65.829" height="51.27"><defs><clipPath id="a"><path data-name="Rectangle 345" fill="none" d="M0 0h65.829v51.27H0z"/></clipPath></defs><g data-name="Group 937" clip-path="url(#a)"><path data-name="Path 1466" d="M58.82 25.502a40.018 40.018 0 0 0-2.726-.082c-.268 0-.535 0-.8.011l.041 20.944H40.879v1.481a.891.891 0 0 1-.885.885H23.917a.894.894 0 0 1-.9-.885v-1.481H8.579V18.486l20.686-.031a.454.454 0 0 1 .031-.113 3.568 3.568 0 0 1 1.851-2.016l3-1.4H8.641a3.543 3.543 0 0 0-3.541 3.56v27.887H0v1.934a2.954 2.954 0 0 0 2.952 2.962h58.007a2.961 2.961 0 0 0 2.952-2.962v-1.934h-5.092Z" fill="#f8bf9d"/><rect data-name="Rectangle 344" width="11.446" height="13.348" rx="2" transform="translate(10.848 20.928)" fill="#282e6a"/><path data-name="Path 1467" d="M11.769 42.034h41.26a.938.938 0 0 0 .926-.936.927.927 0 0 0-.926-.916h-6.943l-1.831.854a2.672 2.672 0 0 1-3.312-.854H11.769a.917.917 0 0 0-.916.916.929.929 0 0 0 .916.936Z" fill="#282e6a"/><path data-name="Path 1468" d="M10.853 36.519a.917.917 0 0 0 .916.916h27.836l-.854-1.841H11.769a.92.92 0 0 0-.916.926Z" fill="#282e6a"/><path data-name="Path 1469" d="M53.029 35.594h-4.845l.247.525a2.64 2.64 0 0 1 .247 1.316h4.351a.921.921 0 1 0 0-1.841Z" fill="#282e6a"/><path data-name="Path 1470" d="M25.892 32.848h11.583l-.411-.874a2.443 2.443 0 0 1-.278.011 3.537 3.537 0 0 1-2.438-.967h-8.455a.915.915 0 1 0 0 1.831Z" fill="#282e6a"/><path data-name="Path 1471" d="M53.029 31.016h-5.637a2.348 2.348 0 0 1-.165.875 2.567 2.567 0 0 1-.422.751l.1.205h6.121a.915.915 0 1 0 0-1.831Z" fill="#282e6a"/><path data-name="Path 1472" d="M25.893 28.258h6.872l-.854-1.841h-6.018a.921.921 0 0 0 0 1.841Z" fill="#282e6a"/><path data-name="Path 1473" d="M53.028 26.419h-6.926l-.319.062a4.259 4.259 0 0 1-.165.6c-.021.062-.051.124-.072.185a2.557 2.557 0 0 1 .833 1h6.645a.921.921 0 1 0 0-1.842Z" fill="#282e6a"/><path data-name="Path 1474" d="M25.893 23.672h4.732l-.854-1.841h-3.878a.921.921 0 0 0 0 1.841Z" fill="#282e6a"/><path data-name="Path 1475" d="M64.642 9.785a4.541 4.541 0 0 0-4.228-2.623l3.508 7.54a4.531 4.531 0 0 0 .72-4.917Z" fill="#282e6a"/><path data-name="Path 1476" d="M65.732 23.445 55.086.588a1.015 1.015 0 1 0-1.841.854l.185.391a52.926 52.926 0 0 1-12.087 13.578.408.408 0 0 1 .051.092l4.115 8.836a.318.318 0 0 1 .031.092 52.642 52.642 0 0 1 18.176-.514l.175.381a1.015 1.015 0 1 0 1.842-.854Z" fill="#e55e26"/><path data-name="Path 1477" d="m31.283 20.205 4.118 8.84a1.52 1.52 0 0 0 2.016.741l.738-.344 4.381 9.422a.639.639 0 0 0 .843.308l2.88-1.337a.651.651 0 0 0 .308-.854l-2.376-5.1.823-.391a.547.547 0 0 0 .268-.72l-.771-1.646a.541.541 0 0 0-.72-.267l-.833.391-.782-1.677-.512.238 1.25-.582a1.52 1.52 0 0 0 .729-2.02l-4.118-8.84a1.513 1.513 0 0 0-2.012-.733l-5.5 2.561a1.512 1.512 0 0 0-.732 2.012Z" fill="#e55e26"/></g></svg>
