<svg xmlns="http://www.w3.org/2000/svg" width="70" height="70"><defs><clipPath id="a"><path data-name="Rectangle 347" fill="none" d="M0 0h26.452v35.005H0z"/></clipPath></defs><g data-name="Group 1234"><g data-name="Ellipse 67" fill="none" stroke="#1f3c66" opacity=".2"><circle cx="35" cy="35" r="35" stroke="none"/><circle cx="35" cy="35" r="34.5"/></g><g data-name="Group 940"><g data-name="Group 939" clip-path="url(#a)" transform="translate(21.774 17.498)"><path data-name="Path 1482" d="m24.4 26.48-6.508-2.367-4.667 1.556-4.668-1.556-6.508 2.367A3.111 3.111 0 0 0 0 29.403v4.821a.78.78 0 0 0 .78.78h24.892a.78.78 0 0 0 .78-.78v-4.821a3.112 3.112 0 0 0-2.053-2.924" fill="#f26724"/><path data-name="Path 1483" d="m12.409 27.225-.741 7.778h3.111l-.741-7.778Z" fill="#283372"/><path data-name="Path 1484" d="M14.04 28.294h-1.633a.544.544 0 0 1-.544-.544v-2.08h2.722v2.08a.544.544 0 0 1-.544.544Z" fill="#283372"/><path data-name="Path 1485" d="M21.78 8.072V1.556A1.556 1.556 0 0 0 20.224 0H10.89a6.222 6.222 0 0 0-6.222 6.222v1.849a7.778 7.778 0 0 0 .4 2.461l.259.776a2.334 2.334 0 0 1 .12.738v.4h15.551v-.4a2.333 2.333 0 0 1 .12-.738l.259-.776a7.771 7.771 0 0 0 .4-2.46" fill="#283372"/><path data-name="Rectangle 346" fill="#f7be9d" d="M8.557 18.669h9.334v7H8.557z"/><path data-name="Path 1486" d="M8.557 21.298a9.28 9.28 0 0 0 9.333 0v-2.63H8.557Z" fill="#d29b6e"/><path data-name="Path 1487" d="m13.221 25.668-2.481 2.481a.78.78 0 0 1-1.1 0 .747.747 0 0 1-.066-.076l-2.572-3.389.673-1.418a.78.78 0 0 1 1.041-.367.8.8 0 0 1 .07.038Z" fill="#f58355"/><path data-name="Path 1488" d="m13.223 25.668 2.481 2.481a.78.78 0 0 0 1.1 0 .745.745 0 0 0 .066-.076l2.572-3.389-.673-1.418a.78.78 0 0 0-1.041-.367.73.73 0 0 0-.07.038Z" fill="#f58355"/><path data-name="Path 1489" d="M13.224 21.002a7.779 7.779 0 0 1-7.779-7.778v-.911a1.556 1.556 0 0 1 .455-1.1l.644-.644a1.556 1.556 0 0 0 .455-1.1V7.604a.771.771 0 0 1 .593-.755c1.839-.435 7.562-1.464 11.463 1.4a1 1 0 0 1 .393.805v.414a1.556 1.556 0 0 0 .455 1.1l.644.644a1.556 1.556 0 0 1 .455 1.1v.911a7.778 7.778 0 0 1-7.778 7.778" fill="#f7be9d"/></g></g></g></svg>
