<svg xmlns="http://www.w3.org/2000/svg" width="70" height="70"><g data-name="Group 1233"><g data-name="Ellipse 65" fill="none" stroke="#1f3c66" opacity=".2"><circle cx="35" cy="35" r="35" stroke="none"/><circle cx="35" cy="35" r="34.5"/></g><path data-name="Path 1478" d="M38.569 40.083a.885.885 0 0 0-.815.4l-2.757 4.297-2.759-4.3a.852.852 0 0 0-.815-.4c-5.738.607-9.43 2.566-9.43 5.009 0 3.38 6.691 5.2 13 5.2s13-1.82 13-5.2c.004-2.441-3.687-4.4-9.424-5.006Z" fill="#1f276c"/><path data-name="Path 1479" d="M47.997 45.091c0 3.38-6.691 5.2-13 5.2v-5.516l2.756-4.3a.885.885 0 0 1 .815-.4c5.738.614 9.429 2.573 9.429 5.016Z" fill="#1f276c"/><path data-name="Path 1480" d="M34.997 20.708a9.528 9.528 0 0 0-7.745 15.081L34.27 46.86a.864.864 0 0 0 1.456 0l7.055-11.105a9.538 9.538 0 0 0-7.784-15.047Zm0 13.867a4.334 4.334 0 1 1 4.334-4.334 4.334 4.334 0 0 1-4.334 4.334Z" fill="#ea5a0b"/><path data-name="Path 1481" d="M34.997 20.708v5.2a4.335 4.335 0 0 1 0 8.669v12.682a.837.837 0 0 0 .728-.4l7.055-11.106a9.538 9.538 0 0 0-7.783-15.045Z" fill="#ea5a0b"/></g></svg>
