<svg xmlns="http://www.w3.org/2000/svg" width="70" height="70"><defs><clipPath id="a"><path data-name="Rectangle 1225" fill="none" d="M0 0h36.601v33.399H0z"/></clipPath></defs><g data-name="Group 1235"><g data-name="Ellipse 67" fill="none" stroke="#1f3c66" opacity=".2"><circle cx="35" cy="35" r="35" stroke="none"/><circle cx="35" cy="35" r="34.5"/></g><g data-name="Group 1199"><path data-name="Rectangle 1223" fill="#e4e4e3" d="M20.671 18h25.518v32.561H20.671z"/><path data-name="Rectangle 1224" fill="#969595" d="M23.803 23.276h19.254v2.484H23.803z"/><g data-name="Group 1197"><g data-name="Group 1196" clip-path="url(#a)" transform="translate(17 18)"><path data-name="Path 2461" d="M25.436 9.624H7.424a.621.621 0 0 0 0 1.242h18.012a.621.621 0 1 0 0-1.242" fill="#969595"/><path data-name="Path 2462" d="M25.436 12.108H7.424a.621.621 0 0 0 0 1.242h18.012a.621.621 0 1 0 0-1.242" fill="#969595"/><path data-name="Path 2463" d="M25.436 14.593H7.424a.621.621 0 0 0 0 1.242h18.012a.621.621 0 1 0 0-1.242" fill="#969595"/><path data-name="Path 2464" d="M25.435 17.077h-8.7a.621.621 0 0 0 0 1.242h8.7a.621.621 0 1 0 0-1.242" fill="#969595"/><path data-name="Path 2465" d="m5.381 20.338-2.835.638a.534.534 0 0 1-.638-.4l-.1-.427a.534.534 0 0 1 .4-.638l2.835-.638a.534.534 0 0 1 .638.4l.1.427a.533.533 0 0 1-.4.638" fill="#1a2851"/><path data-name="Path 2466" d="m4.512 28.326-2.181-6.5a.752.752 0 0 1 .569-.9l2.145-.483a.752.752 0 0 1 .9.569l.813 6.807a.752.752 0 0 1-.569.9l-.778.175a.752.752 0 0 1-.9-.569" fill="#f38342"/><path data-name="Path 2467" d="m7.381 22.991-5.5 1.238a1.341 1.341 0 0 1-1.6-1.014l-.248-1.072a1.341 1.341 0 0 1 1.014-1.6l5.5-1.238a1.342 1.342 0 0 1 1.6 1.014l.241 1.073a1.341 1.341 0 0 1-1.014 1.6" fill="#f38342"/><path data-name="Path 2468" d="m7.894 22.876-6.529 1.469a.816.816 0 0 1-.975-.617l-.147-.653A.816.816 0 0 1 .86 22.1l6.529-1.469a.816.816 0 0 1 .975.617l.147.653a.816.816 0 0 1-.617.975" fill="#ef6925"/><path data-name="Path 2469" d="m7.428 29.429-2.835.638a.534.534 0 0 1-.638-.4l-.1-.427a.534.534 0 0 1 .4-.638l2.835-.638a.534.534 0 0 1 .638.4l.1.427a.533.533 0 0 1-.4.638" fill="#ef6925"/><path data-name="Path 2470" d="M11.531 31.154 1.622 33.38a.752.752 0 0 1-.9-.569l-.149-1.729a.752.752 0 0 1 .569-.9l9.454-2.127a.752.752 0 0 1 .9.569l.604 1.63a.752.752 0 0 1-.569.9" fill="#1a2851"/><path data-name="Path 2471" d="M30.025 2.683a6.576 6.576 0 1 1-6.576 6.576 6.576 6.576 0 0 1 6.576-6.576" fill="#ef6925"/><path data-name="Path 2472" d="M30.024 3.358a5.9 5.9 0 1 1-5.9 5.9 5.9 5.9 0 0 1 5.9-5.9" fill="#26306a"/><path data-name="Path 2473" d="M30.016 12.046a.486.486 0 0 0 .485-.479l.029-4.619a.488.488 0 0 0-.975-.006l-.029 4.619a.5.5 0 0 0 .49.485" fill="#fff"/><path data-name="Path 2474" d="M27.233 9.243a.486.486 0 0 0 .479.485l4.619.032a.488.488 0 0 0 .007-.975l-4.619-.032a.5.5 0 0 0-.486.49" fill="#fff"/></g></g></g></g></svg>
