<svg xmlns="http://www.w3.org/2000/svg" width="70" height="70"><g data-name="Group 1232"><g data-name="Ellipse 66" fill="none" stroke="#1f3c66" opacity=".2"><circle cx="35" cy="35" r="35" stroke="none"/><circle cx="35" cy="35" r="34.5"/></g><g data-name="Group 949"><g data-name="Group 942"><path data-name="Path 1490" d="M45.945 42.937V23.701h-23.42l-.535.83v18.406a1.162 1.162 0 0 0 1.162 1.162h21.631a1.162 1.162 0 0 0 1.162-1.162Z" fill="#ff8657"/><path data-name="Path 1491" d="M45.464 23.701v19.236a1.162 1.162 0 0 1-1.162 1.162h3.87a1.162 1.162 0 0 0 1.162-1.162V24.531l-.533-.83h-3.338Z" fill="#F76C6C"/><path data-name="Path 1492" d="M45.945 21.05a1.162 1.162 0 0 0-1.162-1.162H23.154a1.162 1.162 0 0 0-1.164 1.162v3.481h23.955Z" fill="#24305E"/><path data-name="Path 1493" d="M48.173 19.888h-3.87a1.162 1.162 0 0 1 1.162 1.162v3.481h3.87V21.05a1.162 1.162 0 0 0-1.162-1.162Z" fill="#24305E"/><g data-name="Group 941"><path data-name="Path 1494" d="M42.367 33.585a.653.653 0 0 0-.655-.651.652.652 0 0 1-.619-.441 5.7 5.7 0 0 0-.3-.706.651.651 0 0 1 .122-.75.653.653 0 0 0 0-.923l-1.052-1.045a.653.653 0 0 0-.923 0 .652.652 0 0 1-.749.127 5.685 5.685 0 0 0-.708-.29.652.652 0 0 1-.445-.617.653.653 0 0 0-.655-.651l-1.483.005a.653.653 0 0 0-.651.655.652.652 0 0 1-.441.619 5.7 5.7 0 0 0-.706.3.651.651 0 0 1-.75-.122.653.653 0 0 0-.923 0l-1.047 1.055a.653.653 0 0 0 0 .923.652.652 0 0 1 .127.749 5.682 5.682 0 0 0-.29.708.652.652 0 0 1-.617.445.653.653 0 0 0-.651.655l.005 1.483a.653.653 0 0 0 .655.651.652.652 0 0 1 .619.441 5.705 5.705 0 0 0 .3.706.651.651 0 0 1-.122.75.653.653 0 0 0 0 .923l1.052 1.045a.653.653 0 0 0 .923 0 .652.652 0 0 1 .749-.127 5.691 5.691 0 0 0 .708.29.652.652 0 0 1 .445.617.653.653 0 0 0 .655.651l1.483-.005a.653.653 0 0 0 .651-.655.652.652 0 0 1 .441-.619 5.694 5.694 0 0 0 .706-.3.651.651 0 0 1 .75.122.653.653 0 0 0 .923 0l1.045-1.052a.653.653 0 0 0 0-.923.652.652 0 0 1-.127-.749 5.692 5.692 0 0 0 .29-.708.652.652 0 0 1 .617-.445.653.653 0 0 0 .651-.655ZM37.79 36.46a3 3 0 1 1-.015-4.237 3 3 0 0 1 .015 4.237Z" fill="#fff"/></g></g><g data-name="Group 945"><g data-name="Group 944"><g data-name="Group 943"><path data-name="Path 1495" d="M23.099 46.651a11.366 11.366 0 0 0 1.058-1.032 2.056 2.056 0 0 1 1.23-.653 4.3 4.3 0 0 0 2.388-1.183l3.532-3.453a.213.213 0 0 0 0-.3.312.312 0 0 0 .013-.014 1.039 1.039 0 0 0-.045-1.487 1.056 1.056 0 0 0-1.456.048l-.709.709a1.04 1.04 0 0 0-.027-1.5 1.056 1.056 0 0 0-1.461.044l-.407.407a1.04 1.04 0 0 0-.027-1.5 1.056 1.056 0 0 0-1.461.044l-2.384 2.384a4.168 4.168 0 0 0-.923 1.4l-.854 2.105a3.34 3.34 0 0 1-.733 1.107l-.3.3Z" fill="#ffddce"/><path data-name="Path 1496" d="M35.966 38.311a1.04 1.04 0 0 0 .058-1.408 1.052 1.052 0 0 0-1.552-.04l-3.163 3.163c.386-.386-3.685 3.6-3.685 3.6a4.169 4.169 0 0 1-2.358 1.179h-.032a2.056 2.056 0 0 0-1.23.653l-.942.942a.652.652 0 0 1-.116.092l2.119 2.119a4.168 4.168 0 0 1 2.148-.986l.763-.109a4.172 4.172 0 0 0 2.358-1.18l2.142-2.142a1.059 1.059 0 0 0 .062-1.448 1.036 1.036 0 0 0-.671-.341V42.4Z" fill="#ffcbbe"/></g><path data-name="Path 1497" d="M23.099 46.651a11.358 11.358 0 0 0 1.058-1.032l-2.678-2.678a.65.65 0 0 0-.92 0l-.482.482a.65.65 0 0 0 0 .92l2.219 2.219a.651.651 0 0 0 .8.089Z" fill="#24305E"/><path data-name="Path 1498" d="m26.281 47.74-2.272-2.275-.942.942a.65.65 0 0 1-.92 0l2.735 2.735a.65.65 0 0 0 .92 0l.482-.482a.65.65 0 0 0 0-.92Z" fill="#24305E"/></g></g><g data-name="Group 948"><g data-name="Group 946"><path data-name="Path 1499" d="M38.512 22.756h-13.39a.445.445 0 1 1 0-.889h13.389a.445.445 0 1 1 0 .889Z" fill="#f2f9ff"/></g><g data-name="Group 947" transform="translate(41.923 21.763)" fill="#f2f9ff"><circle data-name="Ellipse 69" cx=".446" cy=".446" r=".446"/><circle data-name="Ellipse 70" cx=".446" cy=".446" r=".446" transform="translate(1.942)"/><circle data-name="Ellipse 71" cx=".446" cy=".446" r=".446" transform="translate(3.885)"/></g></g></g></g></svg>
