<svg data-name="Group 931" xmlns="http://www.w3.org/2000/svg" width="60.114" height="71.084"><defs><clipPath id="a"><path data-name="Rectangle 333" fill="none" d="M0 0h60.114v71.084H0z"/></clipPath></defs><g data-name="Group 930" clip-path="url(#a)"><path data-name="Path 1455" d="m46.061 49.432-8.376 2.542v.673a5.329 5.329 0 0 1-4.263 4.861l-.374.075a51.469 51.469 0 0 1-9.572 1.121l-2.618.075a1.648 1.648 0 0 1-1.121-.449 1.477 1.477 0 0 1-.449-1.047 1.522 1.522 0 0 1 .449-1.121 1.477 1.477 0 0 1 1.047-.449l2.692-.075a49.869 49.869 0 0 0 8.75-1.047l.524-.075a2.3 2.3 0 0 0 1.87-2.094 2.3 2.3 0 0 0-2.17-2.397l-13.61-.673a6.869 6.869 0 0 0-4.188 1.2L1.041 61.025a.888.888 0 0 0-.075 1.346l8.451 8.451a.909.909 0 0 0 1.2.075l3.739-2.842a2.91 2.91 0 0 1 1.72-.524l10.245 1.047a7.6 7.6 0 0 0 5.459-1.571l16.751-12.863a2.663 2.663 0 0 0 1.047-1.944 2.8 2.8 0 0 0-.748-2.094 2.854 2.854 0 0 0-2.767-.672Z" fill="#f8bf9d"/><path data-name="Path 1456" d="M59.223 41.803H.893a.9.9 0 0 0-.6 1.571l2.469 2.389a.849.849 0 0 0 .6.224h53.393a.85.85 0 0 0 .6-.224l2.468-2.393a.9.9 0 0 0-.6-1.571Z" fill="#e55e26"/><path data-name="Path 1457" d="M16.895 27.221c3.44 0 6.431-2.468 7.478-6.207a1.45 1.45 0 0 0-.15-1.121l-4.786-9.5 5.758.075a5.552 5.552 0 0 0 2.318 2.767v14.21a5.925 5.925 0 0 1-5.31 5.908l-4.711.524a1.048 1.048 0 0 0-.9 1.047v2.318a1.022 1.022 0 0 0 1.047 1.047h25.056a1.022 1.022 0 0 0 1.047-1.047v-2.468a1.048 1.048 0 0 0-.9-1.047l-4.936-.449a5.867 5.867 0 0 1-5.31-5.908V13.162a5.311 5.311 0 0 0 2.322-2.762l5.758-.075-4.786 9.5a1.961 1.961 0 0 0-.15 1.122c1.047 3.814 3.964 6.207 7.478 6.207 3.44 0 6.431-2.468 7.478-6.207a1.451 1.451 0 0 0-.15-1.122l-6.132-12.19a1.205 1.205 0 0 0-1.047-.748l-8.372.067a5.555 5.555 0 0 0-2.4-2.841V2.542a2.542 2.542 0 0 0-5.085 0v1.571a4.947 4.947 0 0 0-2.315 2.767l-8.375-.075a1.308 1.308 0 0 0-1.121.748L9.566 19.817a1.961 1.961 0 0 0-.15 1.122c1.122 3.814 4.039 6.282 7.479 6.282Zm30.287-7.852h-7.927l3.964-7.927Zm-30.287-7.927 3.963 7.927h-7.926Z" fill="#282e6a"/></g></svg>
