<svg data-name="Group 936" xmlns="http://www.w3.org/2000/svg" width="70" height="70.627"><defs><clipPath id="a"><path data-name="Rectangle 343" fill="none" d="M0 0h70v70.627H0z"/></clipPath></defs><path data-name="Rectangle 340" fill="#282e6a" d="M33.121 0h2.682v7.393h-2.682z"/><path data-name="Path 1460" d="m50.193 5.956-5.23 5.229 1.9 1.895 5.229-5.225Z" fill="#282e6a"/><path data-name="Path 1461" d="m18.734 5.956-1.9 1.9 5.229 5.225 1.9-1.895Z" fill="#282e6a"/><path data-name="Rectangle 341" fill="#282e6a" d="M10.873 22.249h7.393v2.677h-7.393z"/><path data-name="Rectangle 342" fill="#282e6a" d="M50.659 22.249h7.388v2.677h-7.388z"/><g data-name="Group 935"><g data-name="Group 934" clip-path="url(#a)" fill-rule="evenodd"><path data-name="Path 1462" d="M13.6 34.941a13.424 13.424 0 0 0-11.8 6.76 13.59 13.59 0 0 0 2.137 16.326c3.412 3.435 3.412 7.134 3.412 12.6h13.7v-5.494l5.825-3.019v-6.1l2.617-2.447-2.617-5.1A13.461 13.461 0 0 0 13.6 34.941Z" fill="#f8bf9d"/><path data-name="Path 1463" d="M56.398 34.941a13.419 13.419 0 0 1 11.8 6.76 13.587 13.587 0 0 1-2.132 16.326c-3.413 3.435-3.413 7.134-3.413 12.6h-13.7v-5.494l-5.826-3.019v-6.1l-2.622-2.447 2.622-5.1a13.462 13.462 0 0 1 13.27-13.525Z" fill="#f8bf9d"/><path data-name="Path 1464" d="M34.464 13.322a10.816 10.816 0 0 1 10.006 6.732 10.983 10.983 0 0 1-2.345 11.9l-2.579 2.594h-4.074v-7.089a4.589 4.589 0 0 0 1.244-.476 4.449 4.449 0 0 0 2.276-3.866h-2.011a2.44 2.44 0 0 1-1.249 2.118 2.6 2.6 0 0 1-2.535 0 2.439 2.439 0 0 1-1.247-2.118h-2.017a4.462 4.462 0 0 0 2.275 3.866 4.7 4.7 0 0 0 1.249.476v7.092h-4.073l-2.581-2.6a10.97 10.97 0 0 1-2.345-11.9 10.816 10.816 0 0 1 10.006-6.731Z" fill="#e55e26"/><path data-name="Path 1465" d="M29.928 36.559h9.067v2.937l-2.2 1.9-.082.283a2.389 2.389 0 0 1-2.173 1.623 2.182 2.182 0 0 1-2.349-1.669l-.084-.259-2.181-1.872v-2.937Z" fill="#282e6a"/></g></g></svg>
