<svg data-name="Group 923" xmlns="http://www.w3.org/2000/svg" width="59.314" height="69.162"><defs><clipPath id="a"><path data-name="Rectangle 329" fill="none" d="M0 0h59.314v69.162H0z"/></clipPath></defs><g data-name="Group 922" clip-path="url(#a)"><path data-name="Path 1437" d="M18.82 1.763A17.627 17.627 0 1 1 1.193 19.39 17.627 17.627 0 0 1 18.82 1.763" fill="#e55e26"/><path data-name="Path 1438" d="M9.527 36.254A19.488 19.488 0 0 1 0 19.389C0 8.681 8.426 0 18.821 0a19.048 19.048 0 0 1 18.737 17.553q.651-.394 1.322-.772c5.716-3.193 12.271-6.331 18.26-7.086 1.534-.193 2.054-.014 2.167.735a11.911 11.911 0 0 1-.113 1.627c-.593 4.965-3.447 11.613-5.548 16a51.449 51.449 0 0 1-9.07 13.391l-1.887 2.026-.093.742a25.819 25.819 0 0 1-2.315 7.3 29.017 29.017 0 0 1-4.909 7.1 37.75 37.75 0 0 1-12.2 8.66c-1.54.721-1.92.769-2.361.316-.42-.432-.374-.865.18-1.737a33.222 33.222 0 0 0 4.244-9.355l.187-.988-1.334 1.3c-1.4 1.359-7.442 4.395-7.942 4.292a76.041 76.041 0 0 1-6.789-6.922c-.221-.57 2.787-6.909 4.307-8.474l1.314-1.366-.494.041c-1.881.137-5.416 1.662-8.737 3.763-.687.433-1.4.879-1.574.989a1.067 1.067 0 0 1-1.347-.069c-.52-.535-.453-.8 1.047-3.935a40.5 40.5 0 0 1 5.654-8.882Zm27.561-12.175a19.619 19.619 0 0 1-1.8 4.715 6.2 6.2 0 0 0 .483 2.086 5.7 5.7 0 0 0 8.79 2.252 6.711 6.711 0 0 0 1.767-2.245A6.261 6.261 0 0 0 46 25.331a8.305 8.305 0 0 0-1.941-2.012 5.982 5.982 0 0 0-4.262-.721 5.55 5.55 0 0 0-2.709 1.481ZM2.317 64.734a8.127 8.127 0 0 1 1.926-5.407c2.166-2.324 4.619-1.8 6.414-.365s2.275 4.277.83 5.765S7.517 66.5 5.75 67.4l-3.469 1.766s.378-1.48.89-3.458c.752-2.9 2.488-3.3 2.488-3.3a4.4 4.4 0 0 0-1.82.532 5.766 5.766 0 0 0-1.522 1.8Zm16.5-27.718A17.374 17.374 0 0 0 35.93 19.389 17.374 17.374 0 0 0 18.82 1.763 17.374 17.374 0 0 0 1.71 19.389a17.374 17.374 0 0 0 17.11 17.628" fill="#f8bf9d"/><path data-name="Path 1439" d="M23.231 12.061H13.91a.932.932 0 1 1 0-1.864h9.318a.932.932 0 0 1 0 1.864" fill="#282e6a"/><path data-name="Path 1440" d="M23.231 16.72H13.91a.932.932 0 1 1 0-1.864h9.318a.932.932 0 1 1 0 1.864" fill="#282e6a"/><path data-name="Path 1441" d="M21.368 28.833a.933.933 0 0 1-.662-.27l-7.454-7.457a.937.937 0 0 1 .662-1.593h1.864a3.727 3.727 0 1 0 0-7.454H13.91a.932.932 0 0 1 0-1.864h1.864a5.594 5.594 0 1 1 .373 11.182l5.88 5.87a.923.923 0 0 1-.662 1.584Z" fill="#282e6a"/></g></svg>
