<svg data-name="Group 921" xmlns="http://www.w3.org/2000/svg" width="55" height="55"><defs><clipPath id="a"><path data-name="Rectangle 328" fill="none" d="M0 0h55v55H0z"/></clipPath></defs><g data-name="Group 920" clip-path="url(#a)"><path data-name="Path 1432" d="M6.171 3.528a1.4 1.4 0 1 1-1.413 1.413 1.385 1.385 0 0 1 1.413-1.413m3.878 0a1.4 1.4 0 1 1-1.413 1.413 1.385 1.385 0 0 1 1.414-1.413m3.842 0a1.4 1.4 0 1 1 0 2.791 1.4 1.4 0 0 1 0-2.791m13.629.037h19.646a1.4 1.4 0 1 1 0 2.79H27.521a1.4 1.4 0 0 1 0-2.79M4.215.301h46.468a3.921 3.921 0 0 1 3.918 3.914v40.266a3.9 3.9 0 0 1-3.914 3.914h-2.048c-.754 0-.885-.607-.921-1.2l-.2-3.23a.841.841 0 0 1 .824-.646h.343a.868.868 0 0 0 .833-.833V10.341a.875.875 0 0 0-.833-.87H6.244a.882.882 0 0 0-.87.87v32.146a.876.876 0 0 0 .87.833h12.911a1.446 1.446 0 0 1 1.382.713l1.417 3.022a.959.959 0 0 1 .063.88.831.831 0 0 1-.754.46H4.215a3.921 3.921 0 0 1-3.914-3.914V4.215A3.944 3.944 0 0 1 4.215.301Z" fill="#f8bf9d" fill-rule="evenodd"/><path data-name="Path 1433" d="M21.233 16.942H11.051a1.018 1.018 0 1 1 0-2.037h10.182a1.018 1.018 0 0 1 0 2.037" fill="#282e6a"/><path data-name="Path 1434" d="M21.233 22.032H11.051a1.018 1.018 0 1 1 0-2.036h10.182a1.018 1.018 0 1 1 0 2.036" fill="#282e6a"/><path data-name="Path 1435" d="M19.197 35.271a1.02 1.02 0 0 1-.723-.3l-8.146-8.146a1.024 1.024 0 0 1 .723-1.741h2.037a4.073 4.073 0 1 0 0-8.146h-2.037a1.018 1.018 0 0 1 0-2.037h2.037a6.113 6.113 0 1 1 .407 12.219l6.422 6.417a1.008 1.008 0 0 1-.723 1.731Z" fill="#282e6a"/><path data-name="Path 1436" d="M33.485 34.907c2.214-.907 3.3-.1 3.943.8a2.929 2.929 0 0 1 3.4.618.841.841 0 0 0 .766.219 2.213 2.213 0 0 1 2.9 1.663l1.056 9.5a5.315 5.315 0 0 1-.152 1.986l-.656 2.575a1.929 1.929 0 0 1-1.738 1.467l-10.521.849a1.908 1.908 0 0 1-1.75-.814l-3.529-4.954a10.194 10.194 0 0 1-1.087-1.915l-3.05-6.943c-1.643-3.241 2.1-4.928 3.675-2.154l3.071 5.268-2.216-14.7a1.889 1.889 0 1 1 3.7-.7l1.363 6.852a.557.557 0 0 0 .82.37Z" fill="#e55e26" fill-rule="evenodd"/></g></svg>
