<svg xmlns="http://www.w3.org/2000/svg" width="13.13" height="12.49"><g data-name="Group 1168" clip-path="url(#clip-path)"><path data-name="Path 2447" d="m6.7.1 1.457 4.472a.141.141 0 0 0 .134.1H13a.141.141 0 0 1 .083.256L9.273 7.69a.141.141 0 0 0-.051.158l1.454 4.474a.141.141 0 0 1-.218.158L6.652 9.715a.141.141 0 0 0-.166 0L2.68 12.481a.141.141 0 0 1-.217-.158l1.453-4.474a.141.141 0 0 0-.051-.158L.059 4.925a.141.141 0 0 1 .083-.255h4.7a.141.141 0 0 0 .134-.1L6.434.1A.141.141 0 0 1 6.7.1" fill="#F76C6C"/></g></svg>
