<svg version="1.1" id="Layer_1" xmlns="http://www.w3.org/2000/svg" x="0" y="0" viewBox="0 0 1080 1080" style="enable-background:new 0 0 1080 1080" xml:space="preserve"><style>.st0{fill:#fdd5c0}.st1{fill:#e4bfae}.st2{fill:#f16624}</style><g id="Group_450" transform="translate(-505 -2306)"><g id="Group_473"><g id="Group_471" transform="translate(505 2306)"><g id="Group_452" transform="translate(10.153 12.528)"><g id="Group_451"><path id="Path_779" class="st0" d="M356.9 334.5 378 838.2v140.3c0 11.5 9.3 20.8 20.8 20.8h317.9c11.5 0 20.8-9.3 20.8-20.8V834c0-3.9 1.1-7.8 3.1-11.2l22.9-39.2c12.8-21.9 19.6-46.9 19.6-72.3V336.5l-426.2-2z"/><path id="Path_780" class="st1" d="m365.3 536.5 11.8 282.3H529c55.6.2 101-44.5 101.7-100.2v-89.3c-.7-51.5-42.7-92.9-94.2-92.7l-171.2-.1z"/><path id="Path_781" class="st1" d="M361.8 451.9c9.7 3.2 19.8 4.8 30 4.8 15.6 0 30.9-3.8 44.8-11 18.3 18.9 43.5 29.5 69.8 29.5 16.3 0 32.4-4.1 46.7-11.9 18.2 17.7 42.6 27.6 68 27.6 16.4 0 32.5-4.1 46.8-12 18.2 17.6 42.5 27.5 67.8 27.5 16.5 0 32.8-4.2 47.3-12.2V336.6l-426.1-2 4.9 117.3z"/><path id="Path_782" class="st0" d="M449.1 359c0 31.6-25.6 57.3-57.3 57.3-31.7 0-57.3-25.6-57.3-57.3V245.5c0-31.7 25.6-57.3 57.3-57.3 15.2 0 29.8 6 40.5 16.8 10.8 10.7 16.8 25.3 16.8 40.5V359z"/><path id="Path_783" class="st0" d="M563.7 377.5c0 31.6-25.6 57.3-57.3 57.3-31.7 0-57.3-25.7-57.3-57.3V264.1c0-31.7 25.7-57.3 57.3-57.3 15.2 0 29.8 6 40.5 16.8 10.8 10.7 16.8 25.3 16.8 40.5v113.4z"/><g id="Group_450-2" transform="translate(9.959)"><path id="Path_784" class="st1" d="M367.4 359V245.5c0-23.4 14.2-44.4 35.9-53.2-6.8-2.8-14.1-4.2-21.5-4.2-31.7 0-57.3 25.7-57.3 57.3v113.4c0 31.6 25.6 57.3 57.3 57.3 7.4 0 14.7-1.4 21.5-4.2-21.7-8.6-35.9-29.6-35.9-52.9z"/><path id="Path_785" class="st1" d="M482.1 377.5V264.1c0-23.4 14.2-44.4 35.9-53.2-6.8-2.8-14.1-4.2-21.5-4.2-31.7 0-57.3 25.7-57.3 57.3v113.4c0 31.7 25.7 57.3 57.3 57.3 7.4 0 14.7-1.4 21.5-4.2-21.7-8.7-35.9-29.7-35.9-53z"/><path id="Path_786" class="st1" d="m458.7 821.8-95.9-108.7L368 838v140.3c0 11.5 9.3 20.8 20.8 20.8h70l-.1-177.3z"/></g><path id="Path_787" class="st0" d="m527.3 515.6 38.1 45.8c16.1 19.3 24.9 43.7 24.9 68.9v87.1c0 66.7-54 120.7-120.7 120.7H378v-3.6L218.5 653.8c-46.1-52.2-56.4-127-26.2-189.8l43.5-90.3c21.1-43.8 73.8-62.2 117.6-41.1 1.1.5 2.3 1.1 3.4 1.7L538.4 432c6.9 3.7 12.7 9.2 16.8 15.8 4.1 6.7 6.3 14.3 6.4 22.1.3 16.5-8.6 31.8-23.2 39.7l-11.1 6z"/></g><path id="Path_788" class="st1" d="M568.1 440c-5.5-9-13.3-16.3-22.5-21.3L356 319.2c-1.1-.6-2.3-1.1-3.5-1.4l-.8 1c-4.6 5.8-12 8.5-19.2 7.1-39.4-7.9-79.2 11.9-96.7 48.1l-43.5 90.3c-30.3 62.8-19.9 137.5 26.2 189.8l159.4 180.7v3.6h90.7v-3.9c0-8-2.9-15.7-8.2-21.7L309.3 641.6c-46.1-52.2-56.4-127-26.2-189.8l43.5-90.3c1.8-3.7 3.8-7.2 6.1-10.6 2.9-4.5 8.8-6 13.5-3.5 36 19.2 184.9 98 184.9 98 4.5 2.4 8.3 6 11 10.4 2.7 4.4 4.1 9.4 4.2 14.6.2 10.9-5.7 20.9-15.2 26l-23.8 12.8c-33.9 18.2-74.5 18.8-108.9 1.7l-55.1-27.5c-7.5-3.7-16.6-.7-20.3 6.8-.1.1-.1.3-.2.4-3.3 7.7 0 16.5 7.5 20.1L385 538c20.6 10.3 43.3 15.6 66.3 15.6 24.6 0 48.7-6.1 70.4-17.7l23.8-12.8a58.94 58.94 0 0 0 31.1-53.3c-.2-10.5-3.2-20.8-8.7-29.7l.2-.1z"/></g><g id="Group_454" transform="translate(34.454 14.67)"><g id="Group_453"><path id="Path_789" class="st0" d="M654.1 391c0 31.7-25.7 57.3-57.3 57.3-31.7 0-57.3-25.7-57.3-57.3V277.6c0-31.7 25.7-57.3 57.3-57.3 15.2 0 29.8 6 40.5 16.8 10.8 10.7 16.8 25.3 16.8 40.5V391z"/><path id="Path_790" class="st0" d="M768.7 296.8v109.7c0 31.7-25.7 57.3-57.3 57.3-31.7 0-57.3-25.7-57.3-57.3V296.8c0-31.7 25.7-57.3 57.3-57.3 15.2 0 29.8 6 40.5 16.8 10.8 10.8 16.9 25.3 16.8 40.5z"/></g></g><g id="Group_456" transform="translate(34.454 14.67)"><g id="Group_455"><path id="Path_791" class="st1" d="M582.4 391V277.6c0-23.4 14.2-44.4 35.9-53.2-6.8-2.8-14.1-4.2-21.5-4.2-31.7 0-57.3 25.7-57.3 57.3V391c0 31.7 25.7 57.3 57.3 57.3 7.4 0 14.7-1.4 21.5-4.2-21.7-8.7-35.9-29.7-35.9-53.1z"/><path id="Path_792" class="st1" d="M697 406.5V296.8c0-23.4 14.2-44.4 35.9-53.2-6.8-2.8-14.1-4.2-21.5-4.2-31.7 0-57.3 25.7-57.3 57.3v109.7c0 31.7 25.7 57.3 57.3 57.3 7.4 0 14.7-1.4 21.5-4.2-21.7-8.6-35.9-29.6-35.9-53z"/></g></g><g id="Group_457" transform="translate(42.503)"><path id="Path_793" class="st2" d="M675.2 147.9c-2.9 0-5.7-.8-8.2-2.4-7-4.5-9.1-13.9-4.5-20.9L737.9 7.3c4.5-7 13.9-9.1 20.9-4.5 7 4.5 9.1 13.9 4.5 20.9L688 140.9c-2.8 4.3-7.6 7-12.8 7z"/></g><g id="Group_458" transform="translate(52.29 .354)"><path id="Path_794" class="st2" d="M821.9 249.8c-3.4 0-6.7-1.1-9.3-3.2-6.6-5.2-7.7-14.7-2.6-21.2L977.7 11.5c5.2-6.6 14.7-7.7 21.2-2.6 6.6 5.2 7.7 14.7 2.6 21.2L833.8 244c-2.8 3.6-7.2 5.8-11.9 5.8z"/></g><g id="Group_459" transform="translate(58.569 24.74)"><path id="Path_795" class="st2" d="M916 438.9c-5.5 0-10.6-3-13.2-7.8-4.1-7.3-1.4-16.5 5.9-20.6l67.3-37.4c7.3-4.1 16.5-1.4 20.6 5.9 4.1 7.3 1.4 16.5-5.9 20.6L923.4 437c-2.3 1.3-4.8 1.9-7.4 1.9z"/></g><g id="Group_460" transform="translate(58.569 39.725)"><path id="Path_796" class="st2" d="M981.3 665.5c-2.8 0-5.4-.8-7.8-2.2L908.2 624c-7.2-4.3-9.5-13.6-5.1-20.8 4.3-7.2 13.6-9.5 20.8-5.1l65.2 39.4c7.2 4.3 9.5 13.6 5.1 20.8-2.7 4.4-7.6 7.2-12.9 7.2z"/></g><g id="Group_461" transform="translate(51.112 48.238)"><path id="Path_797" class="st2" d="M828.5 782.1c-4.4 0-8.6-1.9-11.5-5.3l-24.3-28.4c-5.4-6.3-4.7-15.9 1.6-21.3 6.3-5.4 15.9-4.7 21.3 1.6l24.3 28.4c5.4 6.3 4.7 15.9-1.6 21.3-2.7 2.4-6.2 3.7-9.8 3.7z"/></g><g id="Group_462" transform="translate(55.328 53.172)"><path id="Path_798" class="st2" d="M951.9 926.5c-4.4 0-8.6-1.9-11.5-5.3L856 822.4c-5.4-6.3-4.7-15.9 1.6-21.3 6.3-5.4 15.9-4.7 21.3 1.6l84.4 98.8c5.4 6.3 4.7 15.9-1.6 21.3-2.7 2.4-6.2 3.7-9.8 3.7z"/></g><g id="Group_463" transform="translate(35.005 1.557)"><path id="Path_799" class="st2" d="M562.8 104.2c-1.6 0-3.3-.3-4.8-.8-7.9-2.6-12.2-11.2-9.6-19.1v-.1L565.1 34c2.6-7.9 11.2-12.2 19.1-9.6h.1c7.9 2.6 12.2 11.2 9.6 19.1v.1l-16.7 50.2c-2 6.3-7.8 10.4-14.4 10.4z"/></g><g id="Group_464" transform="translate(15.558)"><path id="Path_800" class="st2" d="M346.8 147.9c-5.2 0-10-2.6-12.8-6.9L258.6 23.7c-4.5-7-2.5-16.4 4.5-20.9S279.5.3 284 7.3l75.4 117.2c4.5 7 2.5 16.4-4.5 20.9-2.4 1.6-5.2 2.4-8.1 2.5z"/></g><g id="Group_465" transform="translate(0 .228)"><path id="Path_801" class="st2" d="M209.9 249.9c-4.6 0-9-2.1-11.8-5.7L26.3 28.3c-5.2-6.5-4.1-16 2.4-21.3 6.5-5.2 16-4.1 21.3 2.4l171.7 215.9c5.2 6.5 4.1 16-2.4 21.3-2.7 2.1-6 3.3-9.4 3.3z"/></g><g id="Group_466" transform="translate(0 24.74)"><path id="Path_802" class="st2" d="M109.4 438.9c-2.4 0-4.8-.6-7-1.7l-71.3-37.4c-7.4-3.9-10.3-13-6.4-20.4 3.9-7.4 13-10.3 20.4-6.4l71.3 37.4c7.4 3.9 10.3 13 6.4 20.4-2.6 5-7.7 8.1-13.4 8.1z"/></g><g id="Group_467" transform="translate(.38 39.725)"><path id="Path_803" class="st2" d="M43.8 665.5c-5.3 0-10.2-2.8-13-7.3-4.3-7.1-2-16.4 5.1-20.8l65.2-39.4c7.1-4.3 16.4-2 20.8 5.1 4.3 7.1 2 16.4-5.1 20.8l-65.2 39.4c-2.3 1.4-5 2.2-7.8 2.2z"/></g><g id="Group_468" transform="translate(10.401 48.237)"><path id="Path_804" class="st2" d="M194 782.1c-3.6 0-7.1-1.3-9.8-3.6-6.3-5.4-7.1-15-1.6-21.3l24.3-28.4c5.4-6.3 15-7 21.3-1.6 6.3 5.4 7.1 15 1.6 21.3l-24.3 28.4c-2.9 3.3-7.1 5.2-11.5 5.2z"/></g><g id="Group_469" transform="translate(2.421 53.172)"><path id="Path_805" class="st2" d="M74.4 926.5c-3.6 0-7.1-1.3-9.8-3.6-6.3-5.4-7.1-15-1.6-21.3l84.4-98.8c5.4-6.3 15-7 21.3-1.6 6.3 5.4 7.1 15 1.6 21.3l-84.4 98.8c-2.9 3.3-7.1 5.2-11.5 5.2z"/></g><g id="Group_470" transform="translate(26.728 1.557)"><path id="Path_806" class="st2" d="M455.5 104.2c-6.5 0-12.3-4.2-14.4-10.4l-16.7-50.2c-2.7-7.9 1.6-16.5 9.5-19.2h.1c7.9-2.7 16.5 1.6 19.2 9.5v.1l16.7 50.2c2.7 7.9-1.6 16.5-9.5 19.2h-.1c-1.6.6-3.2.9-4.8.8z"/></g></g><path id="Rectangle_207" style="fill:#283272" d="M879.8 3273.7h383.7v111.9H879.8z"/></g></g></svg>
