<svg version="1.1" id="Layer_1" xmlns="http://www.w3.org/2000/svg" x="0" y="0" viewBox="0 0 1080 1080" style="enable-background:new 0 0 1080 1080" xml:space="preserve"><style>.st0{fill:#f16624}.st2{fill:#283272}.st3{fill:#fff}.st4{fill:#fdd5c0}</style><g id="Group_446" transform="translate(1115.724 -17)"><g id="Group_445" transform="translate(-1112.266 17)"><path id="Path_750" class="st0" d="M903.5 403h-63.3v-58.5c-.1-155.2-125.9-281-281.2-281.2h-44.7c-155.3.2-281.1 126-281.3 281.2V403h-63.3v-58.5C169.9 154.4 324.1.2 514.3 0H559c190.2.2 344.3 154.3 344.5 344.5V403z"/></g><path id="Path_751" d="M-290.1 338.7h-98v212.1h98c44.9 0 81.3-36.4 81.3-81.3V420c0-44.8-36.4-81.2-81.3-81.3z" style="fill:#09799d"/><path id="Path_752" class="st0" d="M-290.1 338.7h-98v212.1h98c44.9 0 81.3-36.4 81.3-81.3V420c0-44.8-36.4-81.2-81.3-81.3z"/><path id="Path_753" class="st0" d="M-942.5 420v49.5c0 44.9 36.4 81.3 81.3 81.3h98V338.7h-98c-44.9 0-81.3 36.4-81.3 81.3z"/><path id="Path_754" class="st2" d="M-369.3 774.7h-94.9v145.1h-223V774.7h-94.9c-122.1.1-221 99.1-221.1 221.1V1097h855V995.8c-.2-122.1-99-221-221.1-221.1z"/><path id="Path_755" class="st3" d="M-750.4 774.7h349.5v208.4h-349.5V774.7z"/><path id="Path_756" class="st3" d="M-575.6 774.7h174.8v208.4h-174.8V774.7z"/><path id="Path_757" class="st4" d="M-700 686.2v88.5l124.5 208.4 124.3-208.4v-88.4l-248.8-.1z"/><path id="Path_758" class="st4" d="m-347.9 253.2-21.3 10.7c-10.9 5.4-23.8 5.4-34.7 0-28.8-14.3-62.5-14.3-91.3 0-10.9 5.4-23.8 5.4-34.7 0-28.8-14.3-62.5-14.3-91.3 0-10.9 5.4-23.8 5.4-34.7 0-28.8-14.3-62.5-14.3-91.3 0-10.9 5.4-23.8 5.4-34.7 0l-21.3-10.7c-15.2 30.3-23.2 63.7-23.1 97.6v168.3c.2 138.5 112.4 250.7 250.8 250.8 138.5-.2 250.7-112.4 250.8-250.8V350.9c0-33.9-7.9-67.4-23.2-97.7z"/><path id="Path_759" class="st2" d="M-719 320.5c10.9-5.4 23.8-5.4 34.7 0 28.8 14.3 62.5 14.3 91.3 0 10.9-5.4 23.8-5.4 34.7 0 28.8 14.3 62.5 14.3 91.3 0 10.9-5.4 23.8-5.4 34.7 0 14.2 7.1 29.8 10.7 45.6 10.7s31.4-3.7 45.6-10.7l13-6.5c-18.1-104.4-108.5-180.8-214.5-181h-66c-106 .1-196.6 76.5-214.7 181l13 6.5c28.8 14.3 62.5 14.3 91.3 0z"/><path id="Path_760" class="st0" d="M-272 548.8V593h-303.6v63.3h366.9V469.5c-.1 37.9-26.3 70.8-63.3 79.3z"/></g></svg>
