<svg version="1.1" id="Layer_1" xmlns="http://www.w3.org/2000/svg" x="0" y="0" viewBox="0 0 1080 1080" style="enable-background:new 0 0 1080 1080" xml:space="preserve"><style>.st0{fill:#283272}.st1{fill:#f0a479}.st2{fill:#e69770}.st4{fill:#d8dce5}</style><g id="Ex-employee" transform="translate(-85.965)"><path id="Path_687" class="st0" d="M624.2 0C521.7 0 438.6 83.2 438.6 185.7v75.1c12.7-11.8 30-17.5 47.3-15.4v-9.3c0-7 5.7-12.7 12.7-12.6h.9c70.7 3.9 140.8-15 200.1-53.7 5.2-3.4 12-2.5 16.2 2 47.2 50.8 46.9 48.8 46.9 55.4v18.2c17-2.9 34.4 2.2 47.2 13.8v-73.4C809.9 83.2 726.8.1 624.2 0z"/><path id="Path_688" class="st0" d="M482 185.7c0-94.1 70.5-173.3 164-184.3-101.7-12.2-194 60.4-206.1 162.1-.9 7.4-1.3 14.8-1.3 22.2v75.1c11.8-10.9 27.4-16.6 43.5-15.8v-59.3z"/><path id="Path_689" class="st1" d="M762.4 238.6v102.1c0 1.1 0 2.2-.1 3.3 29.1 5.9 57.5-12.9 63.4-42 5.9-29.1-12.9-57.5-42-63.4-7-1.4-14.3-1.4-21.3 0z"/><path id="Path_690" class="st2" d="M806.2 249.3c-12.5-9.5-28.3-13.4-43.8-10.8v102.1c0 1.1 0 2.2-.1 3.3 15.5 2.6 31.4-1.3 43.9-10.8v-83.8z"/><path id="Path_691" class="st1" d="M486.3 340.8V238.5c-31-4.3-59.7 17.3-64.1 48.4-.2 1.5-.4 2.9-.4 4.4.3 30 24.8 54.1 54.8 53.8 3.3 0 6.6-.4 9.8-1-.1-1.2-.1-2.2-.1-3.3z"/><path id="Path_692" class="st2" d="M486.3 333.7a52.62 52.62 0 0 1-21-42.4c.3-16.1 8-31.2 21-40.7v-12c-31-4.3-59.7 17.3-64.1 48.4-.2 1.5-.4 2.9-.4 4.4.3 30 24.8 54.1 54.8 53.8 3.3 0 6.6-.4 9.8-1 0-1.1-.1-2.2-.1-3.3v-7.2z"/><path id="Path_693" class="st1" d="M626.2 470.4c-27.5.3-54.6-7.3-77.9-22v76.1l77.6 95.8 77.6-95.8v-78.1c-22.7 15.6-49.7 24-77.3 24z"/><path id="Path_694" class="st2" d="M592.6 466.7c-15.7-3.5-30.7-9.7-44.3-18.3v76.1l44.3 54.7V466.7z"/><path id="Path_695" d="m908.7 597.4-205.3-79.5-77.6 95.8-77.6-95.8-205.1 79.5c-46.1 21.1-75.7 67.1-75.9 117.8v339.5c0 14 11.3 25.3 25.3 25.3h666.7c14 0 25.3-11.3 25.3-25.3V715.2c-.1-50.7-29.7-96.7-75.8-117.8z" style="fill:#e4eaf6"/><path id="Path_696" class="st4" d="M310.7 1054.7V691.2c-.5-38.6 16.8-75.3 47-99.4l-14.4 5.6c-46.1 21.1-75.7 67.1-75.9 117.8v339.5c0 14 11.3 25.3 25.3 25.3H336c-14-.1-25.3-11.4-25.3-25.3z"/><path id="Path_697" class="st1" d="M715.8 165.2c-4.2-4.5-11-5.3-16.2-2-59.3 38.8-129.4 57.6-200.1 53.8-7-.5-13 4.7-13.5 11.7V340.5c1.1 76.4 63.9 137.5 140.3 136.4 74.9-1 135.4-61.5 136.4-136.4V220.6c-.1-6.6.3-4.6-46.9-55.4z"/><path id="Path_698" class="st2" d="M529.3 340.5v-123c-10 .3-19.9.1-29.9-.6-7-.5-13 4.7-13.5 11.7V340.4c2 77.3 66.4 138.4 143.7 136.3 5.5-.1 11-.6 16.4-1.4-66.9-9.8-116.6-67.2-116.7-134.8z"/><g id="Group_373" transform="translate(94.333 53.997)"><path id="Path_699" class="st4" d="M318.5 1026V690.9c0-9-7.3-16.3-16.3-16.3s-16.3 7.3-16.3 16.3V1026h32.6z"/><path id="Path_700" class="st4" d="M777.4 1026V690.9c0-9-7.4-16.3-16.4-16.2-9 0-16.2 7.3-16.2 16.2V1026h32.6z"/></g></g></svg>
