<svg version="1.1" id="Layer_1" xmlns="http://www.w3.org/2000/svg" x="0" y="0" viewBox="0 0 1080 1080" style="enable-background:new 0 0 1080 1080" xml:space="preserve"><style>.st0{fill:#ee6926}.st1{fill:#283571}.st4{fill:#ec6927}.st5{fill:#243872}</style><path class="st0" d="M540.7 472.5c-18.9 6.6-37.8 13-56.6 19.9-40.2 14.8-58.5 8.5-82.6-27-13.4-19.7-28.3-38.3-47.8-64.4-52.4 128.2-195.5 472.7-243.6 590.3 1.7 1.2 3.3 2.5 5 3.7 47.4-33.1 94.8-66.3 146.3-102.3 12.1 61.5 23.5 119.2 36.9 187.3 53.2-130 197.9-478.3 247.6-599.6-1.8-2.7-3.5-5.3-5.2-7.9z"/><path class="st0" d="M400.4 472.5c18.9 6.6 37.8 13 56.6 19.9 40.2 14.8 58.5 8.5 82.6-27 13.4-19.7 28.3-38.3 47.8-64.4C639.8 529.2 783 873.7 831 991.3c-1.7 1.2-3.3 2.5-5 3.7-47.4-33.1-94.8-66.3-146.3-102.3-12.1 61.5-23.5 119.2-36.9 187.3-53.2-130-197.9-478.3-247.6-599.6 1.8-2.7 3.5-5.3 5.2-7.9z"/><path class="st1" d="M799.9 203.1c-8.5 35.3 8.3 66.7 35.7 96.5 37.1 40.5 38 59 .9 97.2-32.1 33.1-40.2 69.6-36.5 113.7 4.6 54.3-5.5 67.3-59.3 76.7-42.3 7.4-69.9 29.2-90.6 65.9-27.9 49.4-43.9 55-95 31.3-38.5-17.9-73.7-18.1-112.2-.6-52.3 23.8-67.7 19-95.5-29.9-21.5-37.9-50-59.9-93.9-67.1-50.3-8.3-63.2-25-56.9-75.2 5.8-46.4-5.2-82.8-37.9-116.6-34.3-35.3-34.1-56-.4-91.2 32.2-33.7 44.5-69.7 38.4-116.5-6.6-50.8 5.9-66.3 56.3-75.5 44.7-8.1 74.4-30.5 96.1-70.2 25-45.8 41.6-51.2 89-28.6 42.5 20.2 81.2 18.4 123-.8 45.4-20.8 61.8-15.6 86.2 28 20.3 36.2 45.6 61.1 87.6 70.1 65.2 13.9 67.9 19.2 65 92.8zm-51.4 147.2C748.9 210.1 636 95.9 497.8 96.5c-137.2.7-250 113.9-250.2 251.2-.2 140 112.7 253.8 251.5 253.6 137.2-.2 249-112.6 249.4-251z"/><circle class="st0" cx="498.3" cy="348.9" r="280.9"/><path d="M498.5 585.7c-130.8.1-236.9-105.8-237-236.6s105.8-236.9 236.6-237 236.9 105.8 237 236.6c.1 62.8-24.9 123.1-69.3 167.6-44.2 44.6-104.5 69.6-167.3 69.4z" style="fill:#f18241"/><path d="M498.5 585.7c-130.8.1-236.9-105.8-237-236.6s105.8-236.9 236.6-237 236.9 105.8 237 236.6c.1 62.8-24.9 123.1-69.3 167.6-44.2 44.6-104.5 69.6-167.3 69.4z" style="fill:none;stroke:#fff;stroke-width:12;stroke-miterlimit:10"/><path class="st1" d="m498.3 166.6 52.5 106.3L668.2 290l-85 82.8 20.1 117-105-55.2-105 55.2 20-117-84.9-82.8 117.4-17.1z"/><path class="st4" d="m922.9 440.4 19.7-39.5 19.7 39.5c5.4 10.9 14.3 19.8 25.2 25.2l39.5 19.7-39.5 19.7c-10.9 5.4-19.8 14.3-25.2 25.2l-19.7 39.5-19.7-39.5c-5.4-10.9-14.3-19.8-25.2-25.2l-39.5-19.7 39.5-19.7c10.9-5.4 19.8-14.3 25.2-25.2z"/><path class="st5" d="m843.1 592 11.5-22.9L866 592c3.2 6.3 8.3 11.4 14.6 14.6l22.9 11.5-22.9 11.5c-6.3 3.2-11.4 8.3-14.6 14.6L854.5 667 843 644.1c-3.2-6.3-8.3-11.4-14.6-14.6L805.5 618l22.9-11.5c6.4-3.1 11.5-8.2 14.7-14.5z"/><path class="st4" d="m117.4 609.1-12.2-24.4L93 609.1c-3.4 6.8-8.9 12.2-15.6 15.6L53 636.9l24.4 12.2c6.8 3.4 12.2 8.9 15.6 15.6l12.2 24.4 12.2-24.4c3.4-6.8 8.9-12.2 15.6-15.6l24.4-12.2-24.4-12.2c-6.7-3.3-12.2-8.8-15.6-15.6z"/><path class="st5" d="m166.8 702.9-7.1-14.2-7.1 14.2c-2 3.9-5.1 7.1-9 9l-14.2 7.1 14.2 7.1c3.9 2 7.1 5.1 9 9l7.1 14.2 7.1-14.2c2-3.9 5.1-7.1 9-9L190 719l-14.2-7.1c-3.8-1.9-7-5.1-9-9z"/></svg>
