<svg version="1.1" id="Layer_1" xmlns="http://www.w3.org/2000/svg" x="0" y="0" viewBox="0 0 1080 1080" style="enable-background:new 0 0 1080 1080" xml:space="preserve"><style>.st0{fill:#f1f2f2}.st1{fill:#283272}</style><path id="Path_197" class="st0" d="M1033.2 875H46.5c-24.8 0-44.9-20-44.9-44.8V45.3C1.6 20.5 21.7.4 46.5.4h986.7c24.8 0 44.9 20.1 44.9 44.9v784.9c0 24.8-20.1 44.8-44.9 44.8z"/><path id="Rectangle_134" class="st1" d="M533.1 275h398.7v22H533.1z"/><path id="Path_198" class="st0" d="M1033.2.4h-44.9c24.8 0 44.9 20.1 44.9 44.8v784.9c0 24.8-20.1 44.9-44.9 44.9h44.9c24.8 0 44.9-20.1 44.9-44.9V45.3c0-24.8-20.1-44.9-44.9-44.9z"/><path id="Path_199" class="st1" d="M1078.1 168.8H1.6V45.3C1.6 20.5 21.7.4 46.5.4h986.7c24.8 0 44.9 20.1 44.9 44.9v123.5z"/><path id="Path_200" class="st1" d="M1074.6 27.8c-7.4-17-24.4-27.8-42.9-27.4h-43.3c21.3.2 39.6 15.1 44 36 1.1 7.8 1.3 15.7.9 23.6v108.8h44.9V55.5c.7-9.4-.5-18.8-3.6-27.7z"/><path id="Path_201" d="M898.6 621.8H674.3c-37.2.1-67.4-29.9-67.5-67.1-.1-37.2 29.9-67.4 67.1-67.5H898.6c37.2.1 67.2 30.3 67.1 67.5-.1 37-30.1 67-67.1 67.1z" style="fill:#f16623"/><path id="Path_202" d="M898.6 487.2h-44.9c37.2-.1 67.4 29.9 67.5 67.1.1 37.2-29.9 67.4-67.1 67.5h-.4 44.9c37.2.1 67.4-29.9 67.5-67.1.1-37.2-29.9-67.4-67.1-67.5h-.4z" style="fill:#fbad42"/><g id="Group_324" transform="translate(37.16 36.079)"><path id="Path_203" d="M898.9 754.6c-22.3 0-40.3 22.6-40.3 50.5v-33.5c0-27.9-18.1-50.5-40.3-50.5-22.3 0-40.3 22.6-40.3 50.5v-33.8c0-27.9-18.1-50.5-40.3-50.5s-40.3 22.6-40.3 50.5V569.7c0-27.9-18.1-50.5-40.3-50.5s-40.3 22.6-40.3 50.5v218.2l-40.1 1c-22.3 0-40.3 22.6-40.3 50.5l-.2 139.6 27.6 64.6H940l-.4-238.4c-.4-27.9-18.4-50.5-40.7-50.6z" style="fill:#f7be9d"/></g><path id="Rectangle_135" style="fill:#d4d2d2" d="M112.1 275h346.8v346.8H112.1z"/><path id="Rectangle_136" class="st1" d="M534.6 331h398.7v22H534.6z"/><path id="Rectangle_137" class="st1" d="M534.6 389.2h398.7v22H534.6z"/></svg>
