<svg version="1.1" id="Layer_1" xmlns="http://www.w3.org/2000/svg" x="0" y="0" viewBox="0 0 1080 1080" style="enable-background:new 0 0 1080 1080" xml:space="preserve"><style>.st2{fill:#808184}.st3{fill:#e18327}.st4{fill:#fff}</style><path d="M857.3 483.3c0-177.4-143.8-321.2-321.2-321.2-177.3 0-321.7 144.9-321.1 322.3.3 88.1 36.1 167.8 93.8 225.6 44.9 45 77.8 100.6 94.4 162l25.9 95.8h210.5l24.5-90.7c17-62.7 50.9-119.3 97.2-164.8 59.3-58.3 96-139.4 96-229z" style="fill:#f06724"/><path d="M584.8 1080H482.2c-29.1 0-54-21.5-55.6-48.7l-8.7-105.2 232.5-1.5-9.9 106.7c-1.7 27.2-26.6 48.7-55.7 48.7z" style="fill:#283371"/><path class="st2" d="M629.4 970.5c-64.9 2.8-130.1-.6-195 2.3-5.8.3-5.3 8.7.3 8.9 65 2.2 130.1-1.9 195.1.2 7.3.2 7-11.7-.4-11.4zM629.4 998.7c-64.9 2.8-130.1-.6-195 2.3-5.8.3-5.3 8.7.3 8.9 65 2.2 130.1-1.9 195.1.2 7.3.2 7-11.7-.4-11.4z"/><path class="st3" d="M568.2 37c0 20.4-10.9 93.9-24.3 93.9S519.6 57.5 519.6 37s11-37 24.4-37c13.4 0 24.2 16.6 24.2 37zM870.6 149.8c-15.5 13.3-64.1 69.4-55.4 79.6 8.7 10.2 71.5-29.5 87-42.8 15.5-13.3 21-32.3 12.2-42.5-8.7-10.2-28.3-7.6-43.8 5.7zM988.4 477.6c-20.3 2.6-94.5 1.1-96.2-12.2-1.7-13.3 69.8-33.3 90.1-35.9 20.3-2.6 38.1 6.1 39.8 19.4 1.6 13.2-13.4 26.1-33.7 28.7zM245.1 125.4c16.1 12.6 67.2 66.4 59 77-8.3 10.6-72.8-26.2-88.9-38.8-16.1-12.6-22.4-31.4-14.2-41.9 8.3-10.5 28-8.9 44.1 3.7zM91.6 425.1c20.3 2.6 94.5 1.1 96.2-12.2 1.7-13.3-69.8-33.3-90.1-35.9-20.3-2.6-38.1 6.1-39.8 19.4-1.6 13.2 13.4 26.1 33.7 28.7z"/><path class="st4" d="M625.2 754.3c-6.3-4.6-11.3-10.7-14.9-17.5 7.2-8.8 10.3-20.7 11.6-31.8.8-6.8 1-13.5 1.1-20.3.1-6.5-.8-12.1-6.3-16.2-4.9-3.6-11.5-.4-15.3 3.2-4.4 4.1-6.5 10.7-8.2 16.3-3.4 11.2-3.4 23.2-1.2 34.6.7 4 1.9 7.9 3.3 11.7-2.8 2.2-6 3.9-9.5 5.1-10.8 3.5-19-2.8-24-12-.8-1.5-1.6-3.1-2.3-4.8.8-2.3 1.7-4.5 2.4-6.8 3.7-10.9 5.7-22.4 6.6-33.8.8-9.5 1-20.9-8.1-26.5-2.9-1.8-6.2-.4-8.1 2.1-13.4 18.5-12.6 43.1-5.4 64.2-2.3 5.6-5.1 11-8.1 16.3-3.3 5.8-9.7 14.7-17.5 13.5-7.2-1.1-13-10.1-16.6-15.7-2.6-4.1-4.7-8.5-6.3-13.1.9-2.4 1.8-4.9 2.6-7.3 3.1-9.7 4.8-19.8 5.6-30 .7-8.5.9-20.4-8.3-24.4-2.7-1.2-6.7-1.1-8.1 2.1-8.1 18.1-9.7 37.9-4.6 57.1.2.6.4 1.3.6 1.9-5.6 14.3-14.2 27.5-24.5 38.8-4.7 5.1 2.7 12.5 7.6 7.6 9.2-9.4 16.9-20.2 22.9-31.8 1.8 3.3 3.8 6.6 6 9.6 6 8.4 13.6 16.2 24.5 16.8 10.2.5 18.4-8 23.9-15.4 2.6-3.6 5-7.4 7-11.5 5 7.9 12.2 14.2 21.9 15.6 9 1.3 17.7-1.5 25.1-6.5 4.3 7.4 9.9 14 16.4 19.4 7.5 6.2 16-4.8 8.2-10.5zm-68-82.3c.4 4.7-.7 10.6-.9 13.4-.5 5.2-1.4 10.4-2.6 15.5-1.3-10-.5-20.4 3.5-28.9zm46.1 29.7c.4-4.9 1.7-9.7 3.3-14.4.7-2.1 1.7-4.1 2.9-5.9.1-.1.5-.7.9-1.2.1.3.2.8.2 1.4.6 12-.4 24.9-4.1 36.3-.5 1.4-1 2.8-1.6 4.1-1.6-6.6-2.1-13.6-1.6-20.3z"/><path class="st4" d="M636.4 725.2c-21 64.1-43.1 127.8-66.8 190.9-2.8 7.6 8.8 12.2 11.6 4.6 23.7-63.2 45.6-127 65.3-191.5 2-6.6-7.9-10.7-10.1-4zM445.5 721.2c16.7 65.3 32.4 130.9 46.3 196.9 1.7 7.9 14 5.5 12.3-2.3-14-66-29.8-131.6-47.9-196.6-1.9-6.8-12.4-4.8-10.7 2z"/><path d="M448.7 315h178c1 .1 1.5.6 1.5 1.5v16.9c0 1-.5 1.5-1.5 1.5h-67v1.5c9.5 5.2 16.9 15.7 22.2 31.6l.8 5.5h44c1 .1 1.5.6 1.5 1.5v17c0 1-.5 1.5-1.5 1.5h-42.3c0 18.9-11.6 37.4-34.8 55.3-20.6 11.8-35.2 17.7-43.9 17.7 0 .5-.5.8-1.5.8l95.6 123.8v1.5h-36.3c-.4 0-37.3-47.9-110.9-143.8v-.8h11.5c40.6 0 65.1-14.6 73.2-43.9.5-3.5.8-6.3.8-8.5v-2.2h-89.4c-1 0-1.5-.5-1.5-1.5V375c.1-1 .6-1.5 1.5-1.5h88.6c-3-11.4-9.4-20.7-19.2-27.8-13.6-7.1-25.9-10.7-37.1-10.7h-32.4c-1 0-1.5-.5-1.5-1.5v-16.9c.3-1.1.8-1.6 1.6-1.6z" style="fill:#263672"/></svg>
