<svg version="1.1" id="Layer_1" xmlns="http://www.w3.org/2000/svg" x="0" y="0" viewBox="0 0 1080 1080" style="enable-background:new 0 0 1080 1080" xml:space="preserve"><style>.st0{fill:#fdd5c0}.st1{fill:#e4bfae}.st4{fill:#f16624}</style><g id="Group_447" transform="translate(-452 -2260)"><g id="Social_integration" transform="translate(452 2260)"><g id="Group_447-2" transform="translate(14.618 11.485)"><path id="Path_761" class="st0" d="M835.6 628.9c-40.3 0-73-32.7-73-73s32.7-73 73-73H653.1L674.3 314c7.5-60-35.1-114.7-95.1-122.2-4.5-.6-9.1-.8-13.6-.8h-8c-18.4 0-34 13.7-36.2 32l-8.5 68.2C499.1 400.6 406 482.9 295.6 482.9h-43.9v511l21 6.7c15.9 1.1 31.2 6.4 44.4 15.4 48.5 33.2 105.9 50.9 164.7 50.9h262.6c-40.3 0-73-32.7-73-73s32.7-73 73-73h54.7c-40.3 0-73-32.7-73-73s32.7-73 73-73h36.5c-40.3 0-73-32.7-73-73s32.7-73 73-73z"/><path id="Path_762" class="st0" d="m309.1 1000.6-21-6.7v-511h-36.5v511l21 6.7c15.9 1.1 31.2 6.4 44.4 15.4 48.5 33.2 105.9 50.9 164.7 50.9h36.5c-58.8 0-116.2-17.7-164.7-50.9-13.2-9-28.5-14.3-44.4-15.4z"/><path id="Path_763" class="st0" d="M872.1 628.9c-40.3 0-73-32.7-73-73s32.7-73 73-73h-36.5c-40.3 0-73 32.7-73 73s32.7 73 73 73c-40.3 0-73 32.7-73 73s32.7 73 73 73h36.5c-40.3 0-73-32.7-73-73 .1-40.3 32.7-73 73-73z"/><path id="Path_764" class="st0" d="M726.1 847.9c0 40.3 32.7 73 73 73h36.5c-40.3 0-73-32.7-73-73s32.7-73 73-73h-36.5c-40.3 0-72.9 32.7-73 73z"/><path id="Path_765" class="st0" d="M671.4 993.9c0 40.3 32.7 73 73 73h36.5c-40.3 0-73-32.7-73-73s32.7-73 73-73h-36.5c-40.3 0-73 32.7-73 73z"/></g><path id="Path_766" class="st1" d="M759 932.4h-36.5c-40.3 0-73 32.7-73 73s32.7 73 73 73H759c-40.3 0-73-32.7-73-73s32.7-73 73-73z"/><path id="Path_767" class="st1" d="M704.2 859.4c0 40.3 32.7 73 73 73h36.5c-40.3 0-73-32.7-73-73s32.7-73 73-73h-36.5c-40.3 0-72.9 32.7-73 73z"/><path id="Path_768" class="st1" d="M850.3 640.4c-40.3 0-73-32.7-73-73s32.7-73 73-73h-36.5c-40.3 0-73 32.7-73 73s32.7 73 73 73c-40.3 0-73 32.7-73 73s32.7 73 73 73h36.5c-40.3 0-73-32.7-73-73s32.6-73 73-73z"/><path id="Path_769" d="M10.7 421.4h255.5v657H10.7v-657z" style="fill:#283272"/><ellipse id="Ellipse_49" cx="140" cy="956.1" rx="61.2" ry="52.4" style="fill:#f1f2f2"/><path id="Path_770" class="st0" d="M1069.3 567.4c0-40.3-32.7-73-73-73h-146c-40.3 0-73 32.7-73 73s32.7 73 73 73h146c40.3 0 73-32.7 73-73z"/><path id="Path_771" class="st0" d="M777.3 713.4c0 40.3 32.7 73 73 73h146c40.3 0 73-32.7 73-73s-32.7-73-73-73h-146c-40.3 0-73 32.6-73 73z"/><path id="Path_772" class="st0" d="M813.8 786.4c-40.3 0-73 32.7-73 73s32.7 73 73 73h146c40.3 0 73-32.7 73-73s-32.7-73-73-73h-146z"/><path id="Path_773" class="st0" d="M759 932.4c-40.3 0-73 32.7-73 73s32.7 73 73 73h146c40.3 0 73-32.7 73-73s-32.7-73-73-73H759z"/><path id="Path_774" class="st4" d="M594.7 147.6c10.1 0 18.2-8.2 18.2-18.2V19.9c0-10.1-8.2-18.2-18.2-18.2-10.1 0-18.2 8.2-18.2 18.2v109.5c0 10.1 8.2 18.2 18.2 18.2z"/><path id="Path_775" class="st4" d="M439.9 201.1c7 7.2 18.5 7.5 25.8.5 7.2-7 7.5-18.5.5-25.8l-.5-.5-77.4-77.4c-7.1-7.1-18.7-7.1-25.8 0-7.1 7.1-7.1 18.7 0 25.8l77.4 77.4z"/><path id="Path_776" class="st4" d="M284.5 348.4H394c10.1 0 18.2-8.2 18.2-18.2S404 312 394 312H284.5c-10.1 0-18.2 8.2-18.2 18.2s8.1 18.2 18.2 18.2z"/><path id="Path_777" class="st4" d="M736.7 206.4c4.8 0 9.5-1.9 12.9-5.3l77.4-77.4c7.1-7.1 7.1-18.7 0-25.8-7.1-7.1-18.7-7.1-25.8 0l-77.4 77.4c-7.1 7.1-7.1 18.7 0 25.8 3.4 3.4 8 5.3 12.9 5.3z"/><path id="Path_778" class="st4" d="M777.3 330.1c0 10.1 8.2 18.2 18.2 18.2H905c10.1 0 18.2-8.2 18.2-18.2s-8.2-18.2-18.2-18.2H795.5c-10.1 0-18.2 8.1-18.2 18.2z"/></g></g></svg>
