<svg version="1.1" id="Layer_1" xmlns="http://www.w3.org/2000/svg" x="0" y="0" viewBox="0 0 1080 1080" style="enable-background:new 0 0 1080 1080" xml:space="preserve"><style>.st0{fill:#283372}.st1{fill:#f7be9d}.st2{fill:#d29b6e}.st6{fill:#c8d0e2}.st8{fill:#f58355}.st11{fill:#fbb47f}</style><path class="st0" d="M624.6 398.3v18.4c0 22.5 3.6 44.9 10.8 66.3l41.7 125h78.7V319.6h-52.5c-43.5 0-78.7 35.2-78.7 78.7z"/><path class="st0" d="M983.6 452.7 939.3 608 729.5 424.5c-29 0-52.4-23.5-52.4-52.4 0-43.4 35.2-78.7 78.7-78.7h183.5c29 0 52.4 23.5 52.4 52.4v49.3c0 19.5-2.7 38.9-8.1 57.6z"/><path class="st1" d="M729.5 686.7h157.3v116H729.5z"/><path class="st2" d="M729.5 734.8c50.4 20.6 106.9 20.6 157.3 0v-48.2H729.5v48.2z"/><path d="m1013.3 786.4-126.5-36.1-78.7 52.2-78.7-52.2L603 786.4c-33.8 9.6-57.1 40.5-57 75.6v191.7c0 14.5 11.8 26.3 26.3 26.3h471.9c14.5 0 26.3-11.8 26.3-26.3V862c0-35.2-23.4-66-57.2-75.6z" style="fill:#d6dcec"/><path d="M834.4 1079.9H782l13.1-277.1h26.3l13 277.1z" style="fill:#afb9d2"/><path class="st1" d="M808.2 712.9c-86.9 0-157.3-70.4-157.3-157.3v-30.8c0-13.9 5.5-27.2 15.4-37.1l47.5-47.5c10-10.2 23.8-15.7 38.1-15.4 83.8 2.6 158 20.6 198.5 60.2 9.8 9.8 15.3 23.2 15.1 37.1v33.4c.1 86.9-70.3 157.3-157.2 157.4h-.1z"/><path d="M821.3 855.1H795c-7.2 0-13.1-5.9-13.1-13.1v-39.3h52.4V842c0 7.2-5.8 13.1-13 13.1z" style="fill:#959cb5"/><path class="st6" d="m746.1 691.3-44.5 33.9c-6.9 5.3-16.8 3.9-22.1-3-.5-.6-.9-1.3-1.3-2l-39.9-72.8 16-24.5c3.1-4.9 9.6-6.3 14.5-3.1.5.3 1 .7 1.4 1.1l75.9 70.4zM746.1 691.3l44.5 33.9c6.9 5.3 16.8 3.9 22.1-3 .5-.6.9-1.3 1.3-2l39.9-72.8-16-24.5c-3.1-4.9-9.6-6.3-14.5-3.1-.5.3-1 .7-1.4 1.1l-75.9 70.4z" transform="translate(62.073 111.189)"/><path d="m762.2 817-200.8-73-144 48-144-48-200.7 73c-37.9 13.8-63.2 49.8-63.2 90.2v148.7c0 13.3 10.8 24.1 24.1 24.1h767.9c13.3 0 24.1-10.8 24.1-24.1V907.2c-.1-40.4-25.4-76.5-63.4-90.2z" style="fill:#f26724"/><path class="st0" d="m392.3 840-22.8 240h96l-22.8-240h-50.4z"/><path class="st0" d="M442.6 872.9h-50.4c-9.3 0-16.8-7.5-16.8-16.8V792h84v64.2c.1 9.2-7.5 16.7-16.8 16.7.1 0 .1 0 0 0zM681.4 249V48c0-26.5-21.5-48-48-48h-288c-106 0-192 86-192 192v57c0 25.8 4.2 51.4 12.3 75.9l8 24c2.4 7.3 3.7 15 3.7 22.8V384h480v-12.3c0-7.7 1.3-15.4 3.7-22.8l8-24c8.2-24.4 12.3-50.1 12.3-75.9z"/><path class="st1" d="M273.5 576h288v216h-288z"/><path class="st2" d="M273.5 657.1c89 51.8 199 51.8 288 0V576h-288v81.1z"/><path class="st8" d="M387.6 683.7 311 760.3c-9.4 9.4-24.7 9.3-34-.1-.7-.7-1.4-1.5-2-2.3l-79.4-104.6 20.8-43.7c5.7-12 20.1-17.1 32.1-11.3.7.4 1.5.7 2.2 1.2l136.9 84.2z" transform="translate(29.809 108.212)"/><path class="st8" d="m387.6 683.7 76.5 76.5c9.4 9.4 24.7 9.3 34-.1.7-.7 1.4-1.5 2-2.3l79.4-104.6-20.8-43.7c-5.7-12-20.1-17.1-32.1-11.3-.7.4-1.5.7-2.2 1.2l-136.8 84.3z" transform="translate(29.809 108.212)"/><path class="st1" d="M417.5 648c-132.5 0-240-107.4-240-240v-28.1c0-12.7 5.1-24.9 14.1-33.9l19.9-19.9c9-9 14.1-21.2 14.1-33.9v-57.5c-.1-11.1 7.5-20.7 18.3-23.3 56.8-13.4 233.3-45.2 353.7 43.2 7.7 5.9 12.2 15.1 12.1 24.8v12.8c0 12.7 5.1 24.9 14.1 33.9l19.9 19.9c9 9 14.1 21.2 14.1 33.9V408c-.3 132.5-107.7 240-240.3 240z"/><path style="fill:#283571" d="m147.5 557-26.3 53.2-58.6 8.5L105 660l-10 58.4 52.5-27.5 52.4 27.5-10-58.4 42.4-41.3-58.6-8.5z"/><path style="fill:#f89631" d="m31.8 546.6 20.6-10.2 20.1 11-3.5-22.7L85.8 509l-22.7-3.7-9.7-20.8-10.6 20.4-22.8 2.8 16.2 16.4z"/><path class="st11" d="m224.9 758.3 34.1 89.3c2.2 5.7 1.8 11.8-.5 17-5.1 11.2-18.4 16.2-29.6 11.2-5.2-2.3-9.6-6.7-11.8-12.4-5.9 9.7-18.2 13.4-28.6 8.9-4.9-2.1-9-5.9-11.3-10.9-5.8 9.8-18.2 13.5-28.6 8.9-4.8-2.1-8.9-5.8-11.2-10.7-5.6 8.6-16.7 11.7-26.1 7.6-4.8-2.1-8.9-6.1-10.9-11l-17.1-44.5"/><path class="st11" d="m102.7 834.9 122-42.7c5.5-1.9 8.5-8 6.5-13.5l-6.9-19.8c-1.9-5.5-8-8.5-13.5-6.5l-122 42.7c-5.5 1.9-8.5 8-6.5 13.5l6.9 19.8c2 5.5 8 8.4 13.5 6.5z"/></svg>
