<svg version="1.1" id="Layer_1" xmlns="http://www.w3.org/2000/svg" x="0" y="0" viewBox="0 0 1080 1080" style="enable-background:new 0 0 1080 1080" xml:space="preserve"><style>.st0{fill:#283372}.st3{fill:#d0d2d3}.st4{fill:#283571}</style><path class="st0" d="M770.6 69.8H308.7c-31.6 0-57.1 31.7-57.1 53.5v231.3c0 21.8 25.6 39.5 57.1 39.5h461.9c31.5 0 57.1-17.7 57.1-39.5V123.3c0-21.9-25.5-53.5-57.1-53.5zm-.8 245.7c0 21.8-25.6 39.5-57.1 39.5H366.6c-31.5 0-57.1-17.7-57.1-39.5V162.3c0-21.8 25.6-39.5 57.1-39.5h346.1c31.6 0 57.1 17.7 57.1 39.5v153.2z"/><path style="fill:#f58542" d="M23.2 252.2h1036.5v650.9H23.2z"/><path style="fill:#f7be9d" d="M2.9 245.9v236.7l538.6 52.7 538.5-48.5V245.9z"/><path class="st3" d="M500.5 475.9h109.7v118.8H500.5z"/><path class="st0" d="M576.4 521.8c0 11.6-9.4 21-21 21s-21-9.4-21-21 9.4-21 21-21 21 9.4 21 21z"/><path class="st4" d="M545.3 524h20.6v40.6h-20.6z"/><path d="m457.4 748.6 255.3 201.6c4.6 4 5.1 11.1 1.1 15.7l-62.9 72.1c-4.1 4.6-11.1 5.1-15.7 1.1L400.6 813.8l56.8-65.2z" style="fill:#273771"/><path class="st3" d="m450 861.3-49.4-47.5 56.8-65.2 53.8 42.5z"/><path class="st4" d="M125.8 816.9c94.1 82 237 72.2 319-21.9 82.1-94.1 72.3-237-21.9-319-94.1-82.1-237-72.2-319 21.9s-72.2 236.9 21.9 319zm23.1-26.5C69.4 721.1 61.2 600.5 130.5 521c69.3-79.5 189.9-87.8 269.4-18.5 79.5 69.3 87.8 189.9 18.5 269.4-69.3 79.5-190 87.8-269.5 18.5z"/><path d="M143.1 797.1c83.2 72.5 209.5 63.9 282-19.3s63.9-209.5-19.4-282c-83.2-72.5-209.5-63.9-282 19.3s-63.9 209.5 19.4 282z" style="opacity:.3;fill:#e6e6e7"/><path d="M249.8 477.2c71.7-8.7 143.8 29.4 175.2 98.7 31.4 69.3 12.4 148.6-41.4 196.8 0 0-19.4-104.7-45.8-163-27.2-60-88-132.5-88-132.5z" style="opacity:.5;fill:#fff"/></svg>
