<svg version="1.1" id="Layer_1" xmlns="http://www.w3.org/2000/svg" x="0" y="0" viewBox="0 0 1080 1080" style="enable-background:new 0 0 1080 1080" xml:space="preserve"><style>.st0{fill:#273771}.st2{fill:#e55f26}.st3{opacity:.4;fill:#969595;enable-background:new}.st4{fill:#fff}</style><path class="st0" d="M851.1 1080H56c-9.7 0-17.6-7.9-17.6-17.6V17.6C38.4 7.9 46.3 0 56 0h795.1c9.7 0 17.6 7.9 17.6 17.6v1044.8c0 9.7-7.9 17.6-17.6 17.6z"/><path d="M878.8 1080H83.7c-9.7 0-17.6-7.9-17.6-17.6V17.6C66 7.9 73.9 0 83.7 0h795.1c9.7 0 17.6 7.9 17.6 17.6v1044.8c0 9.7-7.9 17.6-17.6 17.6z" style="fill:#e4e4e3"/><path class="st2" d="M189.5 149.4c0 11.7 9.5 21.1 21.1 21.1h541.2c11.7 0 21.1-9.5 21.1-21.1s-9.5-21.1-21.1-21.1H210.6c-11.6 0-21.1 9.5-21.1 21.1z"/><path class="st3" d="M189.5 409.8c0 11.7 9.5 21.1 21.1 21.1h541.2c11.7 0 21.1-9.5 21.1-21.1 0-11.7-9.5-21.1-21.1-21.1H210.6c-11.6 0-21.1 9.5-21.1 21.1zM189.5 670.2c0 11.7 9.5 21.1 21.1 21.1h541.2c11.7 0 21.1-9.5 21.1-21.1 0-11.7-9.5-21.1-21.1-21.1H210.6c-11.6 0-21.1 9.4-21.1 21.1zM189.5 279.6c0 11.7 9.5 21.1 21.1 21.1h294.8c11.7 0 21.1-9.5 21.1-21.1 0-11.7-9.5-21.1-21.1-21.1H210.6c-11.6 0-21.1 9.5-21.1 21.1zM189.5 540c0 11.7 9.5 21.1 21.1 21.1h294.8c11.7 0 21.1-9.5 21.1-21.1s-9.5-21.1-21.1-21.1H210.6c-11.6 0-21.1 9.4-21.1 21.1z"/><circle class="st0" cx="233.9" cy="805.4" r="44.3"/><circle class="st0" cx="345.1" cy="805.4" r="44.3"/><circle class="st2" cx="849.5" cy="793.8" r="209.5"/><path class="st4" d="M923.3 860.2H775.8c-9.5 0-17 7.6-17 17s7.6 17 17 17h147.4c9.5 0 17-7.6 17-17s-7.6-17-16.9-17zM837.6 840.4c3.2 3.2 7.5 5 12 5s8.9-1.8 12-5l61-61c6.7-6.7 6.7-17.5 0-24.1-6.7-6.7-17.5-6.7-24.1 0l-31.9 31.9v-76.8c0-9.5-7.6-17-17-17-9.3 0-17 7.6-17 17v76.8l-31.9-31.9c-6.7-6.7-17.5-6.7-24.1 0-6.7 6.7-6.7 17.5 0 24.1l61 61z"/></svg>
