<svg version="1.1" id="Layer_1" xmlns="http://www.w3.org/2000/svg" x="0" y="0" viewBox="0 0 1080 1080" style="enable-background:new 0 0 1080 1080" xml:space="preserve"><style>.st0{fill:#eb6927}.st3{opacity:.5;fill:#bfbdbc}.st4{fill:#f5bc9a}.st5{fill:#283571}.st9{fill:#273771}.st10{fill:#fff}</style><path class="st0" d="M979.5 1079.5H255.2c-29.7 0-53.7-24-53.7-53.7V54.2c0-29.7 24-53.7 53.7-53.7h724.4c29.7 0 53.7 24 53.7 53.7v971.6c-.1 29.7-24.1 53.7-53.8 53.7z"/><path d="M937.6 1079.5H213.2c-29.7 0-53.7-24-53.7-53.7V54.2c0-29.7 24-53.7 53.7-53.7h724.4c29.7 0 53.7 24 53.7 53.7v971.6c0 29.7-24 53.7-53.7 53.7z" style="fill:#e3e3e2"/><path d="M269.1 165.2H870v77.5H269.1v-77.5z" style="opacity:.33;fill:#bfbdbc"/><path class="st3" d="M617.2 329.5H284.6c-8.6 0-15.5 8.7-15.5 19.4s6.9 19.4 15.5 19.4h332.6c8.6 0 15.5-8.7 15.5-19.4s-6.9-19.4-15.5-19.4zM617.2 885.4H284.6c-8.6 0-15.5 8.7-15.5 19.4s6.9 19.4 15.5 19.4h332.6c8.6 0 15.5-8.7 15.5-19.4s-6.9-19.4-15.5-19.4zM617.2 514.8H284.6c-8.6 0-15.5 8.7-15.5 19.4s6.9 19.4 15.5 19.4h332.6c8.6 0 15.5-8.7 15.5-19.4s-6.9-19.4-15.5-19.4zM617.2 700.1H284.6c-8.6 0-15.5 8.7-15.5 19.4s6.9 19.4 15.5 19.4h332.6c8.6 0 15.5-8.7 15.5-19.4s-6.9-19.4-15.5-19.4z"/><path class="st4" d="M183.2 917.9s29.4-37.5 29.3-37.4c2.1 1.4 13.4 10.3 15.9 9.2l14.6-6.4c2.3-1 3.8-2.9 4.3-5.1 1.3.1 27.1 1.3 21.9-14.2 6.3 17.5-1.5 26.7-1.5 26.7s-42.1 32.5-53.6 38c-11.5 5.6-25.2 51.3-25.2 51.3l-24.5-11.1 18.8-51z"/><path class="st5" d="M404 660.2c-7.2-18-24.8-28.8-43.1-28l31.1 78c13.8-12.1 19.2-32 12-50z"/><path class="st0" d="M206.3 796.6 147 820.2c-7.7 3.1-16.4-.7-19.5-8.4L99.4 741c-3.1-7.7.7-16.4 8.4-19.5l59.3-23.6 39.2 98.7z"/><path transform="rotate(-21.705 166.763 755.342)" class="st5" d="M145.3 702.1h43v106.2h-43z"/><path class="st0" d="m428.4 800.9-103-258.6c-28.7 68.5-83.7 125.8-158.1 155.5l39.3 98.7c74.4-29.5 153.9-25.7 221.8 4.4z"/><path class="st5" d="m167.1 812.5 55.6 108.7c2.7 4 7.8 5.7 12.3 3.9l38.3-15.3c6-2.4 8.3-9.8 4.8-15.2l-71.8-97.7-39.2 15.6z"/><path d="m326.4 544.7 102 256.1c-66.8-29.6-144.8-33.7-218.2-5.7 22.4-15.1 160.6-114.9 116.2-250.4z" style="fill:#d4612c"/><path d="M247.4 878.1c-.1 0-.1 0 0 0z" style="fill:none"/><path class="st4" d="M247.4 878.1h-.6.1c-5.2 0-8.4-4.2-8.4-4.2s-15-15-23.1-26.6c-8-11.5-2.3-18.3-2.3-18.3l2.1-1 11.7-5.5s20.8 4.4 36.5 29.5c2.7 4.3 4.6 8.3 5.9 11.9 5.1 15.5-20.6 14.2-21.9 14.2z"/><path class="st4" d="M158.2 899.6c0-2.1.4-55 .4-55l41.2-41.6s9.1-1.4 13.3 0c4.2 1.4 0 31.1-17.5 38.4 2.8 5.8 7.3 14.9 9.2 28.8l2.8 20.8-7.8 24.7s-4.3 0-6.4-1.9l-10.3 9.4-13.6 48.6-32.7-17.2c-.1 0 21.4-52.9 21.4-55z"/><path style="fill:#2b3b53" d="m118.5 940.1 81.6 37.1-28.3 102.3h-125z"/><path class="st5" d="M469 534.2c13.6 8.1 26.2 17.4 36.8 29.3 17.3 19.4 28.3 41.9 32.6 67.3 5.5 32.7-.2 63.6-17.1 92.3-.4.7-.7 1.5-1.1 2.3-.3.1-.6.2-.8.2-3.8-3.7-8.6-5.9-13.1-8.6-2.3-1.4-2.6-2.2-1.2-4.6 12.3-20.8 17.8-43.3 15.6-67.4-3.7-40.1-23.1-70.6-57.5-91.5-3-1.8-3.4-3-1.6-5.9 2.5-4.2 5.1-8.4 6.7-13.2.2-.1.4-.1.7-.2z"/><path class="st5" d="M486.2 706c-4.7-3-9.3-6.1-14.1-9-2-1.2-1.6-2.2-.6-3.8 10.8-18.2 13.7-37.8 8.7-58.2-5.2-21-17.5-37.3-36.3-48.2-2.8-1.6-3.4-2.7-1.7-5.5 2.1-3.3 3.8-6.9 5.4-10.5 1.1-2.4 2-3 4.6-1.6 47.8 26.3 64.1 89.6 34.9 135.7-.3.4-.6.7-.9 1.1z"/><path class="st5" d="M461.9 642.7c3.2 12.3.9 27.6-8 42.1-1.1 1.8-1.9 2.3-3.8.8-3.6-2.9-7.5-5.5-11.4-8.1-1.5-1-1.7-1.6-.8-3.3 10.7-20.4 4.9-42.3-14.5-54.3-1.5-.9-2-1.5-1.1-3.2 2.1-4 4-8.1 5.7-12.3 1-2.4 1.7-2.9 4.3-1.6 13.5 6.7 24.2 20.1 29.6 39.9z"/><circle class="st9" cx="791.6" cy="368.2" r="88.6"/><path class="st10" d="m842.6 342.7-59 65.9c-4.1 4.7-11.5 5-15.9.6l-26.6-27.7c-4.4-4.3-4.4-11.2-.1-15.6 4.3-4.4 11.2-4.4 15.6-.1l18.3 19.7 51.3-57.4c5.1-5.2 10.8-4.8 15.5-.9 4.5 4.1 5 11 .9 15.5z"/><circle class="st9" cx="791.6" cy="719.5" r="88.6"/><path class="st10" d="m842.6 694-59 65.9c-4.1 4.7-11.5 5-15.9.6l-26.6-27.7c-4.4-4.3-4.4-11.2-.1-15.6s11.2-4.4 15.6-.1l18.3 19.7 51.3-57.4c5.1-5.2 10.8-4.8 15.5-.9 4.5 4 5 11 .9 15.5z"/></svg>
