<svg version="1.1" id="Layer_1" xmlns="http://www.w3.org/2000/svg" x="0" y="0" viewBox="0 0 1080 1080" style="enable-background:new 0 0 1080 1080" xml:space="preserve"><style>.st1{fill:#f4eeec}.st2{fill:#24305E}.st3{fill:#e5ecf1}</style><g id="Group_401" transform="translate(-15.818)"><circle id="Ellipse_42" cx="555.8" cy="573.4" r="506.6" style="fill:#F76C6C"/><path id="Path_678" class="st1" d="m414.2 456.1-54.7 77.2c-26.3 37.2-17.5 88.7 19.7 115.1l13.9 9.8c22.7 16.1 35.8 42.6 34.8 70.4l-8 217.8c-1 28.6 21.3 52.6 49.9 53.6 11.2.4 22.1-2.8 31.3-9.2l149.9-104c21.7-15.1 40.6-33.8 55.9-55.4l96.5-136.3c20.8-29.4 13.8-70-15.5-90.8L546.6 433.5c-42.8-30.3-102-20.2-132.4 22.6z"/><path id="Path_679" class="st1" d="M524.9 115.4c-11.4-13.1-13.5-32-5.3-47.3-85.1 5.9-167.3 33.4-238.9 79.8l-71 71c-18.4 18.4-28.7 43.3-28.7 69.4v79.1c0 14.1 11.4 25.4 25.5 25.4 5.2 0 10.2-1.6 14.5-4.5l58.3-40.5c19-13.2 41.5-20.3 64.6-20.3H419c24.6 0 48.2-9.8 65.6-27.2l74.1-74.1c18.9-18.9 20-49.3 2.4-69.5l-36.2-41.3z"/><path id="Path_680" class="st1" d="m892.7 195-29 100.9c-11.4 39.7-8.4 82.2 8.6 119.9l31.7 70.5c20.1 44.8 72.8 64.9 117.7 44.7 4.6-2.1 9-4.5 13.2-7.3l23.5-15.8c-15.8-120.8-74.6-232-165.7-312.9z"/><path id="Path_681" class="st2" d="M1061.2 260.5c-3.2 77.2-62 144.6-91 173.4-8.8 8.8-23 8.8-31.8 0-29.8-29.5-91.2-100.1-91.2-180 0-59.1 48-107.1 107.1-107.1h1.2c59.8 1.3 107.2 50.9 105.9 110.7-.1 1-.2 2-.2 3z"/><circle id="Ellipse_43" class="st3" cx="954.3" cy="257.9" r="52.4"/><path id="Path_682" class="st2" d="M724.4 431.2c-3.2 77.2-62 144.6-91 173.4-8.8 8.8-23 8.8-31.8 0-29.8-29.5-91.2-100.1-91.2-180 0-59.1 48-107.1 107.1-107.1h1.2c59.8 1.3 107.2 50.8 105.9 110.6 0 1.1-.1 2.1-.2 3.1z"/><circle id="Ellipse_44" class="st3" cx="617.5" cy="428.7" r="52.4"/><path id="Path_683" class="st2" d="M558.4 682.5c-3.2 77.2-62 144.6-91 173.4-8.8 8.8-23 8.8-31.8 0-29.8-29.5-91.2-100.1-91.2-180 0-59.1 48-107.1 107.1-107.1h1.2c59.8 1.3 107.2 50.8 105.9 110.6-.1 1.1-.1 2.1-.2 3.1z"/><circle id="Ellipse_45" class="st3" cx="451.5" cy="679.9" r="52.4"/><path id="Path_684" class="st2" d="M321.8 113.7c-3.2 77.2-62 144.6-91 173.4-8.8 8.8-23 8.8-31.8 0-29.8-29.5-91.1-100.2-91.1-180C107.8 48 155.8 0 214.9 0h1c59.8 1.3 107.2 50.8 105.9 110.6v3.1z"/><circle id="Ellipse_46" class="st3" cx="214.9" cy="111.1" r="52.4"/></g></svg>
