<svg version="1.1" id="Layer_1" xmlns="http://www.w3.org/2000/svg" x="0" y="0" viewBox="0 0 1080 1080" style="enable-background:new 0 0 1080 1080" xml:space="preserve"><style>.st3{fill:#fff}.st4{fill:#d3d1d0}.st8{fill:#283571}</style><circle cx="477.9" cy="423.4" r="423.4" style="fill:#ed6926"/><path d="M478.3 813.9c-215.7.2-390.7-174.5-390.9-390.1S261.9 33.1 477.6 33s390.6 174.5 390.8 390.1c.1 103.6-41 203-114.2 276.3-73 73.5-172.4 114.7-275.9 114.5z" style="fill:#ef8140"/><path d="M716.3 274.7H239.6v-54.2l238.3-75.8 238.3 75.8v54.2z" style="fill:#19284f"/><circle class="st3" cx="477.9" cy="209.7" r="32.5"/><path class="st3" d="M261.2 318.1h65v249.2h-65V318.1zM380.4 318.1h65v249.2h-65V318.1zM510.4 318.1h65v249.2h-65V318.1zM629.6 318.1h65v249.2h-65V318.1z"/><path class="st4" d="M261.2 318.1h65v32.5h-65v-32.5zM380.4 318.1h65v32.5h-65v-32.5zM510.4 318.1h65v32.5h-65v-32.5zM629.6 318.1h65v32.5h-65v-32.5z"/><path class="st3" d="M239.6 567.2h476.7v86.7H239.6v-86.7z"/><path class="st3" d="M347.9 567.2h260v86.7h-260v-86.7z"/><path class="st3" d="M347.9 610.6h260v43.3h-260v-43.3zM694.6 318.1H261.2l-21.7-21.7v-21.7h476.7v21.7l-21.6 21.7zM402.1 209.7h21.7v21.7h-21.7v-21.7zM532.1 209.7h21.7v21.7h-21.7v-21.7z"/><path d="M518.3 974.6c-.2 7.5-4 8.8-11.4 7.8-25.8-3.5-51.1-26.9-56.3-52.8-1.1-5.7-3.1-11.9 4.7-14.2 6.2-1.8 13.2.1 14.1 6.5 3.4 24.1 18 36.1 40.6 41.1 5.6 1.2 7.9 5.8 8.3 11.6z" style="fill:#969594"/><path d="M639.4 638.7c5.9 5.9 9.6 14.2 9.6 23.2v90.7c13.1-10.4 31.9-9.1 43.8 2.6 5.5 5.4 9.2 12.8 9.8 20.9 13.1-10.4 32-9.2 43.9 2.5 5.5 5.4 9.1 12.6 9.8 20.6 12.2-9 29-7.5 39.7 3 5.5 5.3 9 13.1 9.1 20.8l.1 158.6c0 15.3-2.5 29.4-9.8 42.4h2.2c7.6 0 13.8 6.2 13.8 13.8v21.5c0 7.6-6.2 13.8-13.8 13.8H578c-7.6 0-13.8-6.2-13.8-13.8V1038c0-7.6 6.2-13.8 13.8-13.8h1.5c-9.3-21.2-20.9-41.6-33.5-61-13.1-20.2-27.3-39.4-41.1-57.9-5.3-7-7.5-15.7-6.2-24.4 2.6-17.5 18.4-30 36.1-27.4 8.2 1.2 16.1 5.5 22.3 12l26.3 27.9V661.9c0-9 3.7-17.3 9.6-23.2 12.7-12.8 33.6-12.8 46.4 0z" style="fill:#fab27e"/><path d="M818.2 1080H555.6c-5 0-9-4.1-9-9v-38.8c0-5 4.1-9 9-9h262.7c5 0 9 4.1 9 9v38.8c0 4.9-4.1 9-9.1 9z" style="fill-rule:evenodd;clip-rule:evenodd;fill:#283571"/><path class="st8" d="M612.7 571.7c0-2.5 2-4.4 4.4-4.4 2.5 0 4.4 2 4.4 4.4v28.8c0 2.5-2 4.4-4.4 4.4-2.4 0-4.4-2-4.4-4.4v-28.8zM558.4 597.8c-1.7-1.7-1.7-4.6 0-6.3 1.7-1.7 4.5-1.7 6.3 0l20.4 20.4c1.7 1.7 1.7 4.5 0 6.3-1.7 1.7-4.5 1.7-6.3 0l-20.4-20.4zM538.5 654.7c-2.4 0-4.4-2-4.4-4.4s2-4.4 4.4-4.4h28.8c2.4 0 4.4 2 4.4 4.4s-2 4.4-4.4 4.4h-28.8zM695.7 645.8c2.4 0 4.4 2 4.4 4.4s-2 4.4-4.4 4.4h-28.8c-2.4 0-4.4-2-4.4-4.4s2-4.4 4.4-4.4h28.8zM669.5 591.6c1.7-1.7 4.5-1.7 6.3 0 1.7 1.7 1.7 4.5 0 6.3l-20.4 20.4c-1.7 1.7-4.6 1.7-6.3 0-1.7-1.7-1.7-4.5 0-6.3l20.4-20.4z"/><circle class="st8" cx="885.1" cy="396.8" r="140.4"/><circle cx="962.7" cy="220.6" r="36.3" style="fill:#f89631"/><path class="st3" d="m970.4 357.2-93.2 104.2c-6.6 7.4-18 7.8-25.1.9l-44.9-44.5c-6.9-6.7-7-17.7-.3-24.6 6.7-6.9 17.7-7 24.6-.3l32 31.8 81.1-90.7c8-8.2 17.1-7.5 24.4-1.3 7.2 6.4 7.8 17.3 1.4 24.5z"/></svg>
