<svg version="1.1" id="Layer_1" xmlns="http://www.w3.org/2000/svg" x="0" y="0" viewBox="0 0 1080 1080" style="enable-background:new 0 0 1080 1080" xml:space="preserve"><style>.st0{fill:#F76C6C}.st1{fill:#f1f2f2}.st2{fill:#24305E}.st3{opacity:.2;fill:#F76C6C;enable-background:new}</style><g id="Group_373" transform="translate(-2547.535 -1764.266)"><path id="Path_378" class="st0" d="M3226.4 2627.4H2644c-10.6 0-19.2 8.6-19.2 19.2v77.2H2567c-10.6 0-19.2 8.6-19.2 19.2v77.2c0 10.6 8.6 19.2 19.2 19.2h887.2c10.6 0 19.2-8.6 19.2-19.2V2735"/><path id="Path_379" class="st1" d="M2624.7 2685.3h790.7v38.6h-790.7v-38.6z"/><path id="Path_380" class="st2" d="M2971.9 2241.7h77.2v308.6h-77.2v-308.6z"/><path id="Path_381" class="st2" d="M3261.2 2241.7h77.2v308.6h-77.2v-308.6z"/><path id="Path_382" class="st0" d="M2586 2164.5h848.7c21.3 0 38.6-17.3 38.5-38.6 0-12.1-5.7-23.5-15.4-30.8l-424.3-318.2c-13.7-10.3-32.6-10.3-46.3 0l-424.3 318.2c-17 12.8-20.5 37-7.7 54 7.3 9.7 18.7 15.4 30.8 15.4z"/><circle id="Ellipse_38" class="st1" cx="3010.4" cy="2010.2" r="57.8"/><path id="Path_383" class="st2" d="M2682.6 2241.7h77.2v308.6h-77.2v-308.6z"/><g id="Group_325" transform="translate(2551.558 1780.736)"><path id="Path_384" class="st2" d="M92.5 383.8V461h154.3v-77.1"/><path id="Path_385" class="st2" d="M246.7 846.7v-77.2H92.5v77.2"/><path id="Path_386" class="st2" d="M381.7 383.8V461H536v-77.1"/><path id="Path_387" class="st2" d="M535.9 846.7v-77.2H381.7v77.2"/><path id="Path_388" class="st2" d="M671 383.8V461h154.3v-77.1"/></g><path id="Path_389" class="st3" d="m3157.9 1870.2-124.4-93.3c-13.7-10.3-32.6-10.3-46.3 0L2620.5 2052c296.7 10.1 464-109.6 537.4-181.8z"/><path id="Path_390" class="st3" d="M3226 2627.4c21.4 115.2 132 191.3 247.2 170.1v-62.4l-246.9-107.7h-.3z"/><path id="Path_685" d="M3415.4 2318.8c117.2 0 212.1 95 212.1 212.1 0 117.2-95 212.1-212.1 212.1-117.2 0-212.1-95-212.1-212.1-.1-117.1 94.9-212.1 212.1-212.1z" style="fill:#fff"/><path id="Path_686" class="st2" d="m3525 2498-71.1-10.9-31.9-67.9c-2.1-3.6-6.7-4.9-10.3-2.8-1.2.7-2.1 1.6-2.8 2.8l-31.9 67.9-71.1 10.9c-3.9.6-6.7 4.2-6.1 8.2.2 1.5.9 2.9 2 4l51.7 53-12.2 74.9c-.7 3.9 2 7.6 5.9 8.3 1.6.3 3.3 0 4.8-.8l63.6-35.1 63.5 35.1c3.5 2 7.9.7 9.8-2.7.8-1.4 1.1-3.1.8-4.8l-12.2-74.9 51.7-53c2.8-2.8 2.8-7.4 0-10.2-1.3-1-2.7-1.8-4.2-2z"/></g></svg>
