<svg version="1.1" id="Layer_1" xmlns="http://www.w3.org/2000/svg" x="0" y="0" viewBox="0 0 1080 1080" style="enable-background:new 0 0 1080 1080" xml:space="preserve"><style>.st1{fill:#ffccb3}.st3{fill:#24305E}.st4{fill:#fff}</style><g id="Group_408" transform="translate(-10.997)"><path id="Path_687" d="M550.9 63.3c-282 0-510.5 228.7-510.4 510.6 0 210.8 129.6 399.9 326.2 476h368.4c262.9-101.8 393.6-397.4 291.8-660.4-76.1-196.6-265.2-326.2-476-326.2z" style="fill:#F76C6C"/><path id="Path_688" class="st1" d="M618.3 740.2c-20.9-18.9-34.2-44.9-37.4-72.9-9.3 4.8-19.6 7.3-30 7.2-1.5 0-3 0-4.6-.2v218.2c1.5 0 3-.1 4.6-.1 21.8 0 43.4 4.4 63.4 13.1l14.6-136c1.2-10.8-2.7-21.6-10.6-29.3z"/><path id="Path_689" class="st1" d="m614.3 905.6 14.6-136c-10.2 24.4-38.2 35.9-62.6 25.8-1.6-.7-3.2-1.5-4.8-2.3-4.7-2.4-10-3.2-15.2-2.4v101.8c1.5 0 3-.1 4.6-.1 21.8 0 43.4 4.4 63.4 13.2z"/><path id="Path_690" class="st1" d="M520.8 667.3c-3.2 28-16.5 54-37.4 72.9-7.9 7.6-11.8 18.5-10.6 29.4l14.6 136c20-8.7 41.6-13.2 63.4-13.1V674.6c-10.4 0-20.7-2.5-30-7.3z"/><path id="Path_691" class="st1" d="M550.9 892.5V790.4c-3.7-.1-7.3.7-10.6 2.2-25.1 10.5-54 .6-67.4-23l14.6 136c20-8.7 41.6-13.2 63.4-13.1z"/><path id="Path_692" d="M492.1 583.3c-16.5 32.5-3.6 72.2 28.9 88.7s72.2 3.6 88.7-28.9c9.6-18.8 9.6-41 0-59.8-36.3 21.4-81.3 21.4-117.6 0z" style="fill:#ffab8a"/><g id="Group_402" transform="translate(27.191 36.864)"><path id="Path_693" class="st1" d="M651.8 915.4c-52.6-70.7-152.5-85.5-223.2-32.9-12.5 9.3-23.6 20.4-32.9 32.9h256.1z"/></g><path id="Path_694" class="st1" d="M584.5 891.5c-61.2-13.1-124.4 10.7-161.7 60.9h155.3c-15.6-13-17.8-36.1-4.8-51.8 3.1-3.8 6.9-6.9 11.2-9.1z"/><path id="Path_695" class="st1" d="M294 94.3h-.1c.6 100.3 20.6 329 178.3 478.5 44.3 41.5 113.1 41.5 157.4 0C787.3 423.3 807.3 194.6 807.9 94.3H294z"/><g id="Group_403" transform="translate(20.428 .837)"><path id="Path_696" class="st3" d="M787.4 98.1H273.6c-17 .5-31.2-12.9-31.7-30-.5-17 12.9-31.2 30-31.7h515.5c17-.5 31.2 12.9 31.7 30 .5 17-12.9 31.2-30 31.7h-1.7z"/></g><path id="Path_697" class="st3" d="M443.3 68c0-17 13.8-30.8 30.8-30.8H294c-17-.5-31.2 12.9-31.7 30-.5 17 12.9 31.2 30 31.7H474.2c-17.1 0-30.9-13.8-30.9-30.9z"/><g id="Group_404" transform="translate(12.069)"><path id="Path_698" class="st4" d="M387.5 616.5c-10.7-6.7-13.8-20.8-7.1-31.5 9.7-16.5 4.1-37.8-12.4-47.4-5.3-3.1-11.4-4.8-17.6-4.8h-1.6c-21.9.5-43.1-7.8-58.7-23.2C119.9 341.2 69.7 184.3 54.9 105.8c-8.1-40.3 18-79.6 58.3-87.6 40.3-8.1 79.6 18 87.6 58.3.2 1 .4 2 .5 2.9l.3 1.9c4.4 23.4 25.1 40.1 48.8 39.4l26.7-.7c12.6-.4 23.1 9.6 23.5 22.2s-9.6 23.1-22.2 23.5l-26.7.6c-46.3 1.2-86.5-31.4-95-76.9l-.5-2.1c-2.8-15.6-17.8-26-33.5-23.2s-26 17.8-23.2 33.5c13.8 73.2 61 220.1 222.5 379.7 6.7 6.7 15.9 10.3 25.4 10.1h.6c44.3-1.4 81.4 33.4 82.7 77.8.5 15.7-3.6 31.2-11.9 44.6-6.6 10.3-20.6 13.4-31.3 6.7z"/></g><path id="Path_699" class="st3" d="M713.1 947.7H388.8c-15.1 0-27.4 12.3-27.4 27.4v72.6c14.7 5.9 29.6 11.1 44.9 15.6h289.2c15.3-4.5 30.3-9.7 44.9-15.6v-72.6c-.2-15-12.3-27.2-27.3-27.4z"/><path id="Path_700" class="st3" d="M361.4 975.1v72.6c14.7 5.9 29.6 11.1 44.9 15.6h140.1v-13.5c.4-9.2 5.1-17.8 12.7-23 3.6-2.8 4.6-7.8 2.5-11.8-3.7-7.6-2.7-16.6 2.7-23.1 2-2.8 2.3-6.4.8-9.4-5.2-9.3-3.3-21 4.7-28 1.9-1.7 2.9-4.1 3-6.7H388.6c-15.1 0-27.4 12.3-27.4 27.4l.2-.1z"/><g id="Group_405" transform="translate(13.727)"><path id="Path_701" class="st4" d="M117.6 54.9c0 3.6-.7 7.1-2 10.4 14.7-6 31.5 1 37.5 15.7.8 2 1.4 4 1.8 6.2l.4 2.1c8.5 45.5 48.7 78.1 95 76.9l26.7-.7c12.6-.4 22.5-10.9 22.2-23.5-.4-12.6-10.9-22.5-23.5-22.2l-26.7.7c-23.7.7-44.4-16-48.7-39.3l-.3-1.9c-6.4-36.4-38.5-62.7-75.4-61.9-11.6.3-23 3.4-33.2 8.9 14.7 1.2 26.2 13.6 26.2 28.6z"/></g><g id="Group_406" transform="translate(37.171)"><path id="Path_702" class="st4" d="M665 616.5c10.7-6.7 13.8-20.8 7.1-31.5-9.7-16.5-4.1-37.8 12.4-47.4 5.3-3.1 11.4-4.8 17.6-4.8h1.6c21.9.5 43.1-7.8 58.7-23.2 170.3-168.3 220.5-325.2 235.3-403.8 8.1-40.3-18-79.6-58.3-87.7-40.3-8.1-79.6 18-87.7 58.3-.2 1-.4 2-.5 2.9l-.3 1.9c-4.4 23.3-25 40-48.7 39.3l-26.7-.7c-12.6-.4-23.1 9.6-23.5 22.2-.4 12.6 9.6 23.1 22.2 23.5l26.7.7c46.3 1.2 86.6-31.5 95-77l.4-2.1c2.8-15.6 17.8-26 33.5-23.2 15.6 2.8 26 17.8 23.2 33.5-13.8 73.2-61 220.1-222.5 379.7-6.7 6.7-15.9 10.3-25.4 10.1h-.6c-44.3-1.4-81.4 33.4-82.7 77.8-.5 15.7 3.6 31.2 11.9 44.6 6.6 10.5 20.7 13.7 31.3 6.9.1 0 .1 0 0 0z"/></g><g id="Group_407" transform="translate(42.694)"><path id="Path_703" class="st4" d="M927.8 54.9c0 3.6.7 7.1 2 10.4-14.7-6-31.5 1-37.5 15.7-.8 2-1.4 4-1.8 6.2l-.4 2.1c-8.5 45.5-48.7 78.1-95 76.9l-26.7-.7c-12.6-.4-22.5-10.9-22.2-23.5.4-12.6 10.9-22.5 23.5-22.2l26.7.7c23.7.7 44.4-16 48.7-39.3l.3-1.9c6.4-36.4 38.5-62.7 75.4-61.9 11.6.3 23 3.3 33.2 8.9-14.7 1.2-26.2 13.6-26.2 28.6z"/></g></g></svg>
