<svg version="1.1" id="Layer_1" xmlns="http://www.w3.org/2000/svg" x="0" y="0" viewBox="0 0 1080 1080" style="enable-background:new 0 0 1080 1080" xml:space="preserve"><style>.st3{fill:#fff}.st4{fill:#d4d2d1}</style><circle cx="540" cy="540" r="540" style="fill:#ee6926"/><path d="M540.5 1038c-275.1.3-498.3-222.5-498.5-497.5S264.5 42.2 539.6 42.1s498.2 222.6 498.4 497.5c.1 132.1-52.3 258.9-145.6 352.4-93.1 93.7-219.9 146.3-351.9 146z" style="fill:#f18241"/><path d="M844.1 350.3h-608v-69.1L540 184.5l303.9 96.7v69.1h.2z" style="fill:#1a284f"/><circle class="st3" cx="540" cy="267.4" r="41.5"/><path class="st3" d="M263.6 405.7h82.9v317.8h-82.9V405.7zM415.6 405.7h82.9v317.8h-82.9V405.7zM581.5 405.7h82.9v317.8h-82.9V405.7zM733.5 405.7h82.9v317.8h-82.9V405.7z"/><path class="st4" d="M263.6 405.7h82.9v41.5h-82.9v-41.5zM415.6 405.7h82.9v41.5h-82.9v-41.5zM581.5 405.7h82.9v41.5h-82.9v-41.5zM733.5 405.7h82.9v41.5h-82.9v-41.5z"/><path class="st3" d="M236.1 723.4h608V834h-608V723.4z"/><path class="st3" d="M374.2 723.4h331.6V834H374.2V723.4z"/><path class="st3" d="M374.2 778.8h331.6V834H374.2v-55.2zM816.4 405.7H263.6L235.9 378v-27.7h608V378l-27.5 27.7zM443.3 267.4H471v27.7h-27.7v-27.7zM609.1 267.4h27.7v27.7h-27.7v-27.7z"/><circle cx="861.3" cy="861.3" r="218.7" style="fill:#283571"/><circle cx="1011.3" cy="584" r="68.7" style="fill:#f89631"/><path class="st3" d="M861.4 1013c-16.9 0-30.7-13.8-30.7-30.7s13.6-30.7 30.7-30.7c16.9 0 30.7 13.8 30.7 30.7s-13.9 30.7-30.7 30.7zM910.9 885.1c-13.8 13.8-20.9 21.6-20.9 33.6v9.3c0 2.8-2.3 5-5.2 5h-47.1c-2.8 0-5-2.3-5-5v-9.3c0-36.4 21.8-58.1 37.8-74 13.8-13.8 20.9-21.6 20.9-33.6 0-16.6-13.5-30.2-30.2-30.2-14.9 0-27.3 10.9-29.7 25-.5 2.8-2.8 5-5.5 5h-47c-2.9 0-5.2-2.3-5-5.2 2.6-45.8 40.7-82.3 87.2-82.3 48.2 0 87.3 39.1 87.3 87.3.2 36.7-21.6 58.5-37.6 74.4z"/></svg>
