<svg version="1.1" id="Layer_1" xmlns="http://www.w3.org/2000/svg" x="0" y="0" viewBox="0 0 1080 1080" style="enable-background:new 0 0 1080 1080" xml:space="preserve"><style>.st0{fill:#ef6825}.st1{fill:#283571}.st2{fill:#f5bc9a}.st4{fill:#f58255}.st5{fill:#969796}</style><path class="st0" d="m820.1 598.8-147.2-53.5-105.5 35.2-105.5-35.2-147.2 53.5c-27.8 10.1-46.3 36.5-46.3 66.1v109c0 9.7 7.9 17.6 17.6 17.6h562.8c9.7 0 17.6-7.9 17.6-17.6v-109c.1-29.6-18.5-56.1-46.3-66.1z"/><path class="st1" d="m549 615.6-16.7 175.9h70.4L586 615.6h-37z"/><path class="st1" d="M585.9 639.8H549c-6.8 0-12.3-5.5-12.3-12.3v-47h61.6v47c-.1 6.8-5.6 12.3-12.4 12.3zM760.9 182.5V35.2c0-19.4-15.7-35.2-35.2-35.2H514.6c-77.7 0-140.7 63-140.7 140.7v41.8c0 18.9 3 37.7 9 55.6l5.8 17.6c1.8 5.4 2.7 11 2.7 16.7v9h351.8v-9c0-5.7.9-11.3 2.7-16.7l5.8-17.6c6.1-17.9 9.2-36.7 9.2-55.6z"/><path class="st2" d="M461.9 422.2H673v158.3H461.9z"/><path d="M461.9 481.6c65.2 38 145.8 38 211.1 0v-59.5H461.9v59.5z" style="fill:#ce986d"/><path class="st4" d="m537.5 472.2-56.1 56.1c-6.9 6.9-18.1 6.8-25-.1-.5-.5-1-1.1-1.5-1.7l-58.2-76.6 15.2-32.1c4.2-8.8 14.7-12.5 23.5-8.3.5.3 1.1.5 1.6.9l100.5 61.8zM537.6 472.2l56.1 56.1c6.9 6.9 18.1 6.8 25-.1.5-.5 1-1.1 1.5-1.7l58.2-76.6-15.2-32.1c-4.2-8.8-14.7-12.5-23.5-8.3-.5.3-1.1.5-1.6.9l-100.5 61.8z" transform="translate(29.809 108.212)"/><path class="st2" d="M567.4 474.9c-97.1 0-175.9-78.7-175.9-175.9v-20.6c0-9.3 3.7-18.3 10.3-24.9l14.6-14.6c6.6-6.6 10.3-15.5 10.3-24.9v-42.2c-.1-8.1 5.5-15.2 13.4-17.1 41.6-9.8 171-33.1 259.2 31.7 5.7 4.3 9 11.1 8.9 18.2v9.4c0 9.3 3.7 18.3 10.3 24.9l14.6 14.6c6.6 6.6 10.3 15.5 10.3 24.9V299c-.1 97.2-78.8 175.9-176 175.9z"/><path class="st1" d="M905.5 413.3h-11.3V402c0-15.3-12.4-27.6-27.6-27.6S839 386.8 839 402v11.3h-11.3c-15.3 0-27.6 12.4-27.6 27.6 0 15.3 12.4 27.6 27.6 27.6H839v11.3c0 15.3 12.4 27.6 27.6 27.6s27.6-12.4 27.6-27.6v-11.3h11.3c15.3 0 27.6-12.4 27.6-27.6 0-15.2-12.4-27.6-27.6-27.6z"/><path class="st5" d="M905.1 1080H240.7c-2.8 0-5.1-2.3-5.1-5.1v-28.1c0-2.8 2.3-5.1 5.1-5.1h664.4c2.8 0 5.1 2.3 5.1 5.1v28.1c0 2.8-2.3 5.1-5.1 5.1z"/><path d="M883.7 1041.7H251.2c-19.5 0-35.4-15.9-35.4-35.4L186.3 690c0-19.5 15.9-35.4 35.4-35.4h691.5c19.5 0 35.4 15.9 35.4 35.4l-29.5 316.3c0 19.5-15.9 35.4-35.4 35.4z" style="fill:#e3e3e2"/><circle class="st5" cx="567.4" cy="848.2" r="59.6"/><path class="st0" d="M192.6 811.1H186v-6.6c0-8.9-7.2-16-16-16-8.9 0-16 7.2-16 16v6.6h-6.6c-8.9 0-16 7.2-16 16s7.2 16 16 16h6.6v6.6c0 8.9 7.2 16 16 16 8.9 0 16-7.2 16-16v-6.6h6.6c8.9 0 16-7.2 16-16s-7.1-16-16-16z"/></svg>
