<svg xmlns="http://www.w3.org/2000/svg" width="104.963" height="125.877"><defs><style>.a{fill:#1f276c}.b{fill:#dadde5}.d{fill:#ea5a0b}.e{fill:#ffddce}.g{fill:#f4fbff}</style></defs><path class="a" d="M61.825 0H40.732a15.376 15.376 0 0 0-15.376 15.376v14.831l2.526 2.24h35.294V1.366Z"/><path class="b" d="M89.063 100.089a16.621 16.621 0 0 0-11.6-15.846l-20.427-6.464-.118-4.1-4.433-.156-21.555.757-19.724 6.245A16.053 16.053 0 0 0 0 95.826v24.153a5.9 5.9 0 0 0 5.9 5.9h83.163Z"/><path class="b" d="m93.756 80.523-19.724-6.245-17.939-.63.166 5.776 19.724 6.245a16.052 16.052 0 0 1 11.207 15.3v24.155a5.93 5.93 0 0 1-.053.75h11.931a5.9 5.9 0 0 0 5.9-5.9V95.827a16.052 16.052 0 0 0-11.207-15.3Z"/><path d="m156.54 295.6-21.546-.757-21.555.757c-.91 15.867 16.013 40.849 22.485 51.6 6.473-10.749 21.526-35.732 20.616-51.6Z" transform="translate(-82.508 -221.321)" style="fill:#e4f6ff"/><path class="d" d="m62.587 117.98-6.688-25.266h-6.827l-5.666 25.487 10.01 7.675Z"/><path class="e" d="M64.552 73.096V57.852H40.401v15.244c0 6.669 12.076 13.941 12.076 13.941s12.075-7.272 12.075-13.941Z"/><path class="a" d="M19.555 125.877v-13.793a2.105 2.105 0 1 0-4.21 0v13.793ZM89.61 125.877v-13.793a2.105 2.105 0 1 0-4.21 0v13.793Z"/><path class="e" d="M63.176 41.76V18.581a36.349 36.349 0 0 1-22.1-.225h-.009a4.908 4.908 0 0 0-6.447 4.66v2.545a4.649 4.649 0 0 1-4.649 4.649h-4.615v7.6a3.517 3.517 0 0 0 3.517 3.517 1.157 1.157 0 0 1 1.15 1.092 22.514 22.514 0 0 0 17.881 20.6 22.927 22.927 0 0 0 15.272-21.261Z"/><path class="a" d="M72.917 8.937h-.224a2.256 2.256 0 0 1-2.256-2.256A6.681 6.681 0 0 0 63.756 0h-1.93v32.448h17.773V15.62a6.681 6.681 0 0 0-6.682-6.683Z"/><path d="M197.575 103.533a4.649 4.649 0 0 1-4.649-4.649v-2.545a4.907 4.907 0 0 0-6.448-4.66c-.682.225-1.37.423-2.06.606v22.366a22.514 22.514 0 0 1-15.92 21.182 22.509 22.509 0 0 0 29.026-20.09 1.156 1.156 0 0 1 1.15-1.092 3.517 3.517 0 0 0 3.517-3.517v-7.6h-4.616Z" transform="translate(-122.593 -73.325)" style="fill:#ffcbbe"/><path class="g" d="m52.477 82.419-6.43 5.562a3.621 3.621 0 0 1-5.266-.566l-9.85-13.135 3.554-3.1a4.507 4.507 0 0 1 6.032.1ZM52.486 82.419l6.43 5.562a3.621 3.621 0 0 0 5.266-.566l9.85-13.135-3.554-3.1a4.507 4.507 0 0 0-6.032.1Z"/><path class="a" d="m30.931 74.278-1.572.292a11.626 11.626 0 0 0-8.154 5.916 9.612 9.612 0 0 0-1.266 4.429c0 2.307 3.568 5.162 5.733 6.683a1.6 1.6 0 0 1 .23 2.345c-1.225 1.325-2.749 3.578-2.288 6.263 1.334 7.764 15.293 19.207 23.992 25.671h5.809c-6.472-10.749-23.4-35.732-22.485-51.6ZM59.224 125.877c8.7-6.464 22.659-17.906 23.992-25.671.461-2.686-1.063-4.939-2.288-6.263a1.6 1.6 0 0 1 .23-2.345c2.165-1.52 5.733-4.376 5.733-6.683a8.823 8.823 0 0 0-.826-3.525 11.561 11.561 0 0 0-9.016-6.689l-3.018-.423c.911 15.867-14.143 40.849-20.615 51.6h5.808Z"/><path class="d" d="m48.581 88.451 3.725 4.263h6.825l3.642-4.3-7.056-6Z"/></svg>
