<svg xmlns="http://www.w3.org/2000/svg" width="57.067" height="57.06"><defs><style>.c{fill:#24305E}.g{fill:#f2f9ff}</style></defs><path d="M92.922 114.591V77.315H47.537L46.5 78.923v35.668a2.252 2.252 0 0 0 2.252 2.252H90.67a2.252 2.252 0 0 0 2.252-2.252Z" transform="translate(-42.424 -69.925)" style="fill:#ff8657"/><path d="M436.642 77.314v37.276a2.252 2.252 0 0 1-2.252 2.252h7.5a2.252 2.252 0 0 0 2.252-2.252V78.922l-1.033-1.608h-6.468Z" transform="translate(-387.077 -69.924)" style="fill:#F76C6C"/><path class="c" d="M50.498 2.252A2.252 2.252 0 0 0 48.246 0H6.332a2.252 2.252 0 0 0-2.256 2.252v6.746h46.422Z"/><path class="c" d="M54.815 0h-7.5a2.252 2.252 0 0 1 2.252 2.252v6.746h7.5V2.252A2.252 2.252 0 0 0 54.815 0Z"/><path d="M193.561 157.344a1.265 1.265 0 0 0-1.27-1.261 1.264 1.264 0 0 1-1.2-.855 11.037 11.037 0 0 0-.572-1.368 1.262 1.262 0 0 1 .236-1.453 1.265 1.265 0 0 0-.006-1.789l-2.039-2.025a1.265 1.265 0 0 0-1.789.006 1.263 1.263 0 0 1-1.451.246 11.025 11.025 0 0 0-1.372-.562 1.264 1.264 0 0 1-.863-1.195 1.265 1.265 0 0 0-1.27-1.261l-2.873.01a1.265 1.265 0 0 0-1.261 1.27 1.264 1.264 0 0 1-.855 1.2 11.053 11.053 0 0 0-1.368.572 1.262 1.262 0 0 1-1.453-.236 1.265 1.265 0 0 0-1.789.006l-2.025 2.039a1.265 1.265 0 0 0 .006 1.789 1.263 1.263 0 0 1 .246 1.451 11.025 11.025 0 0 0-.562 1.372 1.264 1.264 0 0 1-1.195.863 1.265 1.265 0 0 0-1.261 1.27l.01 2.873a1.265 1.265 0 0 0 1.27 1.261 1.264 1.264 0 0 1 1.2.855 11.055 11.055 0 0 0 .572 1.368 1.262 1.262 0 0 1-.236 1.453 1.265 1.265 0 0 0 .006 1.789l2.039 2.025a1.265 1.265 0 0 0 1.789-.006 1.263 1.263 0 0 1 1.451-.246 11.027 11.027 0 0 0 1.372.562 1.264 1.264 0 0 1 .863 1.195 1.265 1.265 0 0 0 1.27 1.261l2.873-.01a1.265 1.265 0 0 0 1.261-1.27 1.264 1.264 0 0 1 .855-1.2 11.037 11.037 0 0 0 1.368-.572 1.262 1.262 0 0 1 1.453.236 1.265 1.265 0 0 0 1.789-.007l2.025-2.039a1.265 1.265 0 0 0-.006-1.789 1.263 1.263 0 0 1-.246-1.451 11.027 11.027 0 0 0 .562-1.372 1.264 1.264 0 0 1 1.195-.863 1.265 1.265 0 0 0 1.261-1.27Zm-8.87 5.572a5.805 5.805 0 1 1-.029-8.21 5.805 5.805 0 0 1 .028 8.211Z" transform="translate(-149.998 -130.801)" style="fill:#fff"/><path d="M26.071 318.993a22.026 22.026 0 0 0 2.051-2 3.984 3.984 0 0 1 2.384-1.265 8.339 8.339 0 0 0 4.628-2.293l6.845-6.692a.412.412 0 0 0 0-.585c.058-.058.064-.065.025-.028a2.014 2.014 0 0 0-.087-2.881 2.046 2.046 0 0 0-2.821.093l-1.374 1.374a2.015 2.015 0 0 0-.053-2.9 2.047 2.047 0 0 0-2.831.085l-.789.789a2.015 2.015 0 0 0-.053-2.9 2.047 2.047 0 0 0-2.831.085l-4.619 4.619a8.077 8.077 0 0 0-1.789 2.714l-1.654 4.08a6.472 6.472 0 0 1-1.421 2.145l-.59.59Z" transform="translate(-19.846 -267.129)" style="fill:#ffddce"/><path d="M88.335 303.99a2.015 2.015 0 0 0 .113-2.728 2.038 2.038 0 0 0-3.007-.078l-6.129 6.129c.748-.748-7.142 6.983-7.142 6.983a8.078 8.078 0 0 1-4.57 2.284l-.062.009a3.984 3.984 0 0 0-2.384 1.265l-1.825 1.825a1.262 1.262 0 0 1-.225.179l4.106 4.106h.008a8.077 8.077 0 0 1 4.163-1.91l1.479-.212a8.084 8.084 0 0 0 4.57-2.286l4.15-4.15a2.053 2.053 0 0 0 .12-2.806 2.007 2.007 0 0 0-1.3-.66v-.01Z" transform="translate(-57.176 -268.289)" style="fill:#ffcbbe"/><path class="c" d="M6.225 51.864a22.025 22.025 0 0 0 2.051-2l-5.189-5.189a1.26 1.26 0 0 0-1.782 0l-.934.934a1.26 1.26 0 0 0 0 1.782l4.3 4.3a1.261 1.261 0 0 0 1.554.173Z"/><path class="c" d="M12.389 53.974 7.98 49.565 6.155 51.39a1.26 1.26 0 0 1-1.782 0l5.3 5.3a1.26 1.26 0 0 0 1.782 0l.934-.934a1.26 1.26 0 0 0 0-1.782Z"/><path class="g" d="M36.092 5.557H10.145a.861.861 0 1 1 0-1.722h25.947a.861.861 0 1 1 0 1.722Z"/><g transform="translate(42.703 3.634)"><circle class="g" cx=".865" cy=".865" r=".865"/><circle class="g" cx=".865" cy=".865" r=".865" transform="translate(3.764)"/><circle class="g" cx=".865" cy=".865" r=".865" transform="translate(7.528)"/></g></svg>
