<svg xmlns="http://www.w3.org/2000/svg" width="53.56" height="47.074"><defs><style>.b{fill:#F76C6C}.c{fill:#24305E}</style></defs><g transform="translate(0 -31)"><path d="M203.642 31h-12.553a10.977 10.977 0 0 0-1.569 21.856v4.819a1.569 1.569 0 0 0 2.679 1.109l5.167-5.167.65-.65h5.627a10.984 10.984 0 1 0 0-21.968Z" transform="translate(-161.17)" style="fill:#f7be9d"/><path class="b" d="M39.96 67.09v6.277a4.7 4.7 0 0 1-4.685 4.707c-9.039 0-17.858-4.273-24.417-10.806S0 51.943 0 42.903a4.694 4.694 0 0 1 4.707-4.685h6.277a1.566 1.566 0 0 1 1.488 1.072l3.138 9.393a1.57 1.57 0 0 1-.182 1.367l-2.661 3.993a24.588 24.588 0 0 0 4.854 6.463 25.546 25.546 0 0 0 6.515 4.8l3.993-2.661a1.571 1.571 0 0 1 1.367-.182l9.415 3.138a1.547 1.547 0 0 1 1.05 1.488Z"/><path class="b" d="M39.958 67.09v6.277a4.7 4.7 0 0 1-4.685 4.707c-9.039 0-17.858-4.273-24.417-10.806l6.762-6.762a25.546 25.546 0 0 0 6.515 4.8l3.993-2.661a1.571 1.571 0 0 1 1.367-.182l9.415 3.138a1.547 1.547 0 0 1 1.05 1.489Z"/><circle class="c" cx="1.784" cy="1.784" r="1.784" transform="translate(27.969 40.263)"/><circle class="c" cx="1.784" cy="1.784" r="1.784" transform="translate(34.41 40.263)"/><circle class="c" cx="1.784" cy="1.784" r="1.784" transform="translate(41.054 40.263)"/></g></svg>
