<svg version="1.1" id="Layer_1" xmlns="http://www.w3.org/2000/svg" x="0" y="0" viewBox="0 0 1080 1080" style="enable-background:new 0 0 1080 1080" xml:space="preserve"><style>.st0{fill:#e5e5e4}.st1{fill:#999998}.st2{fill:#f06724}.st4{fill:#283372}.st5{fill:#f7be9d}.st7{fill:#f58355}</style><circle class="st0" cx="546.15" cy="440.48" r="440.48"/><path class="st0" d="M905.06 440.48c.31 198.22-160.12 359.17-358.35 359.48-170.3.27-317.34-119.17-351.98-285.9-5-24.21-7.51-48.86-7.5-73.58 0-198.22 160.69-358.91 358.91-358.91s358.92 160.69 358.92 358.91z"/><path class="st1" d="M746.32 738.55c-164.85 110.5-388.06 66.44-498.56-98.41-3.93-5.86-7.68-11.83-11.26-17.92l64.93-18.6H383L415.63 571h65.26l65.26-16.31 48.94 32.63 16.31 65.26 48.94 48.94h48.94l37.04 37.03zM480.89 375.23v48.94l-81.57 16.31-65.26 48.94-65.26-16.31-48.94 32.63-25.12 8.32c-5-24.21-7.51-48.86-7.5-73.58a358.351 358.351 0 0 1 89.24-236.88l57.59 41.11H383l16.31 65.26 32.63 48.94 48.95 16.32zM905.06 440.48A357.911 357.911 0 0 1 867.7 600.2l-60.53-45.52L725.6 571l-48.94-65.26 48.94-32.63 16.31-65.26-65.26-16.31-16.31-65.26-48.94 16.32-65.26-32.63 16.31-65.26-48.94-65.26-65.26-16.31-57.75-46.17c178.76-85.87 393.28-10.56 479.15 168.2a358.919 358.919 0 0 1 35.41 155.31z"/><path class="st2" d="m1047.74 635.08-30.53-11.43a472.837 472.837 0 0 0 16.57-278.86l31.66-7.73a505.162 505.162 0 0 1-17.7 298.02zM1007.6 290.99l25.2-20.73 20.73 25.2-25.2 20.73-20.73-25.2zM982.08 670.83l25.2-20.73 20.73 25.2-25.2 20.73-20.73-25.2zM46.05 562.78l-31.67 7.72a508.86 508.86 0 0 1 32.4-333.24l29.59 13.68a476.063 476.063 0 0 0-30.32 311.84zM38.35 602.2l25.2-20.73 20.73 25.2-25.2 20.73-20.73-25.2z"/><path d="m802.62 882.95-149.26-54.27-107.03 35.68-107.03-35.68-149.26 54.27c-28.2 10.25-46.98 37.05-46.98 67.06v110.57c0 9.88 8.01 17.89 17.89 17.89H831.8c9.88 0 17.89-8.01 17.89-17.89V950.01c-.01-30.03-18.83-56.84-47.07-67.06z" style="fill:#f26724"/><path class="st4" d="m527.62 900.05-16.99 178.39h71.35l-16.99-178.39h-37.37z"/><path class="st4" d="M565.05 924.56H527.6c-6.89 0-12.48-5.59-12.48-12.48v-47.69h62.43v47.69c0 6.89-5.59 12.48-12.48 12.48h-.02zM742.55 460.79V311.35c0-19.7-15.97-35.68-35.68-35.68H492.8c-78.82 0-142.71 63.89-142.71 142.71v42.41c0 19.18 3.09 38.24 9.15 56.43l5.93 17.81a53.448 53.448 0 0 1 2.75 16.92v9.15h356.79v-9.15c0-5.75.93-11.46 2.75-16.92l5.93-17.81a177.77 177.77 0 0 0 9.16-56.43z"/><path class="st5" d="M439.28 703.82h214.08v160.55H439.28z"/><path d="M439.28 764.12c66.16 38.5 147.9 38.5 214.06 0V703.8H439.28v60.32z" style="fill:#d29b6e"/><path class="st7" d="m516.45 756.14-56.9 56.9c-7.01 6.96-18.34 6.93-25.31-.09-.54-.55-1.05-1.13-1.52-1.74l-58.99-77.73 15.43-32.51c4.26-8.91 14.95-12.68 23.86-8.42.55.26 1.09.56 1.61.88l101.82 62.71zM516.51 756.14l56.9 56.9c7.01 6.96 18.34 6.93 25.31-.09.54-.55 1.05-1.13 1.52-1.74l58.99-77.73-15.43-32.51c-4.26-8.91-14.95-12.68-23.86-8.42-.55.26-1.09.56-1.61.88l-101.82 62.71z" transform="translate(29.809 108.212)"/><path class="st5" d="M546.33 757.33c-98.52 0-178.39-79.86-178.4-178.39v-20.89c0-9.46 3.76-18.54 10.45-25.23l14.78-14.78a35.689 35.689 0 0 0 10.45-25.23v-42.77c-.05-8.23 5.58-15.42 13.59-17.33 42.19-9.97 173.43-33.57 262.9 32.14 5.76 4.39 9.1 11.24 9.02 18.47v9.48c0 9.46 3.76 18.54 10.45 25.23l14.78 14.78a35.689 35.689 0 0 1 10.45 25.23v20.89c0 98.52-79.87 178.39-178.39 178.39-.03.01-.06.01-.08.01z"/></svg>
