<svg version="1.1" id="Layer_1" xmlns="http://www.w3.org/2000/svg" x="0" y="0" viewBox="0 0 1080 1080" style="enable-background:new 0 0 1080 1080" xml:space="preserve"><style>.st0{fill:#283372}.st1{fill:#f7be9d}.st2{fill:#d29b6e}.st3{fill:#d6dcec}.st4{fill:#afb9d2}.st5{fill:#959cb5}.st6{fill:#c8d0e2}.st7{fill:#f26724}.st8{fill:#f58355}</style><path class="st0" d="M778.93 350.98v12.42c0 15.22 2.45 30.35 7.27 44.79l28.14 84.41h53.11V297.88h-35.42c-29.33 0-53.1 23.78-53.1 53.1z"/><path class="st0" d="m1021.33 387.76-29.95 104.85-141.62-123.92c-19.55 0-35.41-15.85-35.41-35.41 0-29.33 23.78-53.11 53.11-53.11h123.92c19.55 0 35.41 15.85 35.41 35.41v33.27c-.01 13.16-1.84 26.25-5.46 38.91z"/><path class="st1" d="M849.73 545.73h106.22v78.35H849.73z"/><path class="st2" d="M849.74 578.24c34.04 13.9 72.17 13.9 106.22 0v-32.52H849.74v32.52z"/><path class="st3" d="m1041.37 613.05-85.41-24.4-53.11 35.24-53.11-35.24-85.4 24.4c-22.8 6.51-38.52 27.36-38.52 51.07v129.44c0 9.81 7.95 17.76 17.76 17.76h318.66c9.81 0 17.76-7.95 17.76-17.76V664.13c-.01-23.75-15.78-44.6-38.63-51.08z"/><path class="st4" d="M920.55 811.25h-35.41L894 624.12h17.76l8.79 187.13z"/><path class="st1" d="M902.85 563.47c-58.66 0-106.22-47.55-106.22-106.22v-20.82c0-9.39 3.73-18.4 10.37-25.04l32.1-32.1a35.002 35.002 0 0 1 25.71-10.41c56.59 1.79 106.68 13.91 134.07 40.65a34.949 34.949 0 0 1 10.2 25.08v22.57c.04 58.66-47.49 106.25-106.15 106.28-.02.01-.05.01-.08.01z"/><path class="st5" d="M911.7 659.47h-17.76c-4.89 0-8.85-3.96-8.85-8.85v-26.55h35.41v26.55c0 4.86-3.93 8.82-8.8 8.85z"/><path class="st6" d="m840.78 512.72-30.05 22.92c-4.67 3.56-11.34 2.66-14.89-2.01-.32-.42-.61-.87-.87-1.34l-26.92-49.17 10.83-16.53a7.074 7.074 0 0 1 9.78-2.1c.34.22.66.47.95.74l51.17 47.49z" transform="translate(62.073 111.189)"/><path class="st6" d="m840.78 512.72 30.05 22.92a10.63 10.63 0 0 0 14.9-2c.32-.42.61-.87.87-1.33l26.92-49.17-10.83-16.53a7.074 7.074 0 0 0-9.78-2.1c-.34.22-.66.47-.95.74l-51.18 47.47z" transform="translate(62.073 111.189)"/><path class="st0" d="M53.11 350.98v12.42c0 15.22 2.45 30.35 7.27 44.79l28.14 84.41h53.11V297.88H106.2c-29.32 0-53.09 23.78-53.09 53.1z"/><path class="st0" d="m295.51 387.76-29.95 104.85-141.63-123.92c-19.55 0-35.41-15.85-35.41-35.41 0-29.33 23.78-53.11 53.11-53.11h123.92c19.55 0 35.41 15.85 35.41 35.41v33.27c0 13.16-1.84 26.25-5.45 38.91z"/><path class="st1" d="M123.9 545.73h106.22v78.35H123.9z"/><path class="st2" d="M123.92 578.24c34.04 13.9 72.17 13.9 106.22 0v-32.52H123.92v32.52z"/><path class="st3" d="m315.55 613.05-85.41-24.4-53.11 35.24-53.11-35.24-85.4 24.4C15.72 619.57 0 640.41 0 664.13v129.44c0 9.81 7.95 17.76 17.76 17.76h318.66c9.81 0 17.76-7.95 17.76-17.76V664.13c-.02-23.75-15.79-44.6-38.63-51.08z"/><path class="st4" d="M194.73 811.25h-35.41l8.85-187.13h17.76l8.8 187.13z"/><path class="st1" d="M177.03 563.47c-58.66 0-106.22-47.55-106.22-106.22v-20.82c0-9.39 3.73-18.4 10.37-25.04l32.1-32.1a35.002 35.002 0 0 1 25.71-10.41c56.59 1.79 106.68 13.91 134.07 40.65a34.949 34.949 0 0 1 10.2 25.08v22.57c.04 58.66-47.49 106.25-106.15 106.28-.03.01-.06.01-.08.01z"/><path class="st5" d="M185.88 659.47h-17.76c-4.89 0-8.85-3.96-8.85-8.85v-26.55h35.41v26.55c-.01 4.86-3.94 8.82-8.8 8.85z"/><path class="st6" d="M114.95 512.72 84.9 535.64c-4.67 3.56-11.34 2.66-14.89-2.01-.32-.42-.61-.87-.87-1.34l-26.92-49.17 10.83-16.53a7.074 7.074 0 0 1 9.78-2.1c.34.22.66.47.95.74l51.17 47.49z" transform="translate(62.073 111.189)"/><path class="st6" d="M114.95 512.72 145 535.64a10.63 10.63 0 0 0 14.9-2c.32-.42.61-.87.87-1.33l26.92-49.17-10.83-16.53a7.074 7.074 0 0 0-9.78-2.1c-.34.22-.66.47-.95.74l-51.18 47.47z" transform="translate(62.073 111.189)"/><path class="st7" d="m773.16 640.18-130.6-47.49-93.65 31.22-93.65-31.22-130.6 47.49c-24.68 8.97-41.1 32.42-41.1 58.67v96.74c0 8.65 7.01 15.66 15.66 15.66H798.7c8.65 0 15.66-7.01 15.66-15.66v-96.74c-.02-26.27-16.49-49.73-41.2-58.67z"/><path class="st0" d="m532.55 655.14-14.86 156.08h62.43l-14.86-156.08h-32.71z"/><path class="st0" d="M565.3 676.59h-32.77c-6.03 0-10.92-4.89-10.92-10.92v-41.73h54.63v41.73c0 6.03-4.89 10.92-10.92 10.92h-.02zM720.61 270.8V140.05c0-17.24-13.98-31.22-31.22-31.22h-187.3c-68.96 0-124.86 55.9-124.86 124.86v37.1c0 16.78 2.7 33.46 8.01 49.38l5.19 15.58c1.59 4.77 2.41 9.77 2.41 14.8v8.01H705v-8.01c0-5.03.82-10.03 2.41-14.8l5.19-15.58c5.31-15.91 8.01-32.58 8.01-49.37z"/><path class="st1" d="M455.26 483.45h187.31v140.47H455.26z"/><path class="st2" d="M455.26 536.21c57.89 33.68 129.41 33.68 187.29 0v-52.77H455.26v52.77z"/><path class="st8" d="m519.05 515.7-49.79 49.79c-6.13 6.09-16.05 6.06-22.14-.08-.48-.48-.92-.99-1.33-1.53l-51.62-68.01 13.5-28.45c3.73-7.8 13.08-11.1 20.88-7.37.48.23.95.49 1.41.77l89.09 54.88zM519.1 515.7l49.79 49.79c6.13 6.09 16.05 6.06 22.14-.08.48-.48.92-.99 1.33-1.53l51.62-68.01-13.5-28.45c-3.73-7.8-13.08-11.1-20.88-7.37-.48.23-.96.49-1.41.77L519.1 515.7z" transform="translate(29.809 108.212)"/><path class="st1" d="M548.92 530.26c-86.2 0-156.08-69.88-156.09-156.08V355.9c0-8.28 3.29-16.22 9.14-22.07l12.93-12.93c5.85-5.85 9.14-13.8 9.14-22.07V261.4c-.05-7.2 4.88-13.49 11.89-15.16 36.91-8.72 151.74-29.37 230.02 28.12a20.03 20.03 0 0 1 7.89 16.16v8.3c0 8.28 3.29 16.22 9.14 22.07l12.93 12.93c5.85 5.85 9.14 13.8 9.14 22.07v18.28c0 86.2-69.88 156.08-156.08 156.08-.01.01-.03.01-.05.01z"/><circle cx="796.64" cy="826.41" r="144.75" style="fill:#f8ab97"/><circle class="st0" cx="796.64" cy="826.41" r="127.68"/><circle cx="796.03" cy="797.87" r="30.69" style="fill:#f6faf9"/><path class="st7" d="M796.64 744.93c-28.69 0-51.94 23.26-51.94 51.94-.3 49.56 51.94 111.03 51.94 111.03s52.25-61.47 51.94-111.03c0-28.69-23.26-51.94-51.94-51.94zm0 73.98c-12.17 0-22.04-9.87-22.04-22.04s9.87-22.04 22.04-22.04 22.04 9.87 22.04 22.04-9.86 22.03-22.02 22.04h-.02z"/></svg>
