<svg version="1.1" id="Layer_1" xmlns="http://www.w3.org/2000/svg" x="0" y="0" viewBox="0 0 1080 1080" style="enable-background:new 0 0 1080 1080" xml:space="preserve"><style>.st1{fill:#989898}.st3{fill:#283372}.st4{fill:#d4d3d2}.st8{fill:#040404}.st9{fill:#233872}</style><path d="M958.33 929.33H249.78c-66.81 0-120.97-54.16-120.97-120.97V120.97C128.8 54.16 74.64 0 7.83 0h708.56c66.81 0 120.97 54.16 120.97 120.97v687.38c0 66.81 54.16 120.98 120.97 120.98z" style="fill:#e6e6e5"/><path class="st1" d="M215.21 86.41h535.74v69.13H215.21V86.41zM733.67 207.38H232.49c-9.54 0-17.28 7.74-17.28 17.28 0 9.54 7.74 17.28 17.28 17.28h501.17c9.54 0 17.28-7.74 17.28-17.28.01-9.54-7.73-17.28-17.27-17.28zM733.67 276.51H232.49c-9.54 0-17.28 7.74-17.28 17.28 0 9.54 7.74 17.28 17.28 17.28h501.17c9.54 0 17.28-7.74 17.28-17.28.01-9.54-7.73-17.28-17.27-17.28zM733.67 345.64H232.49c-9.54 0-17.28 7.74-17.28 17.28 0 9.54 7.74 17.28 17.28 17.28h501.17c9.54 0 17.28-7.74 17.28-17.28.01-9.55-7.73-17.28-17.27-17.28zM733.67 414.76H491.72c-9.54 0-17.28 7.74-17.28 17.28 0 9.54 7.74 17.28 17.28 17.28h241.95c9.54 0 17.28-7.74 17.28-17.28 0-9.54-7.74-17.28-17.28-17.28z"/><path d="M1014.03 467.1c9.11 2.85 18.8-2.22 21.66-11.32l41.33-131.93c8.56-27.32-6.65-56.41-33.97-64.97l-32.98-10.33c-9.11-2.85-18.8 2.22-21.66 11.32-2.85 9.11 2.22 18.8 11.32 21.66l32.98 10.33c9.11 2.85 14.18 12.55 11.32 21.66l-41.33 131.93c-2.85 9.1 2.22 18.8 11.33 21.65z" style="fill:#f6873e"/><path class="st3" d="m870.56 693.81-98.95-31-16.49-5.17 62-197.9 72.33-230.88 131.93 41.33-72.33 230.88-62 197.9-16.49-5.16z"/><path class="st4" d="M1042.05 204.23 910.12 162.9l-20.67 65.97 131.93 41.33 20.67-65.97z"/><path class="st3" d="M920.45 129.91c11.41-36.43 50.2-56.71 86.63-45.3s56.71 50.2 45.3 86.63l-10.33 32.98-131.93-41.32 10.33-32.99z"/><path class="st4" d="m849.9 759.77-16.49-5.17-65.97-20.67-16.49-5.17 20.67-65.97 98.95 31-20.67 65.98z"/><path d="m759.09 876.21 8.35-142.26 65.97 20.67-74.32 121.59z" style="fill:#f26724"/><path d="M666.86 734.24c0 38.69.05 77.38-.01 116.07-.04 27.96-18.04 45.98-45.97 46.2-19.13.16-19.13.16-19.13 19.12 0 18.44-.04 36.88.01 55.32.01 4.84.06 10.03-5.25 11.93-4.82 1.72-7.93-2.37-10.98-5.4-24.59-24.5-49.3-48.89-73.6-73.68-5.22-5.32-10.33-7.06-17.88-7.48-11.13-.61-35.14.9-40.41-.37-9.36 2.16 7.11-21.6 7.04-32.31-.26-39.05 0-78.1-.14-117.15-.15-44.83-33.07-77.73-78.03-77.84-61.12-.16-122.23-.21-183.35.15-8.04.05-10.51-1.8-10.1-10.03.74-14.79.06-29.64.24-44.46.31-24.41 18.8-43.36 43.25-43.4 130.19-.17 260.38-.16 390.57-.02 25.14.03 43.59 18.85 43.69 44.03.17 39.77.05 79.54.05 119.32z" style="fill:#e25d26"/><path d="M233.73 667.58c59.67 0 119.34-.03 179.02.01 30.83.02 48.28 17.52 48.28 48.35.01 76.3.03 152.6-.01 228.9-.02 30.99-17.35 48.45-48.1 48.47-78.48.04-156.96.09-235.43-.14-7.04-.02-12 1.91-16.97 6.98-23.78 24.29-47.93 48.21-72.04 72.16-3.71 3.68-7.2 9.54-13.4 7.15-6.3-2.43-4.82-8.99-4.84-14.29-.06-21.33-.22-42.67.1-64 .09-5.97-1.41-8.25-7.74-8-7.89.32-15.91 1.03-23.75-.93-20.21-5.05-33.66-21.59-33.7-42.3-.12-79.55-.14-159.11 0-238.66.05-24.91 18.91-43.55 44.14-43.63 61.48-.18 122.96-.06 184.44-.07z" style="fill:#f4bb95"/><path class="st8" d="M102.7 857.31c17.98-.07 32.42-14.21 32.59-31.93.18-18.17-14.76-33.02-32.93-32.74-17.77.28-32.11 14.83-32.06 32.53.05 17.68 14.7 32.21 32.4 32.14zM395.75 824.62c-.2-17.77-14.73-31.99-32.61-31.93-18.21.07-32.83 15.09-32.36 33.26.45 17.58 15.51 31.85 33.17 31.43 17.82-.41 31.99-15.01 31.8-32.76zM200.56 824.32c-.41 17.77 13.64 32.46 31.5 32.92 17.96.47 32.8-13.3 33.44-31 .65-18.17-13.83-33.36-32.02-33.59-17.78-.22-32.51 13.95-32.92 31.67z"/><path class="st9" d="M102.7 857.31c-17.7.07-32.35-14.46-32.4-32.13-.05-17.7 14.29-32.26 32.06-32.53 18.17-.28 33.11 14.57 32.93 32.74-.17 17.71-14.61 31.85-32.59 31.92zM395.75 824.62c.2 17.75-13.97 32.35-31.8 32.77-17.66.41-32.72-13.86-33.17-31.43-.46-18.17 14.15-33.19 32.36-33.26 17.88-.07 32.41 14.16 32.61 31.92zM200.56 824.32c.41-17.72 15.14-31.89 32.91-31.66 18.2.23 32.67 15.41 32.02 33.59-.63 17.7-15.48 31.47-33.44 31-17.85-.48-31.9-15.16-31.49-32.93z"/></svg>
