<svg xmlns="http://www.w3.org/2000/svg" width="53.961" height="49.183"><path d="m108.56 23.24-13.024 1.447a.93.93 0 0 0-.558 1.581l3.814 3.814-8.731 8.731-14.7-13.068a2.86 2.86 0 0 0-3.606-.215 2.791 2.791 0 0 0-.175 4.318l16.75 14.886a2.791 2.791 0 0 0 3.827-.113l10.587-10.591 3.814 3.814a.93.93 0 0 0 1.582-.558l1.447-13.024a.93.93 0 0 0-1.026-1.021Z" transform="translate(-63.198 -23.235)" style="fill:#1f276c"/><path d="m36.429 293.343 9.278 6.732a1.682 1.682 0 0 0 2.176-.17l5.558-5.545a1.689 1.689 0 0 0 .3-1.964C49.482 284 39.1 278.069 26.953 278.069S4.424 284 .161 292.4a1.689 1.689 0 0 0 .3 1.967l5.56 5.533a1.682 1.682 0 0 0 2.176.17l9.278-6.732a1.675 1.675 0 0 0 .651-.993l1.116-5.046a2.006 2.006 0 0 1 1.461-1.5 25.262 25.262 0 0 1 12.484 0 2 2 0 0 1 1.461 1.5l1.116 5.046a1.674 1.674 0 0 0 .663.993Z" transform="translate(.028 -251.213)" style="fill:#ea5a0b"/></svg>
