<svg xmlns="http://www.w3.org/2000/svg" width="80.355" height="58.322"><defs><style>.a{fill:#24305E}.b{fill:#f7be9d}.c{fill:#d29b6e}.d{fill:#d5dced}.g{fill:#c7cfe2}.i{fill:#ff8352}</style></defs><path class="a" d="M58.322 24.625v.909a10.369 10.369 0 0 0 .532 3.279l2.06 6.18h3.888V20.737h-2.593a3.888 3.888 0 0 0-3.887 3.888Z"/><path class="a" d="m76.068 27.317-2.193 7.676-10.368-9.072a2.592 2.592 0 0 1-2.592-2.592 3.888 3.888 0 0 1 3.888-3.888h9.072a2.592 2.592 0 0 1 2.592 2.592v2.436a10.363 10.363 0 0 1-.399 2.848Z"/><path class="b" d="M63.505 38.882h7.776v5.736h-7.776z"/><path class="c" d="M63.506 41.262a10.283 10.283 0 0 0 7.776 0v-2.381h-7.776v2.381Z"/><path class="d" d="m77.535 43.811-6.253-1.786-3.888 2.58-3.888-2.58-6.252 1.786a3.888 3.888 0 0 0-2.82 3.739v9.476a1.3 1.3 0 0 0 1.3 1.3h23.329a1.3 1.3 0 0 0 1.3-1.3V47.55a3.888 3.888 0 0 0-2.828-3.739Z"/><path d="M423.753 368.188h-2.592l.648-13.7h1.3Z" transform="translate(-355.063 -309.867)" style="fill:#afb9d2"/><path class="b" d="M67.394 40.181a7.776 7.776 0 0 1-7.776-7.776v-1.524a2.593 2.593 0 0 1 .759-1.833l2.35-2.35a2.562 2.562 0 0 1 1.882-.762c4.143.131 7.81 1.018 9.815 2.976a2.559 2.559 0 0 1 .747 1.836V32.4a7.776 7.776 0 0 1-7.777 7.781Z"/><path d="M423.105 357.076h-1.3a.648.648 0 0 1-.648-.648v-1.944h2.592v1.944a.648.648 0 0 1-.644.648Z" transform="translate(-355.063 -309.867)" style="fill:#959cb5"/><path class="g" d="m67.394 44.606-2.2 1.678a.778.778 0 0 1-1.154-.245l-1.971-3.6.793-1.21a.518.518 0 0 1 .786-.1ZM67.394 44.606l2.2 1.678a.778.778 0 0 0 1.154-.244l1.971-3.6-.793-1.21a.518.518 0 0 0-.786-.1Z"/><path class="a" d="M23.2 39.636a46.774 46.774 0 0 1-2.176-10.606c-.361-5-4.127-9.072-9.219-9.072s-8.858 4.074-9.219 9.072A46.776 46.776 0 0 1 .41 39.636a1.291 1.291 0 0 0 .675 1.649 24.755 24.755 0 0 0 6.769 2h7.9a24.973 24.973 0 0 0 6.769-2 1.291 1.291 0 0 0 .677-1.649Z"/><path class="b" d="m21.179 45.89-4.194-2.1a2.592 2.592 0 0 1-1.433-2.319v-3.888H7.776v3.888a2.592 2.592 0 0 1-1.433 2.318l-4.194 2.1A3.888 3.888 0 0 0 0 49.367v7.659a1.3 1.3 0 0 0 1.3 1.3h20.733a1.3 1.3 0 0 0 1.3-1.3v-7.659a3.888 3.888 0 0 0-2.154-3.477Z"/><path class="c" d="M11.664 42.769a10.244 10.244 0 0 0 3.958-.8 2.554 2.554 0 0 1-.07-.5v-3.888H7.776v3.888a2.552 2.552 0 0 1-.07.5 10.3 10.3 0 0 0 3.958.8Z"/><path class="d" d="m21.179 45.889-2.988-1.494a7.766 7.766 0 0 1-13.054 0l-2.988 1.494A3.888 3.888 0 0 0 0 49.366v7.661a1.3 1.3 0 0 0 1.3 1.3h20.733a1.3 1.3 0 0 0 1.3-1.3v-7.66a3.888 3.888 0 0 0-2.154-3.478Z"/><path class="b" d="M11.665 40.178a7.778 7.778 0 0 1-7.712-6.77 1.307 1.307 0 0 1 .693-1.347 10.817 10.817 0 0 0 2.294-1.549 7.484 7.484 0 0 0 1.773-2.333 1.283 1.283 0 0 1 1.461-.71 22.33 22.33 0 0 1 8.8 4.507 1.254 1.254 0 0 1 .446 1.042 7.777 7.777 0 0 1-7.755 7.16Z"/><path d="m156.266 330.135-10.844-3.943-7.776 2.592-7.776-2.592-10.844 3.943a5.184 5.184 0 0 0-3.413 4.872v8.033a1.3 1.3 0 0 0 1.3 1.3h41.473a1.3 1.3 0 0 0 1.3-1.3v-8.033a5.184 5.184 0 0 0-3.42-4.872Z" transform="translate(-97.468 -286.015)" style="fill:#F76C6C"/><path class="a" d="m38.819 45.362-1.234 12.96h5.184l-1.234-12.96Z"/><path class="a" d="M41.538 47.143h-2.721a.907.907 0 0 1-.907-.907v-3.465h4.536v3.465a.907.907 0 0 1-.908.907ZM54.434 13.449V2.592A2.592 2.592 0 0 0 51.842 0H36.289a10.368 10.368 0 0 0-10.368 10.368v3.081a12.959 12.959 0 0 0 .665 4.1l.431 1.294a3.887 3.887 0 0 1 .2 1.229v.665h25.921v-.665a3.888 3.888 0 0 1 .2-1.229l.431-1.294a12.956 12.956 0 0 0 .665-4.1Z"/><path class="b" d="M32.401 31.106h15.553V42.77H32.401z"/><path class="c" d="M32.401 35.487a15.462 15.462 0 0 0 15.552 0v-4.382H32.401v4.382Z"/><path class="i" d="m40.173 42.769-4.134 4.134a1.3 1.3 0 0 1-1.949-.133l-4.286-5.647 1.121-2.362a1.3 1.3 0 0 1 1.851-.548ZM40.177 42.769l4.134 4.134a1.3 1.3 0 0 0 1.949-.133l4.286-5.647-1.121-2.362a1.3 1.3 0 0 0-1.851-.548Z"/><path class="b" d="M40.178 34.993a12.961 12.961 0 0 1-12.961-12.96v-1.518a2.593 2.593 0 0 1 .759-1.833l1.074-1.074a2.592 2.592 0 0 0 .759-1.833v-3.107a1.286 1.286 0 0 1 .987-1.259c3.065-.724 12.6-2.439 19.1 2.335a1.663 1.663 0 0 1 .655 1.342v.689a2.593 2.593 0 0 0 .759 1.833l1.074 1.074a2.592 2.592 0 0 1 .759 1.833v1.518a12.96 12.96 0 0 1-12.965 12.96Z"/></svg>
