<svg version="1.1" id="Layer_1" xmlns="http://www.w3.org/2000/svg" x="0" y="0" viewBox="0 0 70.1 59.2" style="enable-background:new 0 0 70.1 59.2" xml:space="preserve"><style>.st0{fill:#24305E}.st1{fill:#f7be9d}.st2{fill:#f0915a}.st3{fill:#fab991}</style><g transform="translate(-647.714 -718)"><path class="st0" d="M16 0H2.3C1 0 0 1 0 2.3v2.3h18.3V2.3C18.3 1 17.3 0 16 0z" transform="translate(663.721 772.609)"/><path class="st1" d="M3.4 0h8c3.8 0 6.9 3.1 6.9 6.9H3.4C1.5 6.9 0 5.3 0 3.4S1.5 0 3.4 0z" transform="translate(661.433 757.724)"/><path class="st2" d="M1.9 3.8h.8c.6 0 1.1-.5 1.1-1.1V1.1C3.8.5 3.3 0 2.7 0h-.8C.9 0 0 .9 0 1.9 0 3 .9 3.8 1.9 3.8z" transform="translate(662.957 759.251)"/><path class="st1" d="M12.4 9.1 3.9.7C3-.2 1.5-.2.6.7S-.3 3 .6 3.9l8.8 8.8c.6.6 1.5 1 2.4 1H16c1.3 0 2.3 1 2.3 2.3v1.1H32v-8H12.4z" transform="translate(647.714 755.458)"/><path class="st3" d="M0 0c1.3 0 2.3 1 2.3 2.3v1.1h6.9V2.3C9.2 1 8.1 0 6.9 0H0z" transform="translate(663.721 769.174)"/><path class="st0" d="M2.3 0H16c1.3 0 2.3 1 2.3 2.3v2.3H0V2.3C0 1 1 0 2.3 0z" transform="translate(683.489 772.609)"/><path class="st1" d="M14.9 0h-8C3.1 0 0 3.1 0 6.9h14.9c1.9 0 3.4-1.6 3.4-3.5-.1-1.9-1.6-3.4-3.4-3.4z" transform="translate(685.782 757.724)"/><path class="st2" d="M1.9 3.8h-.8C.5 3.8 0 3.3 0 2.7V1.1C0 .5.5 0 1.1 0h.8C3 0 3.8.9 3.8 1.9 3.8 3 3 3.8 1.9 3.8z" transform="translate(698.757 759.251)"/><path class="st1" d="M19.7 9.1 28.2.6c.9-.9 2.3-.9 3.2 0s.9 2.3 0 3.2l-8.8 8.8c-.6.6-1.5 1-2.4 1H16c-1.3 0-2.3 1-2.3 2.3V17H0V9h19.7z" transform="translate(685.779 755.458)"/><path class="st3" d="M9.2 0C7.9 0 6.9 1 6.9 2.3v1.1H0V2.3C0 1 1 0 2.3 0h6.9z" transform="translate(692.652 769.174)"/><circle cx="681.6" cy="737.3" r="18.8" style="fill:#F76C6C"/><path d="M674.3 725.9h14.6c.1 0 .1.1.1.1v1.4c0 .1 0 .1-.1.1h-5.5v.1c.8.4 1.4 1.3 1.8 2.6l.1.5h3.6c.1 0 .1.1.1.1v1.4c0 .1 0 .1-.1.1h-3.5c0 1.6-1 3.1-2.9 4.5-1.7 1-2.9 1.4-3.6 1.4 0 0 0 .1-.1.1l7.9 10.2v.1h-3s-3.1-3.9-9.1-11.8v-.1h.9c3.3 0 5.3-1.2 6-3.6 0-.3.1-.5.1-.7v-.2h-7.3c-.1 0-.1 0-.1-.1v-1.4c0-.1.1-.1.1-.1h7.3c-.2-.9-.8-1.7-1.6-2.3-1.1-.6-2.1-.9-3-.9h-2.7c-.1 0-.1 0-.1-.1V726c0-.1 0-.1.1-.1z" style="fill:#fff"/></g></svg>
