<svg version="1.1" id="Layer_1" xmlns="http://www.w3.org/2000/svg" x="0" y="0" viewBox="0 0 1080 1080" style="enable-background:new 0 0 1080 1080" xml:space="preserve"><style>.st0{fill:#d6d6d6}.st1{fill:#283372}.st3{fill:#f26724}</style><path class="st0" d="M989 979.6c0 18.6-15.1 33.7-33.7 33.7H177.8c-18.6 0-33.7-15.1-33.7-33.7V33.7c0-18.6 15.1-33.7 33.7-33.7h777.5C973.9 0 989 15.1 989 33.7v945.9z"/><path class="st1" d="m377.9 115.7-120.8 104-24-37.2h-9.9l30.5 68.5 136-135.3zM910.4 127.8c0 10.7-8.7 19.4-19.4 19.4H443.3c-10.7 0-19.5-8.7-19.5-19.4s8.7-19.4 19.5-19.4H891c10.7 0 19.4 8.7 19.4 19.4zM842.9 196.6c0 10.7-8.7 19.4-19.5 19.4H443.3c-10.7 0-19.5-8.7-19.5-19.4s8.7-19.4 19.5-19.4h380.1c10.8 0 19.5 8.7 19.5 19.4zM910.4 310.8c0 10.7-8.7 19.4-19.4 19.4H443.3c-10.7 0-19.5-8.7-19.5-19.4s8.7-19.4 19.5-19.4H891c10.7 0 19.4 8.7 19.4 19.4zM910.4 379.6c0 10.7-8.7 19.4-19.4 19.4H443.3c-10.7 0-19.5-8.7-19.5-19.4s8.7-19.4 19.5-19.4H891c10.7 0 19.4 8.7 19.4 19.4zM910.4 664.5c0 10.7-8.7 19.4-19.4 19.4H443.3c-10.7 0-19.5-8.7-19.5-19.4s8.7-19.4 19.5-19.4H891c10.7 0 19.4 8.7 19.4 19.4zM910.4 733.4c0 10.7-8.7 19.4-19.4 19.4H443.3c-10.7 0-19.5-8.7-19.5-19.4s8.7-19.4 19.5-19.4H891c10.7-.1 19.4 8.6 19.4 19.4zM910.4 487.3c0 10.7-8.7 19.4-19.4 19.4H443.3c-10.7 0-19.5-8.7-19.5-19.4s8.7-19.4 19.5-19.4H891c10.7 0 19.4 8.7 19.4 19.4z"/><path class="st0" d="M910.4 901.4c0 10.7-8.7 19.5-19.4 19.5H787.2c-10.7 0-19.5-8.7-19.5-19.5 0-10.7 8.7-19.4 19.5-19.4H891c10.7-.1 19.4 8.6 19.4 19.4z"/><path d="M563.7 560.6c-84.5 0-152.9 68.4-152.9 152.9s68.5 152.9 152.9 152.9S716.6 798 716.6 713.5c0-84.4-68.4-152.9-152.9-152.9z" style="fill:none"/><path class="st3" d="M222.7 1062.9c29.1 26.1 58.1 1.1 58.1 1.1l174.3-174.3-28.9-27.6-203.5 200.8z"/><circle cx="564" cy="714" r="159" style="opacity:.44;fill:#fff"/><path class="st3" d="M563.7 506.6c-114.3 0-206.9 92.7-206.9 206.9 0 43.4 13.4 83.7 36.3 117L221 1002.6c-25.6 32.4 0 58.6 0 58.6.6.6 1.2 1 1.8 1.6l203.6-200.7 28.9 27.6c31.6 19.5 68.7 30.7 108.5 30.7 114.3 0 206.9-92.6 206.9-206.9 0-114.2-92.7-206.9-207-206.9zm0 359.9c-84.5 0-152.9-68.4-152.9-152.9s68.5-152.9 152.9-152.9 152.9 68.4 152.9 152.9c0 84.4-68.4 152.9-152.9 152.9z"/><path transform="rotate(45.001 277.022 521.49)" class="st1" d="M191.8 512h170.4v19.1H191.8z"/><path transform="rotate(134.999 276.878 521.576)" class="st1" d="M191.7 512h170.4v19.1H191.7z"/></svg>
