<svg version="1.1" id="Layer_1" xmlns="http://www.w3.org/2000/svg" x="0" y="0" viewBox="0 0 1080 1080" style="enable-background:new 0 0 1080 1080" xml:space="preserve"><style>.st0,.st2,.st3,.st4{fill-rule:evenodd;clip-rule:evenodd;fill:#24305E}.st2,.st3,.st4{fill:#f1f2f2}.st3,.st4{fill:#F76C6C}.st4{fill:#fff}.st6{fill:#ec6826}.st7{fill:#253672}</style><path class="st0" d="M215.2 304.3c-40.1-28.1-52.7-82.7-27.8-125.9 26.4-45.7 84.8-61.3 130.5-35 25.4 14.6 56 56.2 94.1 126.1 38-69.9 68.6-111.5 94-126.1 45.7-26.4 104.1-10.7 130.5 35 24.9 43.2 12.3 97.8-27.8 125.9h208.5c9.6 0 17.4 7.8 17.4 17.4v121.6c0 9.6-7.8 17.4-17.4 17.4h-799c-9.6 0-17.4-7.8-17.4-17.4V321.6c0-9.6 7.8-17.4 17.4-17.4h197z"/><path d="M53 462.1h729.5v451.6c0 19.2-15.6 34.7-34.7 34.7h-660c-19.2 0-34.7-15.6-34.7-34.7V462.1z" style="fill-rule:evenodd;clip-rule:evenodd;fill:#F76C6C"/><path class="st2" d="M330.9 462.1h173.7v486.3H330.9z"/><path class="st3" d="M348.3 462.1h139v486.3h-139z"/><path class="st4" d="M300.5 173.5c-29.1-16.8-66.3-6.8-83 22.3-16.8 29.1-6.8 66.3 22.3 83 18.8 10.8 68 15.8 145.1 13.6-36.7-68-65.6-108.1-84.4-118.9zM584.2 278.8c29.1-16.8 39-54 22.2-83-16.8-29.1-54-39-83-22.3-18.8 10.8-47.7 51-84.3 118.9 77.1 2.2 126.3-2.8 145.1-13.6z"/><path class="st0" d="M738.9 595.6c-22-15.4-29-45.4-15.3-69.2 14.5-25.1 46.6-33.7 71.7-19.2 13.9 8 30.7 30.9 51.7 69.3 20.9-38.4 37.7-61.2 51.7-69.3 25.1-14.5 57.2-5.9 71.7 19.2 13.7 23.7 6.8 53.7-15.3 69.2h114.5c5.3 0 9.5 4.3 9.5 9.5V672c0 5.3-4.3 9.5-9.5 9.5H630.8c-5.3 0-9.5-4.3-9.5-9.5v-66.8c0-5.3 4.3-9.5 9.5-9.5h108.1z"/><path d="M649.8 682.3h400.7v248c0 10.5-8.5 19.1-19.1 19.1H668.9c-10.5 0-19.1-8.5-19.1-19.1v-248z" style="fill-rule:evenodd;clip-rule:evenodd;fill:#d65421"/><path class="st2" d="M802.5 682.3h95.4v267.1h-95.4z"/><path class="st3" d="M812 682.3h76.3v267.1H812z"/><path class="st4" d="M785.8 523.8c-16-9.2-36.4-3.7-45.6 12.2-9.2 16-3.7 36.4 12.2 45.6 10.3 6 37.3 8.7 79.7 7.4-20.1-37.2-36-59.2-46.3-65.2zM941.6 581.6c16-9.2 21.4-29.6 12.2-45.6s-29.6-21.4-45.6-12.2c-10.3 6-26.2 28-46.3 65.3 42.3 1.2 69.4-1.5 79.7-7.5z"/><path class="st6" d="m978.9 328.2 18.9-38 18.9 38c5.2 10.5 13.8 19 24.3 24.3l38 18.9-38 18.9c-10.5 5.2-19 13.8-24.3 24.3l-18.9 38-18.9-38c-5.2-10.5-13.8-19-24.3-24.3l-38-18.9 38-18.9c10.6-5.2 19.1-13.8 24.3-24.3z"/><path class="st7" d="m908.5 429.7 7.3-14.6 7.3 14.6c2 4 5.3 7.3 9.3 9.3l14.6 7.3-14.6 7.3c-4 2-7.3 5.3-9.3 9.3l-7.3 14.6-7.3-14.6c-2-4-5.3-7.3-9.3-9.3l-14.6-7.3 14.6-7.3c4-2 7.3-5.3 9.3-9.3z"/><path class="st6" d="m69.7 167.1 13-26 13 26c3.6 7.2 9.4 13 16.6 16.6l26 13-26 13c-7.2 3.6-13 9.4-16.6 16.6l-13 26-13-26c-3.6-7.2-9.4-13-16.6-16.6l-26-13 26-13c7.2-3.6 13-9.5 16.6-16.6z"/><path class="st7" d="m21.5 236.4 5-10 5 10c1.4 2.8 3.6 5 6.4 6.4l10 5-10 5c-2.8 1.4-5 3.6-6.4 6.4l-5 10-5-10c-1.4-2.8-3.6-5-6.4-6.4l-10-5 10-5c2.8-1.4 5-3.6 6.4-6.4z"/></svg>
