<svg version="1.1" id="Layer_1" xmlns="http://www.w3.org/2000/svg" x="0" y="0" viewBox="0 0 1080 1080" style="enable-background:new 0 0 1080 1080" xml:space="preserve"><style>.st0{fill:#ff6f27}.st1{fill:#f8bf9d}.st2{fill:#1f276c}</style><g id="Group_357"><g id="Group_353"><g id="Group_352"><path id="Path_233" class="st0" d="M1080 540.1C1080 241.6 838-.4 539.6-.4L517 22.1 539.6 63c263.5 0 477.1 213.6 477.1 477.1 0 126.5-50.3 247.9-139.7 337.4-89.3 89.8-210.8 140.1-337.4 139.7L517 1058l22.5 22.5c298.5 0 540.5-242 540.5-540.4z"/><path id="Path_234" class="st0" d="M539.6 1017.2c-263.5 0-477.1-213.6-477.1-477.1 0-126.5 50.3-247.9 139.7-337.4C291.5 112.9 413 62.6 539.6 63V-.4C241.1-.4-.9 241.6-.9 540.1c0 143.3 56.9 280.8 158.3 382.1 101.1 101.7 238.7 158.7 382.1 158.3v-63.3z"/></g></g><g id="Group_356" transform="translate(10.856 6.531)"><g id="Group_354" transform="translate(.596)"><path id="Path_235" class="st1" d="M793.7 404.6C784.1 316.7 738 237 666.6 184.8l-34.2-23.6-13.6 39.3c-17.7 44.1-49.6 81.1-90.6 105.1l-22.5 250.5 22.5 212.3c5.1-.4 10.3-.8 15.6-1.5C627.7 754.5 702.4 707 749 636.1c42.4-69.3 58.2-151.6 44.7-231.5z"/><path id="Path_236" class="st1" d="M485.7 328.9c-48 22.2-92.5 51.3-132 86.4-34.4 32-58.2 73.9-68.1 119.8-9 55.6 4.6 112.4 37.6 158 54.9 52.5 129.1 79.8 204.9 75.3V305.5c-6.2 4-34.7 19.4-42.4 23.4z"/></g><g id="Group_355" transform="translate(0 13.218)"><path id="Path_237" class="st2" d="m586.9 529.3-48.1-41.2c-3.1 3.6-6.5 7-10.1 10.1l-22.5 44.6 22.5 33.5c21.6-12.8 41.2-28.6 58.2-47.1v.1z"/><path id="Path_238" class="st2" d="M445 551.9c-30.9 16.1-60.4 34.8-88.1 55.9-60.1 49.5-89.3 118.2-89.3 209.9H331c0-95.4 37.8-137.6 66.2-161 24.9-18.6 51.2-35.2 78.8-49.5 17.8-10 35.8-20.1 52.7-30.9v-78.2c-26.1 20.6-54.1 38.5-83.7 53.7v.1z"/></g></g></g></svg>
