<svg version="1.1" id="Layer_1" xmlns="http://www.w3.org/2000/svg" x="0" y="0" viewBox="0 0 1080 1080" style="enable-background:new 0 0 1080 1080" xml:space="preserve"><style>.st0{fill:#f8bf9d}.st1{fill:#ff6f27}.st2{fill:#1f276c}</style><g id="Group_363" transform="translate(-88 -16)"><path id="Path_261" class="st0" d="M359 627.7h537.9v466.2H359V627.7z"/><path id="Path_263" class="st0" d="M359 18.1h537.9v251.1H359V18.1z"/><path id="Path_264" class="st1" d="M251.5 18.1H359V1094H251.5V18.1z"/><path id="Path_265" class="st1" d="M897 18.1h107.6V1094H897V18.1z"/><path id="Path_267" class="st2" d="M681.8 699.5h143.4v71.7H681.8v-71.7z"/><path id="Path_268" class="st2" d="M430.8 699.5h143.4v71.7H430.8v-71.7z"/><g id="Group_362" transform="translate(95.262 18.421)"><path id="Path_269" class="st2" d="M478.9 89.3h35.9v107.6h35.9V89.3h35.9V53.4H478.9v35.9z"/><path id="Path_270" class="st2" d="M734.8 54.1c-7.8-2.1-16 1.1-20.2 8l-38.4 64-38.4-64c-5.1-8.5-16.1-11.3-24.6-6.2-5.4 3.2-8.8 9.1-8.7 15.5v125.5h35.9v-60.8l20.5 34.2c5.8 8.5 17.4 10.7 25.9 4.8 1.9-1.3 3.5-2.9 4.8-4.8l20.5-34.2v60.8H748V71.3c-.1-8-5.5-15.1-13.2-17.2z"/><path id="Path_271" class="st2" d="M423.4 63.4c-3.1-6.1-9.3-9.9-16.1-9.9h-35.9c-6.8 0-13 3.8-16 9.9l-35.9 71.7c-1.2 2.5-1.9 5.2-1.9 8v53.8h35.9V161h71.7v35.9H461v-53.8c0-2.8-.6-5.5-1.9-8l-35.7-71.7zm-40.9 25.9h13.7l17.9 35.9h-49.6l18-35.9z"/></g></g></svg>
