<svg xmlns="http://www.w3.org/2000/svg" width="15.016" height="15.016"><defs><style>.a{fill:#F76C6C}</style></defs><path class="a" d="M14.24 0h-4.142a.777.777 0 0 0 0 1.553h2.267L4.92 9a.778.778 0 0 0 1.1 1.1l7.445-7.445v2.267a.777.777 0 0 0 1.553 0V.777A.777.777 0 0 0 14.241 0Z"/><path class="a" d="M14.24 7.249a.777.777 0 0 0-.777.777v5.437H1.553V1.553H6.99A.777.777 0 1 0 6.99 0H.777A.777.777 0 0 0 0 .777V14.24a.777.777 0 0 0 .777.777H14.24a.777.777 0 0 0 .777-.777V8.026a.777.777 0 0 0-.777-.777Z"/></svg>
