<svg version="1.1" id="Layer_1" xmlns="http://www.w3.org/2000/svg" x="0" y="0" viewBox="0 0 1080 1080" style="enable-background:new 0 0 1080 1080" xml:space="preserve"><style>.st0{fill:#c9c9c9}.st4{fill:#283372}.st5{fill:#f26724}</style><path class="st0" d="M223.5 100.1c-22-22-52.4-35.6-85.9-35.6-67.1 0-121.5 54.4-121.5 121.5H33c0-57.7 46.9-104.6 104.6-104.6 57.6 0 104.5 47 104.5 104.6v708H259V186c0-33.5-13.6-64-35.5-85.9z"/><path d="M242.1 186H32.9c0-57.7 46.9-104.6 104.6-104.6 57.7 0 104.6 47 104.6 104.6z" style="fill:#dedede"/><path d="M837.9 186v708H468.2c0 57.6-47 104.6-104.6 104.6-57.7 0-104.7-47-104.7-104.6h.1V186c0-33.5-13.6-64-35.6-86-22-21.9-52.5-35.6-85.8-35.6h578.9c33.5 0 63.9 13.6 85.8 35.6 22.1 22 35.6 52.5 35.6 86z" style="fill:#d6d6d6"/><path class="st0" d="M485 894h-16.8c0 57.6-46.9 104.6-104.6 104.6-57.7 0-104.7-47-104.7-104.6h-16.8c0 67.1 54.4 121.5 121.5 121.5 33.4 0 63.9-13.6 85.8-35.6C471.5 958 485 927.5 485 894z"/><path d="M1063.9 894H485c0 33.5-13.5 64-35.6 86-21.9 21.9-52.4 35.6-85.8 35.6h578.9c33.5 0 63.9-13.6 85.8-35.6 22.1-22 35.6-52.5 35.6-86z" style="fill:#afafaf"/><path class="st4" d="M306 194.7h482.9v32.4H306zM306 314.3h482.9v32.4H306zM306 433.9h482.9v32.4H306zM306 553.6h482.9V586H306z"/><path class="st5" d="M306 743h150.8v34.9H306zM769.1 727.8c-10.9-19.7-29-34.9-50.7-41.9-8.8-3-18.1-4.5-27.7-4.5-49.5 0-89.7 40.2-89.7 89.7 0 4.9.4 9.7 1.1 14.3 3.7 22.9 16 43 33.6 56.5 15.2 11.9 34.3 18.9 55 18.9 49.5 0 89.7-40.2 89.7-89.7 0-15.7-4.1-30.4-11.3-43.3zm-78.4 110.7c-13.9 0-26.8-4.2-37.5-11.5-18.1-12.1-29.8-32.5-29.8-55.8 0-1.4 0-2.8.2-4.2 2.1-35.3 31.3-63.1 67.1-63.1 2.1 0 4.2.1 6.3.4 24.3 2.2 44.8 17.4 54.6 38.6 4.1 8.6 6.4 18.2 6.4 28.3 0 37.2-30.2 67.3-67.3 67.3z"/><path class="st5" d="M747.5 771.2c0 31.4-25.4 56.9-56.8 56.9-10.7 0-20.6-3-29.2-8.2-16.5-9.9-27.7-28-27.7-48.7 0-5.1.7-10 2-14.6 5.9-22.6 25.3-39.7 49.2-42.1 1.9-.2 3.8-.3 5.8-.3 23.9 0 44.3 14.8 52.6 35.7 2.6 6.7 4.1 13.8 4.1 21.3z"/></svg>
